<svg width="236" height="220" viewBox="0 0 236 220" fill="none" xmlns="http://www.w3.org/2000/svg">
<path d="M117.778 219.93C182.825 219.93 235.556 189.485 235.556 151.93C235.556 114.374 182.825 83.9297 117.778 83.9297C52.731 83.9297 0 114.374 0 151.93C0 189.485 52.731 219.93 117.778 219.93Z" fill="#F0F0F0"/>
<path d="M93.4066 203.457C115.837 203.457 134.021 192.96 134.021 180.011C134.021 167.061 115.837 156.564 93.4066 156.564C70.976 156.564 52.7925 167.061 52.7925 180.011C52.7925 192.96 70.976 203.457 93.4066 203.457Z" fill="#E0E0E0"/>
<path d="M208.905 150.675L204.141 147.925C204.141 147.925 202.976 137.727 203.751 129.828C204.841 118.73 212.01 105.371 220.558 108.511C229.107 111.651 216.639 122.949 213.864 132.363C211.09 141.776 208.905 150.675 208.905 150.675Z" fill="#02AD24"/>
<path opacity="0.15" d="M208.905 150.675L204.141 147.925C204.141 147.925 202.976 137.727 203.751 129.828C204.841 118.73 212.01 105.371 220.558 108.511C229.107 111.651 216.639 122.949 213.864 132.363C211.09 141.776 208.905 150.675 208.905 150.675Z" fill="black"/>
<path d="M206.4 149.52C206.476 149.516 206.548 149.483 206.599 149.427C206.651 149.37 206.678 149.296 206.675 149.22C205.84 124.559 218.119 112.151 218.239 112.031C218.293 111.976 218.324 111.903 218.324 111.826C218.324 111.749 218.293 111.675 218.239 111.621C218.212 111.594 218.181 111.573 218.146 111.558C218.111 111.544 218.074 111.536 218.036 111.536C217.999 111.536 217.961 111.544 217.927 111.558C217.892 111.573 217.86 111.594 217.834 111.621C217.704 111.741 205.251 124.329 206.095 149.24C206.097 149.279 206.106 149.317 206.122 149.352C206.138 149.387 206.161 149.418 206.189 149.444C206.218 149.47 206.251 149.491 206.287 149.504C206.323 149.517 206.362 149.522 206.4 149.52Z" fill="white"/>
<path d="M211.9 152.39L208.51 150.435C208.51 150.435 207.93 143.436 211.365 134.937C214.364 127.538 221.763 121.394 225.493 122.684C229.222 123.974 229.127 126.618 227.307 129.393C225.488 132.168 214.434 138.772 211.9 152.39Z" fill="#02AD24"/>
<path d="M210.11 151.65C210.186 151.649 210.259 151.618 210.313 151.564C210.368 151.509 210.399 151.436 210.4 151.36C210.33 135.762 224.973 125.224 225.123 125.119C225.154 125.097 225.181 125.07 225.201 125.038C225.221 125.006 225.235 124.97 225.241 124.933C225.247 124.895 225.245 124.857 225.236 124.82C225.227 124.784 225.211 124.749 225.188 124.719C225.143 124.657 225.077 124.615 225.002 124.602C224.927 124.589 224.85 124.606 224.788 124.649C224.638 124.754 209.755 135.472 209.82 151.36C209.82 151.437 209.85 151.511 209.905 151.565C209.959 151.619 210.033 151.65 210.11 151.65Z" fill="white"/>
<path d="M32.6203 144.551L37.0197 141.581C37.0197 141.581 38.9544 130.083 37.1547 119.939C34.625 105.711 24.7915 100.982 21.292 102.482C17.7925 103.982 17.0426 108.216 23.5766 116.335C27.4511 121.109 32.4853 131.303 32.6203 144.551Z" fill="#02AD24"/>
<g opacity="0.15">
<path opacity="0.15" d="M32.6203 144.551L37.0197 141.581C37.0197 141.581 38.9544 130.083 37.1547 119.939C34.625 105.711 24.7915 100.982 21.292 102.482C17.7925 103.982 17.0426 108.216 23.5766 116.335C27.4511 121.109 32.4853 131.303 32.6203 144.551Z" fill="black"/>
</g>
<path d="M34.1301 138.852H34.0851C34.0401 138.849 33.9963 138.837 33.9564 138.816C33.9166 138.795 33.8816 138.766 33.8537 138.73C33.8259 138.695 33.8058 138.654 33.7949 138.61C33.7839 138.567 33.7823 138.521 33.7901 138.477C35.3799 125.084 29.7257 110.546 23.5716 104.762C23.5124 104.702 23.4791 104.621 23.4791 104.537C23.4791 104.452 23.5124 104.371 23.5716 104.312C23.6009 104.282 23.6359 104.258 23.6745 104.242C23.7132 104.225 23.7547 104.217 23.7966 104.217C23.8385 104.217 23.8799 104.225 23.9186 104.242C23.9572 104.258 23.9922 104.282 24.0215 104.312C30.2906 110.201 36.0498 124.979 34.44 138.567C34.4306 138.643 34.3942 138.714 34.3375 138.766C34.2807 138.818 34.2072 138.849 34.1301 138.852Z" fill="white"/>
<path d="M21.1019 152.32C20.402 152.74 18.3623 151.225 17.7973 150.86C16.8292 150.228 16.0405 149.356 15.5077 148.33C14.9099 147.167 14.688 145.846 14.8728 144.551C14.9751 143.875 15.1238 143.207 15.3177 142.551C15.4927 141.896 15.6676 141.241 15.8176 140.581C16.0393 139.94 16.1245 139.258 16.0676 138.582C15.8726 137.247 14.6678 136.332 13.5679 135.547C12.3581 134.672 11.0683 133.517 11.0683 131.908C11.13 130.643 11.614 129.435 12.4431 128.478C13.193 127.478 14.0929 126.608 14.7678 125.564C15.2955 124.84 15.5649 123.959 15.5327 123.064C15.4457 122.512 15.2485 121.983 14.9527 121.509C14.3628 120.469 13.5979 119.509 13.183 118.405C12.7681 117.3 12.798 115.88 13.6829 115.055C14.3878 114.38 15.4627 114.27 16.4375 114.315C17.3561 114.407 18.2435 114.699 19.0372 115.17C21.6218 116.545 23.1416 119.544 25.8762 120.589C26.931 120.989 28.0809 121.059 29.1757 121.329C30.2705 121.599 31.4004 122.134 31.9253 123.129C32.9602 125.104 31.1554 127.593 31.8953 129.688C32.5552 131.548 34.395 132.228 35.4348 133.892C35.8568 134.632 36.032 135.486 35.9347 136.332C35.8761 137.76 35.5558 139.164 34.9899 140.476C34.339 141.837 33.6043 143.156 32.7902 144.426C32.7902 144.426 21.2068 152.255 21.1019 152.32Z" fill="#02AD24"/>
<path d="M27.861 148.175C27.8189 148.175 27.7775 148.166 27.7389 148.149C27.7003 148.132 27.6654 148.108 27.6362 148.078C27.6069 148.048 27.5839 148.012 27.5684 147.973C27.553 147.934 27.5453 147.892 27.546 147.85C27.826 135.192 21.5969 121.354 17.1875 117.355C17.1248 117.298 17.087 117.219 17.0823 117.135C17.0777 117.051 17.1065 116.968 17.1625 116.905C17.1918 116.875 17.2268 116.851 17.2655 116.835C17.3041 116.819 17.3456 116.81 17.3875 116.81C17.4294 116.81 17.4708 116.819 17.5095 116.835C17.5481 116.851 17.5831 116.875 17.6124 116.905C22.1118 120.954 28.4659 135.032 28.1809 147.865C28.1803 147.907 28.1715 147.947 28.155 147.985C28.1386 148.023 28.1149 148.058 28.0851 148.087C28.0554 148.115 28.0203 148.138 27.9819 148.153C27.9434 148.168 27.9023 148.176 27.861 148.175Z" fill="white"/>
<path d="M25.5263 132.753C25.4968 132.76 25.4658 132.76 25.4363 132.753C21.3469 131.573 16.2776 131.453 16.2276 131.448C16.1858 131.447 16.1446 131.438 16.1063 131.422C16.068 131.405 16.0334 131.381 16.0046 131.35C15.9757 131.32 15.9532 131.284 15.9383 131.245C15.9233 131.206 15.9163 131.165 15.9177 131.123C15.9169 131.081 15.9249 131.039 15.9411 131C15.9574 130.961 15.9815 130.926 16.0121 130.897C16.0426 130.868 16.0789 130.845 16.1186 130.831C16.1583 130.816 16.2005 130.81 16.2426 130.813C16.2926 130.813 21.4419 130.938 25.6113 132.138C25.6919 132.162 25.7596 132.217 25.7998 132.291C25.8401 132.365 25.8496 132.452 25.8262 132.533C25.8068 132.597 25.767 132.653 25.7129 132.693C25.6588 132.732 25.5934 132.753 25.5263 132.753Z" fill="white"/>
<path d="M143.354 135.847L141.46 134.752C141.144 134.547 140.881 134.271 140.693 133.945C140.504 133.619 140.395 133.253 140.375 132.877V54.1288C140.396 53.7536 140.504 53.3884 140.692 53.0628C140.879 52.7372 141.141 52.4601 141.455 52.254L194.122 21.8484C194.458 21.6784 194.828 21.5898 195.205 21.5898C195.581 21.5898 195.951 21.6784 196.287 21.8484L198.182 22.9432C198.497 23.1482 198.76 23.4249 198.949 23.7506C199.137 24.0764 199.246 24.4421 199.266 24.818V103.567C199.246 103.942 199.137 104.307 198.95 104.633C198.762 104.958 198.501 105.235 198.187 105.441L145.519 135.852C145.184 136.022 144.813 136.111 144.436 136.11C144.06 136.109 143.689 136.019 143.354 135.847Z" fill="#455A64"/>
<path d="M199.266 24.643C199.191 24.0831 198.736 23.8781 198.192 24.1931L145.519 54.6037C145.201 54.8035 144.938 55.0803 144.754 55.4086L140.69 53.0639C140.872 52.7332 141.135 52.4544 141.455 52.254L194.122 21.8484C194.458 21.6784 194.828 21.5898 195.204 21.5898C195.581 21.5898 195.951 21.6784 196.287 21.8484L198.182 22.9432C198.474 23.1316 198.723 23.3811 198.91 23.6745C199.097 23.9678 199.219 24.2982 199.266 24.643Z" fill="#455A64"/>
<path d="M145.334 135.937C145.014 136.067 144.67 136.126 144.325 136.112C143.98 136.097 143.642 136.009 143.334 135.852L141.435 134.752C141.121 134.546 140.859 134.269 140.672 133.944C140.484 133.618 140.376 133.253 140.355 132.878V54.1289C140.368 53.753 140.476 53.3865 140.67 53.0641L144.734 55.4088C144.537 55.7316 144.426 56.1003 144.414 56.4786V135.227C144.434 135.847 144.824 136.132 145.334 135.937Z" fill="#263238"/>
<path d="M144.434 56.4885V135.227C144.434 135.917 144.934 136.197 145.519 135.852L198.187 105.441C198.501 105.235 198.762 104.958 198.95 104.633C199.137 104.307 199.246 103.942 199.266 103.567V24.818C199.266 24.1281 198.767 23.8481 198.187 24.1931L145.519 54.6037C145.202 54.8097 144.938 55.0879 144.75 55.4155C144.561 55.7432 144.453 56.1109 144.434 56.4885Z" fill="#37474F"/>
<path d="M132.136 86.4841C131.456 86.0792 128.302 84.2845 128.137 84.1895C128.008 84.1128 127.898 84.0082 127.816 83.8834C127.733 83.7587 127.679 83.6169 127.659 83.4687C127.638 83.3204 127.651 83.1694 127.696 83.0268C127.742 82.8842 127.819 82.7536 127.922 82.6447L140.375 69.2866L144.434 71.6163L131.986 84.9844C131.888 85.0885 131.814 85.2123 131.768 85.3475C131.722 85.4828 131.706 85.6263 131.72 85.7684C131.734 85.9105 131.779 86.0479 131.85 86.1713C131.922 86.2948 132.02 86.4015 132.136 86.4841Z" fill="#455A64"/>
<path d="M144.434 71.6315L131.986 84.9846C131.848 85.1322 131.758 85.3182 131.727 85.5182C131.697 85.7181 131.728 85.9225 131.816 86.1045C131.905 86.2865 132.046 86.4374 132.222 86.5373C132.398 86.6373 132.599 86.6815 132.801 86.6643L144.434 85.7045V71.6315Z" fill="#37474F"/>
<path d="M171.85 47.5897C177.99 44.0452 182.964 46.9198 182.964 54.0088C182.964 61.0978 177.99 69.7115 171.85 73.256C165.711 76.8005 160.737 73.926 160.737 66.842C160.737 59.758 165.711 51.1342 171.85 47.5897Z" fill="#02AD24"/>
<path d="M171.77 53.169C173.77 52.0192 175.375 52.949 175.375 55.2487C175.307 56.4988 174.945 57.7152 174.319 58.7992C173.692 59.8832 172.819 60.8043 171.77 61.4878C169.771 62.6376 168.161 61.7078 168.161 59.4081C168.23 58.1576 168.592 56.9409 169.219 55.8568C169.847 54.7728 170.721 53.8519 171.77 53.169Z" fill="white"/>
<path d="M178.879 65.4273C178.879 61.6529 176.225 60.1181 172.955 62.0078L170.91 63.1876C167.641 65.0774 164.986 69.6867 164.986 73.4512V74.486C165.604 74.6833 166.248 74.7828 166.896 74.781C168.65 74.7214 170.358 74.2043 171.85 73.2812C174.692 71.5307 177.096 69.1539 178.879 66.3322V65.4273Z" fill="white"/>
<path d="M164.811 108.346L178.889 100.217C179.489 99.8724 179.974 100.152 179.974 100.842V105.377C179.954 105.752 179.845 106.118 179.656 106.444C179.468 106.77 179.205 107.046 178.889 107.251L164.811 115.38C164.211 115.725 163.727 115.445 163.727 114.755V110.221C163.747 109.845 163.856 109.479 164.044 109.154C164.233 108.828 164.496 108.551 164.811 108.346Z" fill="#02AD24"/>
<path d="M157.917 98.2174L185.768 82.1297C186.483 81.7147 187.068 82.0497 187.068 82.8796V84.5643C187.044 85.0151 186.913 85.4538 186.687 85.8447C186.462 86.2356 186.147 86.5677 185.768 86.814L157.902 102.902C157.187 103.317 156.608 102.982 156.608 102.152V100.482C156.63 100.028 156.761 99.5853 156.989 99.1915C157.217 98.7976 157.535 98.4637 157.917 98.2174Z" fill="#FAFAFA"/>
<path d="M161.177 86.5741C161.557 86.3541 161.852 86.3191 162.062 86.4741C162.272 86.629 162.377 86.974 162.377 87.5039C162.387 87.9876 162.279 88.4665 162.062 88.8987C161.865 89.2894 161.557 89.613 161.177 89.8286L160.427 90.2635V91.8783C160.426 91.9339 160.412 91.9885 160.387 92.0383C160.369 92.0835 160.338 92.122 160.297 92.1483L159.917 92.3682C159.904 92.378 159.888 92.3832 159.872 92.3832C159.856 92.3832 159.84 92.378 159.827 92.3682C159.8 92.3344 159.788 92.2913 159.792 92.2482V87.5739C159.792 87.5186 159.804 87.464 159.827 87.4139C159.846 87.3695 159.877 87.3313 159.917 87.304L161.177 86.5741ZM160.427 89.3587L161.152 88.9387C161.327 88.8399 161.475 88.699 161.582 88.5288C161.696 88.328 161.751 88.0994 161.742 87.8689C161.742 87.5989 161.687 87.4439 161.582 87.3989C161.508 87.3809 161.43 87.3801 161.356 87.3966C161.281 87.413 161.212 87.4463 161.152 87.4939L160.427 87.9139V89.3587Z" fill="#FAFAFA"/>
<path d="M164.471 84.6695C164.521 84.6395 164.561 84.6395 164.586 84.6695C164.618 84.7143 164.641 84.7654 164.651 84.8194L165.806 88.7289C165.806 88.7289 165.806 88.7589 165.806 88.7739C165.805 88.8296 165.792 88.8843 165.766 88.9339C165.749 88.9791 165.717 89.0176 165.676 89.0438L165.336 89.2388C165.276 89.2738 165.231 89.2788 165.206 89.2388C165.182 89.2137 165.165 89.1827 165.156 89.1488L164.951 88.4639L163.452 89.3238L163.252 90.2437C163.237 90.2935 163.219 90.342 163.197 90.3886C163.172 90.4496 163.126 90.4994 163.067 90.5286L162.727 90.7236C162.714 90.7342 162.698 90.74 162.682 90.74C162.665 90.74 162.649 90.7342 162.637 90.7236C162.611 90.6913 162.598 90.65 162.602 90.6086C162.599 90.5904 162.599 90.5719 162.602 90.5536L163.752 85.3144C163.765 85.2374 163.787 85.162 163.817 85.0894C163.841 85.0369 163.881 84.9932 163.931 84.9644L164.471 84.6695ZM164.731 87.699L164.231 85.9343L163.732 88.2939L164.731 87.699Z" fill="#FAFAFA"/>
<path d="M167.556 82.8147C167.723 82.7092 167.914 82.6457 168.111 82.6298C168.25 82.6172 168.39 82.6487 168.511 82.7198C168.621 82.791 168.706 82.8938 168.756 83.0147C168.81 83.1378 168.841 83.2701 168.846 83.4047C168.849 83.4602 168.837 83.5156 168.811 83.5646C168.793 83.6099 168.762 83.6484 168.721 83.6746L168.391 83.8646C168.336 83.8946 168.296 83.8996 168.271 83.8646C168.24 83.8442 168.214 83.8168 168.196 83.7846C168.176 83.7396 168.147 83.6992 168.111 83.6657C168.075 83.6321 168.032 83.6063 167.986 83.5896C167.834 83.5678 167.679 83.6074 167.556 83.6996C167.475 83.7519 167.398 83.8104 167.326 83.8746C167.252 83.9429 167.186 84.0201 167.131 84.1046C167.078 84.1859 167.034 84.2732 167.001 84.3645C166.972 84.4515 166.956 84.5427 166.956 84.6345C166.95 84.7186 166.966 84.8029 167.001 84.8794C167.016 84.9063 167.038 84.929 167.064 84.9455C167.09 84.9621 167.12 84.972 167.151 84.9744C167.244 84.9905 167.338 84.9905 167.431 84.9744L167.866 84.8794C168.028 84.8314 168.197 84.8111 168.366 84.8195C168.486 84.8191 168.604 84.8577 168.701 84.9294C168.792 85.0064 168.859 85.1092 168.891 85.2244C168.94 85.3863 168.962 85.5552 168.956 85.7243C168.955 85.9477 168.923 86.1699 168.861 86.3842C168.8 86.6047 168.711 86.8164 168.596 87.0141C168.475 87.2168 168.33 87.4047 168.166 87.5741C167.998 87.7484 167.806 87.8982 167.596 88.019C167.442 88.1128 167.273 88.1787 167.096 88.214C166.952 88.2416 166.804 88.2295 166.666 88.179C166.541 88.1209 166.438 88.0246 166.371 87.904C166.289 87.7498 166.245 87.5786 166.241 87.4041C166.241 87.3472 166.253 87.2909 166.276 87.2391C166.298 87.1966 166.331 87.1604 166.371 87.1341L166.701 86.9441C166.751 86.9142 166.791 86.9042 166.821 86.9192C166.851 86.9341 166.871 86.9591 166.891 87.0041C166.912 87.0556 166.939 87.1043 166.971 87.1491C167.002 87.1927 167.046 87.2258 167.096 87.2441C167.162 87.2593 167.23 87.2593 167.296 87.2441C167.402 87.2191 167.503 87.1769 167.596 87.1191C167.693 87.0639 167.785 87.0003 167.871 86.9292C168.039 86.7961 168.173 86.6247 168.261 86.4292C168.301 86.3291 168.321 86.2221 168.321 86.1143C168.326 86.0751 168.322 86.0354 168.311 85.9976C168.3 85.9598 168.281 85.9246 168.256 85.8943C168.229 85.8705 168.197 85.8528 168.162 85.8424C168.128 85.8321 168.092 85.8293 168.056 85.8343C167.942 85.839 167.83 85.8575 167.721 85.8893C167.591 85.9193 167.441 85.9543 167.266 85.9843C167.132 86.0178 166.993 86.0279 166.856 86.0143C166.748 86.0073 166.645 85.9632 166.566 85.8893C166.48 85.8046 166.419 85.6971 166.391 85.5793C166.351 85.4057 166.332 85.2277 166.336 85.0494C166.336 84.8293 166.368 84.6103 166.431 84.3995C166.491 84.1826 166.578 83.9742 166.691 83.7796C166.799 83.5863 166.93 83.4068 167.081 83.2447C167.218 83.0796 167.378 82.9348 167.556 82.8147Z" fill="#FAFAFA"/>
<path d="M170.841 80.9251C171.007 80.8163 171.197 80.7509 171.395 80.7351C171.535 80.7233 171.675 80.7547 171.795 80.8251C171.902 80.8982 171.986 81.0006 172.035 81.1201C172.09 81.2431 172.121 81.3755 172.125 81.51C172.131 81.5657 172.119 81.6218 172.09 81.67C172.073 81.7152 172.041 81.7537 172 81.78L171.67 81.9699C171.62 81.9999 171.58 82.0099 171.55 81.9699C171.519 81.9499 171.494 81.9201 171.48 81.885C171.435 81.7972 171.358 81.7295 171.265 81.695C171.191 81.684 171.115 81.6881 171.042 81.707C170.969 81.7259 170.9 81.7592 170.841 81.805C170.757 81.856 170.678 81.9145 170.606 81.9799C170.533 82.0484 170.469 82.1256 170.416 82.2099C170.36 82.2901 170.317 82.3776 170.286 82.4699C170.255 82.5566 170.238 82.6477 170.236 82.7398C170.23 82.824 170.245 82.9082 170.281 82.9848C170.296 83.0116 170.318 83.0343 170.344 83.0509C170.37 83.0674 170.4 83.0774 170.431 83.0798C170.523 83.0959 170.618 83.0959 170.711 83.0798L171.146 82.9848C171.308 82.9395 171.477 82.9193 171.645 82.9248C171.766 82.9237 171.884 82.9624 171.98 83.0348C172.072 83.1128 172.139 83.2151 172.175 83.3297C172.219 83.4926 172.24 83.661 172.235 83.8297C172.235 84.053 172.203 84.2752 172.14 84.4896C172.079 84.71 171.99 84.9217 171.875 85.1195C171.755 85.3242 171.611 85.5138 171.445 85.6844C171.277 85.8545 171.087 86.0023 170.881 86.1243C170.726 86.2177 170.557 86.2837 170.381 86.3193C170.238 86.3466 170.091 86.3345 169.956 86.2843C169.828 86.2281 169.723 86.1314 169.656 86.0094C169.574 85.8555 169.531 85.6838 169.531 85.5094C169.525 85.4537 169.537 85.3976 169.566 85.3495C169.583 85.3042 169.615 85.2657 169.656 85.2395L169.986 85.0495C170.036 85.0195 170.081 85.0095 170.106 85.0245C170.123 85.0324 170.138 85.0441 170.151 85.0589C170.163 85.0736 170.171 85.0909 170.176 85.1095C170.198 85.1599 170.225 85.2084 170.256 85.2545C170.289 85.2984 170.334 85.3315 170.386 85.3495C170.451 85.3646 170.52 85.3646 170.586 85.3495C170.692 85.3244 170.793 85.2822 170.886 85.2245C170.98 85.1679 171.07 85.1044 171.155 85.0345C171.243 84.966 171.321 84.8851 171.385 84.7945C171.45 84.7082 171.504 84.6141 171.545 84.5146C171.585 84.4144 171.606 84.3075 171.605 84.1996C171.61 84.1605 171.607 84.1208 171.596 84.0829C171.584 84.0451 171.566 84.01 171.54 83.9797C171.513 83.9558 171.482 83.9381 171.447 83.9278C171.413 83.9174 171.376 83.9147 171.34 83.9197C171.229 83.9265 171.118 83.9449 171.011 83.9746C170.881 84.0046 170.726 84.0396 170.556 84.0696C170.42 84.1031 170.28 84.1133 170.141 84.0996C170.032 84.0939 169.929 84.0496 169.851 83.9746C169.766 83.8895 169.707 83.782 169.681 83.6647C169.636 83.4934 169.616 83.3167 169.621 83.1398C169.622 82.9182 169.654 82.6978 169.716 82.4849C169.778 82.2687 169.865 82.0606 169.976 81.865C170.084 81.6704 170.217 81.4907 170.371 81.33C170.505 81.1714 170.664 81.0348 170.841 80.9251Z" fill="#FAFAFA"/>
<path d="M174.485 81.5499L174.08 83.9446C174.068 84.0166 174.048 84.0871 174.02 84.1546C174.001 84.2084 173.964 84.2542 173.915 84.2845L173.535 84.5045C173.485 84.5345 173.45 84.5345 173.425 84.5045C173.392 84.4634 173.372 84.4125 173.37 84.3595L172.77 80.1351C172.77 80.1351 172.77 80.0951 172.77 80.0801C172.772 80.0245 172.785 79.9699 172.81 79.9202C172.829 79.8757 172.86 79.8376 172.9 79.8102L173.245 79.6102C173.274 79.5985 173.306 79.5985 173.335 79.6102C173.365 79.6102 173.385 79.6502 173.395 79.7302L173.79 82.5748L174.135 80.4401C174.144 80.3869 174.159 80.3349 174.18 80.2851C174.2 80.2219 174.243 80.1684 174.3 80.1351L174.685 79.9102C174.74 79.8802 174.78 79.8852 174.805 79.9102C174.827 79.942 174.842 79.9776 174.85 80.0151L175.2 81.7499L175.595 78.4504C175.6 78.3855 175.618 78.3224 175.65 78.2654C175.673 78.228 175.704 78.1957 175.74 78.1704L176.085 77.9704C176.098 77.9607 176.114 77.9554 176.13 77.9554C176.146 77.9554 176.162 77.9607 176.175 77.9704C176.189 77.9868 176.2 78.0059 176.207 78.0264C176.214 78.047 176.216 78.0688 176.215 78.0904C176.217 78.1104 176.217 78.1305 176.215 78.1504L175.615 83.0647C175.605 83.1366 175.586 83.2071 175.56 83.2747C175.537 83.328 175.499 83.3733 175.45 83.4047L175.065 83.6246C175.02 83.6496 174.985 83.6496 174.96 83.6246C174.935 83.5787 174.915 83.5301 174.9 83.4797L174.485 81.5499Z" fill="#FAFAFA"/>
<path d="M176.825 79.4302C176.836 79.153 176.869 78.8771 176.925 78.6053C176.982 78.3396 177.069 78.0813 177.185 77.8354C177.295 77.5963 177.436 77.3727 177.605 77.1705C177.775 76.9698 177.98 76.8006 178.209 76.6706C178.386 76.5511 178.592 76.4835 178.804 76.4756C178.963 76.4773 179.115 76.54 179.229 76.6506C179.35 76.7867 179.438 76.9494 179.484 77.1255C179.549 77.3551 179.584 77.5919 179.589 77.8304C179.589 77.9204 179.589 78.0204 179.589 78.1303C179.589 78.2403 179.589 78.3553 179.589 78.4753C179.589 78.5953 179.589 78.7103 179.589 78.8203C179.589 78.9302 179.589 79.0352 179.589 79.1302C179.578 79.4058 179.545 79.68 179.489 79.9501C179.432 80.2149 179.346 80.473 179.234 80.72C179.121 80.9583 178.978 81.1817 178.809 81.3849C178.638 81.5836 178.436 81.7526 178.209 81.8848C178.029 82.0035 177.82 82.0708 177.605 82.0798C177.527 82.0814 177.449 82.0671 177.377 82.0379C177.305 82.0087 177.239 81.9651 177.185 81.9098C177.054 81.7698 176.964 81.597 176.925 81.4099C176.865 81.1794 176.832 80.9429 176.825 80.705C176.825 80.615 176.825 80.515 176.825 80.405C176.825 80.295 176.825 80.1801 176.825 80.0601C176.825 79.9401 176.825 79.8301 176.825 79.7151C176.825 79.6001 176.82 79.5202 176.825 79.4302ZM178.954 78.2353C178.965 78.113 178.952 77.9897 178.914 77.8729C178.876 77.756 178.815 77.648 178.734 77.5554C178.604 77.4404 178.424 77.4454 178.209 77.5554C177.976 77.6926 177.791 77.8987 177.68 78.1454C177.538 78.4368 177.463 78.7561 177.46 79.0802C177.46 79.2652 177.46 79.4702 177.46 79.6951C177.46 79.9201 177.46 80.1201 177.46 80.3C177.448 80.4223 177.462 80.5456 177.5 80.6625C177.538 80.7793 177.599 80.8873 177.68 80.9799C177.81 81.0899 177.989 81.0799 178.209 80.9549C178.439 80.8168 178.622 80.6131 178.734 80.37C178.876 80.0804 178.951 79.7627 178.954 79.4402C178.954 79.2502 178.954 79.0452 178.954 78.8203C178.954 78.5953 178.959 78.4153 178.954 78.2353Z" fill="#FAFAFA"/>
<path d="M181.769 74.6758C182.164 74.4508 182.459 74.4158 182.664 74.5808C182.785 74.7147 182.876 74.8737 182.928 75.0466C182.981 75.2194 182.995 75.4018 182.969 75.5807C182.973 75.9202 182.92 76.2581 182.814 76.5805C182.712 76.8808 182.554 77.1591 182.349 77.4004L182.999 78.8152C183.001 78.8385 183.001 78.8619 182.999 78.8852C182.999 78.9303 182.989 78.9748 182.969 79.0152C182.955 79.0515 182.931 79.0828 182.899 79.1052L182.499 79.3351C182.434 79.3701 182.389 79.3751 182.359 79.3351C182.332 79.3089 182.31 79.2785 182.294 79.2452L181.679 77.9103L181.054 78.2703V79.96C181.054 80.0153 181.043 80.07 181.019 80.12C180.998 80.1635 180.968 80.2012 180.929 80.23L180.549 80.45C180.536 80.4606 180.521 80.4664 180.504 80.4664C180.488 80.4664 180.472 80.4606 180.459 80.45C180.445 80.4347 180.434 80.4165 180.427 80.3967C180.42 80.3769 180.417 80.3559 180.419 80.335V75.6607C180.421 75.6051 180.434 75.5504 180.459 75.5007C180.477 75.4554 180.508 75.4169 180.549 75.3907L181.769 74.6758ZM181.064 77.3654L181.769 76.9855C181.941 76.8893 182.088 76.754 182.199 76.5905C182.315 76.3979 182.37 76.1751 182.359 75.9506C182.359 75.6807 182.304 75.5307 182.199 75.5007C182.047 75.48 181.892 75.5194 181.769 75.6107L181.089 76.0006L181.064 77.3654Z" fill="#FAFAFA"/>
<path d="M185.119 72.7513C185.3 72.6329 185.508 72.5608 185.723 72.5413C185.88 72.5355 186.032 72.5912 186.148 72.6963C186.281 72.8355 186.372 73.0085 186.413 73.1962C186.481 73.4441 186.517 73.6993 186.523 73.9561C186.523 74.306 186.523 74.666 186.523 75.0309C186.513 75.3286 186.476 75.6247 186.413 75.9158C186.356 76.1863 186.269 76.4496 186.153 76.7007C186.042 76.9313 185.901 77.1465 185.733 77.3406C185.566 77.5394 185.367 77.7084 185.143 77.8405L183.959 78.4854C183.946 78.496 183.93 78.5018 183.914 78.5018C183.897 78.5018 183.881 78.496 183.869 78.4854C183.854 78.4703 183.843 78.4522 183.836 78.4324C183.829 78.4125 183.827 78.3914 183.829 78.3705V73.6961C183.83 73.6405 183.844 73.5859 183.869 73.5362C183.886 73.4909 183.918 73.4524 183.959 73.4262L185.119 72.7513ZM185.888 74.306C185.886 74.1707 185.866 74.0362 185.828 73.9061C185.805 73.8077 185.755 73.7177 185.683 73.6461C185.652 73.6148 185.615 73.5901 185.573 73.5738C185.532 73.5575 185.488 73.5498 185.443 73.5512C185.318 73.5595 185.197 73.6009 185.093 73.6711L184.464 74.0311V77.2906L185.119 76.9157C185.245 76.8419 185.358 76.7473 185.453 76.6357C185.547 76.5261 185.625 76.4051 185.688 76.2758C185.751 76.138 185.798 75.9938 185.828 75.8458C185.863 75.6914 185.883 75.5341 185.888 75.3759C185.903 75.0109 185.903 74.656 185.888 74.306Z" fill="#FAFAFA"/>
<path d="M116.468 0.191614C117.331 0.383627 118.163 0.696681 118.938 1.12148C119.68 1.52056 120.346 2.04875 120.903 2.68126C121.436 3.2897 121.831 4.00586 122.063 4.78096C122.298 5.61065 122.316 6.48727 122.113 7.32559C121.978 7.99025 121.715 8.62211 121.338 9.18533C120.993 9.66694 120.582 10.0978 120.118 10.4651C119.662 10.8194 119.175 11.1322 118.663 11.4L117.223 12.1649C116.789 12.3911 116.378 12.6572 115.993 12.9598C115.646 13.2265 115.379 13.5849 115.223 13.9946C115.147 14.1818 115.021 14.3444 114.859 14.4646C114.782 14.5243 114.692 14.5657 114.597 14.5856C114.502 14.6056 114.403 14.6035 114.309 14.5795L112.189 14.1096C112.087 14.0882 111.99 14.0467 111.904 13.9875C111.818 13.9282 111.745 13.8525 111.689 13.7647C111.629 13.683 111.589 13.5884 111.573 13.4886C111.556 13.3887 111.564 13.2863 111.594 13.1897C111.765 12.5333 112.066 11.9178 112.479 11.38C112.856 10.9043 113.293 10.4792 113.779 10.1152C114.252 9.76869 114.754 9.46266 115.278 9.20032C115.778 8.94536 116.278 8.70039 116.713 8.45543C117.118 8.23796 117.498 7.97821 117.848 7.68054C118.155 7.42357 118.368 7.07183 118.453 6.68068C118.533 6.34103 118.529 5.98716 118.442 5.64936C118.354 5.31156 118.187 4.99987 117.953 4.74096C117.369 4.10271 116.587 3.67855 115.733 3.53614C114.154 3.18619 112.821 3.71778 111.734 5.13091C111.629 5.28516 111.497 5.41899 111.344 5.52585C111.171 5.61139 110.972 5.62575 110.789 5.56584L108.534 5.06592C108.374 5.03484 108.232 4.94138 108.14 4.80595C108.09 4.7336 108.057 4.6515 108.043 4.56524C108.028 4.47898 108.032 4.39057 108.055 4.30602C108.246 3.61135 108.603 2.97331 109.094 2.44629C109.649 1.83511 110.307 1.32728 111.039 0.946507C111.839 0.527766 112.702 0.240791 113.594 0.0966287C114.549 -0.0587541 115.525 -0.0264914 116.468 0.191614ZM114.074 16.2793C114.272 16.3259 114.444 16.4482 114.554 16.6201C114.663 16.792 114.701 16.9998 114.659 17.1992L114.119 19.6488C114.1 19.7514 114.061 19.8489 114.002 19.9351C113.943 20.0212 113.867 20.0941 113.779 20.1488C113.695 20.2065 113.6 20.246 113.5 20.265C113.401 20.2839 113.298 20.2818 113.199 20.2587L110.779 19.7038C110.676 19.6865 110.578 19.6471 110.492 19.5884C110.406 19.5298 110.333 19.4532 110.279 19.3639C110.223 19.2794 110.185 19.1844 110.167 19.0847C110.149 18.985 110.151 18.8827 110.174 18.7839L110.719 16.3343C110.766 16.1357 110.888 15.9631 111.06 15.853C111.231 15.7429 111.439 15.7039 111.639 15.7444L114.074 16.2793Z" fill="#02AD24"/>
<path d="M119.138 23.6432C119.74 23.5466 120.352 23.5349 120.958 23.6082C121.536 23.6769 122.098 23.8461 122.617 24.1081C123.113 24.365 123.549 24.7226 123.897 25.158C124.211 25.5841 124.432 26.0712 124.545 26.5878C124.659 27.1045 124.663 27.6392 124.557 28.1576C124.462 28.5561 124.309 28.9384 124.102 29.2924C123.903 29.6367 123.672 29.9614 123.412 30.2623C123.157 30.5622 122.912 30.8472 122.687 31.1221C122.467 31.3783 122.271 31.6545 122.103 31.947C121.944 32.2034 121.864 32.5006 121.873 32.8019C121.868 32.9427 121.829 33.0802 121.758 33.2018C121.721 33.2579 121.674 33.3056 121.618 33.3418C121.562 33.378 121.499 33.4019 121.433 33.4118L119.933 33.6518C119.863 33.6645 119.791 33.6631 119.721 33.6476C119.652 33.6322 119.586 33.603 119.528 33.5618C119.469 33.5247 119.419 33.474 119.384 33.414C119.348 33.3541 119.327 33.2865 119.323 33.2168C119.26 32.7516 119.294 32.2785 119.423 31.827C119.54 31.4274 119.708 31.0444 119.923 30.6872C120.133 30.3444 120.374 30.0215 120.643 29.7223C120.908 29.4224 121.143 29.1424 121.373 28.8725C121.578 28.6314 121.756 28.3681 121.903 28.0876C122.033 27.8461 122.08 27.5687 122.038 27.2977C122 27.0592 121.905 26.8333 121.762 26.6392C121.618 26.4451 121.43 26.2886 121.213 26.1828C120.675 25.9232 120.067 25.8494 119.483 25.9729C118.954 26.0502 118.462 26.2892 118.075 26.657C117.687 27.0249 117.423 27.5036 117.318 28.0276C117.289 28.1536 117.238 28.2737 117.168 28.3825C117.079 28.4774 116.958 28.5362 116.828 28.5475L115.249 28.8025C115.137 28.8237 115.023 28.8004 114.929 28.7375C114.88 28.7044 114.84 28.6614 114.81 28.6114C114.78 28.5614 114.76 28.5055 114.754 28.4475C114.707 27.9514 114.784 27.4514 114.979 26.9927C115.176 26.459 115.467 25.9646 115.838 25.5329C116.245 25.0602 116.724 24.6552 117.258 24.3331C117.834 23.9838 118.473 23.7495 119.138 23.6432ZM121.718 34.5666C121.786 34.5557 121.857 34.5585 121.925 34.5748C121.992 34.5911 122.056 34.6206 122.113 34.6616C122.171 34.7004 122.221 34.7511 122.259 34.8106C122.297 34.87 122.322 34.9368 122.332 35.0066L122.612 36.7213C122.634 36.8604 122.6 37.0025 122.518 37.1166C122.435 37.2308 122.311 37.3079 122.173 37.3313L120.498 37.6062C120.359 37.6277 120.217 37.5936 120.103 37.5112C120.045 37.472 119.996 37.421 119.959 37.3616C119.922 37.3022 119.898 37.2356 119.888 37.1663L119.608 35.4515C119.595 35.3827 119.597 35.312 119.613 35.244C119.63 35.1759 119.66 35.1121 119.703 35.0566C119.742 34.9986 119.793 34.9495 119.853 34.9125C119.912 34.8754 119.978 34.8513 120.048 34.8416L121.718 34.5666Z" fill="#02AD24"/>
<g opacity="0.2">
<path opacity="0.2" d="M119.138 23.6432C119.74 23.5466 120.352 23.5349 120.958 23.6082C121.536 23.6769 122.098 23.8461 122.617 24.1081C123.113 24.365 123.549 24.7226 123.897 25.158C124.211 25.5841 124.432 26.0712 124.545 26.5878C124.659 27.1045 124.663 27.6392 124.557 28.1576C124.462 28.5561 124.309 28.9384 124.102 29.2924C123.903 29.6367 123.672 29.9614 123.412 30.2623C123.157 30.5622 122.912 30.8472 122.687 31.1221C122.467 31.3783 122.271 31.6545 122.103 31.947C121.944 32.2034 121.864 32.5006 121.873 32.8019C121.868 32.9427 121.829 33.0802 121.758 33.2018C121.721 33.2579 121.674 33.3056 121.618 33.3418C121.562 33.378 121.499 33.4019 121.433 33.4118L119.933 33.6518C119.863 33.6645 119.791 33.6631 119.721 33.6476C119.652 33.6322 119.586 33.603 119.528 33.5618C119.469 33.5247 119.419 33.474 119.384 33.414C119.348 33.3541 119.327 33.2865 119.323 33.2168C119.26 32.7516 119.294 32.2785 119.423 31.827C119.54 31.4274 119.708 31.0444 119.923 30.6872C120.133 30.3444 120.374 30.0215 120.643 29.7223C120.908 29.4224 121.143 29.1424 121.373 28.8725C121.578 28.6314 121.756 28.3681 121.903 28.0876C122.033 27.8461 122.08 27.5687 122.038 27.2977C122 27.0592 121.905 26.8333 121.762 26.6392C121.618 26.4451 121.43 26.2886 121.213 26.1828C120.675 25.9232 120.067 25.8494 119.483 25.9729C118.954 26.0502 118.462 26.2892 118.075 26.657C117.687 27.0249 117.423 27.5036 117.318 28.0276C117.289 28.1536 117.238 28.2737 117.168 28.3825C117.079 28.4774 116.958 28.5362 116.828 28.5475L115.249 28.8025C115.137 28.8237 115.023 28.8004 114.929 28.7375C114.88 28.7044 114.84 28.6614 114.81 28.6114C114.78 28.5614 114.76 28.5055 114.754 28.4475C114.707 27.9514 114.784 27.4514 114.979 26.9927C115.176 26.459 115.467 25.9646 115.838 25.5329C116.245 25.0602 116.724 24.6552 117.258 24.3331C117.834 23.9838 118.473 23.7495 119.138 23.6432ZM121.718 34.5666C121.786 34.5557 121.857 34.5585 121.925 34.5748C121.992 34.5911 122.056 34.6206 122.113 34.6616C122.171 34.7004 122.221 34.7511 122.259 34.8106C122.297 34.87 122.322 34.9368 122.332 35.0066L122.612 36.7213C122.634 36.8604 122.6 37.0025 122.518 37.1166C122.435 37.2308 122.311 37.3079 122.173 37.3313L120.498 37.6062C120.359 37.6277 120.217 37.5936 120.103 37.5112C120.045 37.472 119.996 37.421 119.959 37.3616C119.922 37.3022 119.898 37.2356 119.888 37.1663L119.608 35.4515C119.595 35.3827 119.597 35.312 119.613 35.244C119.63 35.1759 119.66 35.1121 119.703 35.0566C119.742 34.9986 119.793 34.9495 119.853 34.9125C119.912 34.8754 119.978 34.8513 120.048 34.8416L121.718 34.5666Z" fill="black"/>
</g>
<path d="M133.276 26.3378C133.344 26.3851 133.402 26.4459 133.446 26.5164C133.49 26.5869 133.519 26.6656 133.531 26.7477C133.547 26.829 133.546 26.9128 133.528 26.9937C133.51 27.0745 133.475 27.1508 133.426 27.2176L132.236 28.8924C132.189 28.9605 132.128 29.0183 132.057 29.0622C131.987 29.106 131.908 29.135 131.826 29.1473C131.745 29.1633 131.661 29.1621 131.58 29.1441C131.499 29.126 131.423 29.0914 131.356 29.0424L129.716 27.8775C129.648 27.8308 129.591 27.7701 129.547 27.6994C129.504 27.6287 129.477 27.5497 129.466 27.4676C129.451 27.3863 129.452 27.3025 129.47 27.2216C129.488 27.1407 129.522 27.0645 129.571 26.9977L130.776 25.3229C130.874 25.1872 131.021 25.0953 131.185 25.0672C131.35 25.0391 131.519 25.0771 131.656 25.1729L133.276 26.3378ZM140.195 14.9944C140.793 15.4134 141.325 15.9188 141.775 16.4942C142.213 17.0293 142.552 17.6389 142.775 18.2939C142.982 18.9216 143.052 19.5865 142.98 20.2436C142.895 20.9443 142.63 21.611 142.21 22.1784C141.898 22.6371 141.496 23.0282 141.03 23.3282C140.619 23.5856 140.173 23.7811 139.705 23.9081C139.249 24.0272 138.784 24.1075 138.315 24.1481L136.985 24.2681C136.587 24.2999 136.192 24.3685 135.806 24.473C135.449 24.5539 135.123 24.7342 134.866 24.9929C134.749 25.1112 134.602 25.1943 134.441 25.2329C134.364 25.2549 134.283 25.2582 134.205 25.2426C134.127 25.2269 134.053 25.1928 133.991 25.1429L132.541 24.1131C132.403 24.0141 132.308 23.8654 132.276 23.6981C132.257 23.6171 132.258 23.5327 132.278 23.4519C132.298 23.3712 132.337 23.2962 132.391 23.2332C132.73 22.7937 133.153 22.4266 133.636 22.1534C134.071 21.9159 134.534 21.7361 135.016 21.6184C135.48 21.5058 135.954 21.4338 136.43 21.4035C136.9 21.3735 137.34 21.3385 137.75 21.2985C138.125 21.2653 138.496 21.1916 138.855 21.0785C139.169 20.9739 139.44 20.7682 139.625 20.4936C139.792 20.2617 139.901 19.9929 139.942 19.71C139.983 19.4271 139.955 19.1386 139.86 18.8688C139.623 18.2025 139.171 17.6342 138.575 17.2541C137.495 16.4842 136.317 16.4592 135.041 17.1791C134.912 17.2608 134.77 17.3184 134.621 17.349C134.543 17.3545 134.465 17.3444 134.391 17.3195C134.317 17.2947 134.249 17.2554 134.191 17.2041L132.651 16.1092C132.595 16.0722 132.548 16.0244 132.511 15.9686C132.474 15.9127 132.448 15.8501 132.436 15.7843C132.424 15.7162 132.426 15.6465 132.443 15.5793C132.459 15.5122 132.489 15.4492 132.531 15.3943C132.894 14.9288 133.366 14.5597 133.906 14.3195C134.519 14.0419 135.175 13.8727 135.846 13.8196C136.583 13.7579 137.326 13.817 138.045 13.9945C138.821 14.1815 139.552 14.5214 140.195 14.9944Z" fill="#02AD24"/>
<g opacity="0.6">
<path opacity="0.6" d="M133.276 26.3378C133.344 26.3851 133.402 26.4459 133.446 26.5164C133.49 26.5869 133.519 26.6656 133.531 26.7477C133.547 26.829 133.546 26.9128 133.528 26.9937C133.51 27.0745 133.475 27.1508 133.426 27.2176L132.236 28.8924C132.189 28.9605 132.128 29.0183 132.057 29.0622C131.987 29.106 131.908 29.135 131.826 29.1473C131.745 29.1633 131.661 29.1621 131.58 29.1441C131.499 29.126 131.423 29.0914 131.356 29.0424L129.716 27.8775C129.648 27.8308 129.591 27.7701 129.547 27.6994C129.504 27.6287 129.477 27.5497 129.466 27.4676C129.451 27.3863 129.452 27.3025 129.47 27.2216C129.488 27.1407 129.522 27.0645 129.571 26.9977L130.776 25.3229C130.874 25.1872 131.021 25.0953 131.185 25.0672C131.35 25.0391 131.519 25.0771 131.656 25.1729L133.276 26.3378ZM140.195 14.9944C140.793 15.4134 141.325 15.9188 141.775 16.4942C142.213 17.0293 142.552 17.6389 142.775 18.2939C142.982 18.9216 143.052 19.5865 142.98 20.2436C142.895 20.9443 142.63 21.611 142.21 22.1784C141.898 22.6371 141.496 23.0282 141.03 23.3282C140.619 23.5856 140.173 23.7811 139.705 23.9081C139.249 24.0272 138.784 24.1075 138.315 24.1481L136.985 24.2681C136.587 24.2999 136.192 24.3685 135.806 24.473C135.449 24.5539 135.123 24.7342 134.866 24.9929C134.749 25.1112 134.602 25.1943 134.441 25.2329C134.364 25.2549 134.283 25.2582 134.205 25.2426C134.127 25.2269 134.053 25.1928 133.991 25.1429L132.541 24.1131C132.403 24.0141 132.308 23.8654 132.276 23.6981C132.257 23.6171 132.258 23.5327 132.278 23.4519C132.298 23.3712 132.337 23.2962 132.391 23.2332C132.73 22.7937 133.153 22.4266 133.636 22.1534C134.071 21.9159 134.534 21.7361 135.016 21.6184C135.48 21.5058 135.954 21.4338 136.43 21.4035C136.9 21.3735 137.34 21.3385 137.75 21.2985C138.125 21.2653 138.496 21.1916 138.855 21.0785C139.169 20.9739 139.44 20.7682 139.625 20.4936C139.792 20.2617 139.901 19.9929 139.942 19.71C139.983 19.4271 139.955 19.1386 139.86 18.8688C139.623 18.2025 139.171 17.6342 138.575 17.2541C137.495 16.4842 136.317 16.4592 135.041 17.1791C134.912 17.2608 134.77 17.3184 134.621 17.349C134.543 17.3545 134.465 17.3444 134.391 17.3195C134.317 17.2947 134.249 17.2554 134.191 17.2041L132.651 16.1092C132.595 16.0722 132.548 16.0244 132.511 15.9686C132.474 15.9127 132.448 15.8501 132.436 15.7843C132.424 15.7162 132.426 15.6465 132.443 15.5793C132.459 15.5122 132.489 15.4492 132.531 15.3943C132.894 14.9288 133.366 14.5597 133.906 14.3195C134.519 14.0419 135.175 13.8727 135.846 13.8196C136.583 13.7579 137.326 13.817 138.045 13.9945C138.821 14.1815 139.552 14.5214 140.195 14.9944Z" fill="white"/>
</g>
<path d="M96.0462 70.5915H78.2838V27.5577C78.2838 23.82 79.7685 20.2354 82.4115 17.5925C85.0544 14.9495 88.639 13.4647 92.3767 13.4647H94.0165C97.7542 13.4647 101.339 14.9495 103.982 17.5925C106.625 20.2354 108.109 23.82 108.109 27.5577V58.5533C108.103 61.7483 106.829 64.8102 104.567 67.0671C102.306 69.324 99.2413 70.5915 96.0462 70.5915Z" fill="#263238"/>
<path d="M76.554 174.192C76.2398 175.975 76.0726 177.781 76.0541 179.591C75.9891 182.871 75.3892 184.035 75.3092 186.725C75.2142 189.8 75.7491 190.949 76.994 192.679C78.2388 194.409 81.4933 195.974 82.9031 193.054C84.3129 190.134 84.1079 188.22 83.663 185.205C83.2081 182.086 83.1631 180.361 82.8831 177.986C82.6531 175.892 82.3832 174.297 82.3832 174.297L76.554 174.192Z" fill="#263238"/>
<path d="M85.8627 152.41L75.0642 152.215C75.2242 159.424 76.3691 167.428 76.564 174.212C76.604 175.487 76.534 184.105 77.014 186.71C77.7389 190.649 82.4082 190.114 82.6582 187.76C82.9081 185.405 82.3582 175.342 82.3732 174.302C82.3282 169.962 84.3729 162.638 85.4278 154.849C85.4727 154.475 85.8127 152.785 85.8627 152.41Z" fill="#FFA8A7"/>
<path d="M99.7357 168.583C99.7357 168.583 99.3107 168.353 99.2358 168.808C99.1308 169.347 98.9708 170.462 98.7358 171.352C98.4259 172.587 98.1659 174.622 98.3509 175.632C98.5359 176.641 100.886 177.931 102.41 178.401C104.29 178.981 106.003 180.001 107.41 181.376C108.909 182.795 112.174 184.135 114.409 184.12C117.033 184.12 118.863 183.245 119.728 181.841C120.593 180.436 118.938 180.266 115.938 178.341L113.614 176.841C108.859 173.737 107.115 172.077 105.78 168.972L99.7357 168.583Z" fill="#263238"/>
<path d="M105.82 166.658C105.74 164.428 107.28 145.476 107.28 145.476L97.0261 150.15C99.2208 163.258 99.6907 166.353 99.7257 168.497C99.6807 168.677 99.6622 168.862 99.6707 169.047C99.6707 171.592 102.555 172.967 104.795 174.667C106.699 176.158 108.728 177.483 110.859 178.626C112.489 179.441 115.798 179.516 116.208 178.471C113.479 176.386 109.509 173.267 107.34 170.887C106.28 169.767 105.9 168.892 105.82 166.658Z" fill="#FFA8A7"/>
<path d="M79.4886 82.0647C75.5492 90.7085 75.5492 97.3975 76.2041 108.431C76.784 118.554 77.7488 127.478 77.7488 127.478C77.5989 129.273 75.1042 132.777 74.7793 140.716C74.4793 148.135 75.2792 157.569 75.2792 157.569C75.2792 157.569 80.8834 160.673 85.0278 157.539C85.0278 157.539 89.0272 138.447 90.1971 129.158C91.1969 121.054 92.9967 110.701 92.9967 110.701L96.7811 129.103C95.9643 131.714 95.3722 134.39 95.0114 137.102C94.4814 142.566 97.541 153.294 97.541 153.294C97.541 153.294 103.33 155.019 106.865 151.885C106.865 151.885 108.184 134.442 108.679 127.863C109.339 119.049 107.95 95.1928 106.865 82.5596L79.4886 82.0647Z" fill="#455A64"/>
<path d="M93.0067 110.686L94.5614 96.8179C94.5614 96.8179 101.53 95.888 104.69 92.9185C103.786 94.3333 102.581 95.5317 101.161 96.4285C99.7418 97.3254 98.1422 97.8987 96.4762 98.1077L94.2265 111.011L96.7811 129.103L93.0067 110.686Z" fill="#263238"/>
<path d="M121.228 78.6553C121.516 76.1246 121.642 73.5782 121.608 71.0314C121.453 68.8317 121.058 68.4718 117.983 64.5773C113.834 59.3131 110.289 54.5788 106.54 49.8744C103.86 46.5149 101.041 46 98.3009 46.15C96.3812 46.2549 100.131 55.4886 102.015 60.9528L112.779 72.5412C113.112 72.9985 113.265 73.5628 113.209 74.1259L112.559 83.9845L115.783 88.3039C115.783 88.3039 120.668 84.0945 121.228 78.6553Z" fill="#FFA8A7"/>
<path d="M87.9224 46.4502C85.8377 46.5951 82.0482 46.9501 82.0482 46.9501C79.8635 48.1699 79.3086 49.1748 78.9037 52.0744C78.7287 53.3142 79.7385 56.6087 80.6034 61.293L82.2432 69.9768L82.0632 74.2862C81.2133 76.9158 79.2886 80.1803 77.5889 84.9946C85.9377 89.654 92.9366 89.8289 99.2857 88.9941C104.125 88.3692 106.69 87.1993 107.545 86.0395C107.365 81.2852 107.045 78.3456 106.945 73.3763C106.91 71.2916 107.035 69.1819 107.12 66.7822C110.364 64.1126 110.404 59.6733 108.619 56.7837C104.505 50.1196 100.501 45.9252 97.8509 46.1402L87.9224 46.4502Z" fill="#02AD24"/>
<path opacity="0.6" d="M87.9224 46.4502C85.8377 46.5951 82.0482 46.9501 82.0482 46.9501C79.8635 48.1699 79.3086 49.1748 78.9037 52.0744C78.7287 53.3142 79.7385 56.6087 80.6034 61.293L82.2432 69.9768L82.0632 74.2862C81.2133 76.9158 79.2886 80.1803 77.5889 84.9946C85.9377 89.654 92.9366 89.8289 99.2857 88.9941C104.125 88.3692 106.69 87.1993 107.545 86.0395C107.365 81.2852 107.045 78.3456 106.945 73.3763C106.91 71.2916 107.035 69.1819 107.12 66.7822C110.364 64.1126 110.404 59.6733 108.619 56.7837C104.505 50.1196 100.501 45.9252 97.8509 46.1402L87.9224 46.4502Z" fill="white"/>
<path opacity="0.1" d="M100.656 66.8469C100.656 66.8469 96.8461 69.8065 92.4917 68.2617C91.269 67.8764 90.1664 67.1821 89.2906 66.2458C88.4148 65.3096 87.7954 64.1632 87.4925 62.9175C87.4925 62.9175 87.0325 67.8918 92.5167 69.5865C97.831 71.2213 100.656 66.8469 100.656 66.8469Z" fill="black"/>
<path d="M105.825 32.7968C105.66 40.0157 103.325 41.7955 102.145 42.2954C100.966 42.7953 98.7059 42.4954 96.5062 42.1304V46.4898C96.5062 46.4898 99.0458 49.1494 98.8558 51.1341C98.6659 53.1188 94.8564 53.3438 92.0168 51.3991C90.45 50.3228 89.0328 49.0435 87.8024 47.5946C87.5662 47.3151 87.4368 46.9608 87.4375 46.5948V36.3962C87.4375 36.3962 86.2326 37.6711 84.1029 36.2113C83.6434 35.918 83.25 35.5323 82.9475 35.0788C82.6451 34.6252 82.4404 34.1137 82.3464 33.5768C82.2523 33.0398 82.271 32.4892 82.4013 31.9598C82.5316 31.4305 82.7706 30.9341 83.1031 30.5021C84.033 29.4072 86.3926 29.3323 87.5225 31.002C88.1624 32.2468 88.2474 33.5017 88.9622 33.0017C90.862 31.6319 89.8421 28.5024 92.1368 27.0026C92.8898 26.6096 93.672 26.2753 94.4765 26.0027C98.5709 24.5879 102.12 23.3981 102.975 20.5985C104.585 21.5184 106.025 24.283 105.825 32.7968Z" fill="#FFA8A7"/>
<path d="M97.7509 39.2459C98.2755 39.2459 98.7008 38.8207 98.7008 38.2961C98.7008 37.7715 98.2755 37.3462 97.7509 37.3462C97.2264 37.3462 96.8011 37.7715 96.8011 38.2961C96.8011 38.8207 97.2264 39.2459 97.7509 39.2459Z" fill="#B16668"/>
<path d="M97.1211 31.7019C97.1208 31.8975 97.0632 32.0887 96.9554 32.2519C96.8476 32.415 96.6943 32.543 96.5145 32.6199C96.3347 32.6968 96.1363 32.7194 95.9438 32.6847C95.7513 32.65 95.5733 32.5596 95.4317 32.4247C95.29 32.2898 95.1911 32.1164 95.147 31.9258C95.103 31.7353 95.1158 31.536 95.1839 31.3527C95.2519 31.1693 95.3723 31.01 95.53 30.8943C95.6877 30.7787 95.8759 30.7118 96.0712 30.7021C96.2067 30.6953 96.3421 30.7161 96.4692 30.7633C96.5964 30.8105 96.7126 30.8831 96.8108 30.9766C96.909 31.0702 96.9871 31.1827 97.0405 31.3074C97.0938 31.4321 97.1212 31.5663 97.1211 31.7019Z" fill="#263238"/>
<path d="M104.695 31.802C104.705 31.9243 104.691 32.0474 104.653 32.1642C104.615 32.281 104.555 32.389 104.475 32.4821C104.394 32.5751 104.297 32.6513 104.187 32.7062C104.077 32.7611 103.958 32.7936 103.835 32.8018C103.712 32.8132 103.587 32.7982 103.47 32.7578C103.352 32.7174 103.245 32.6525 103.155 32.5674C103.064 32.4822 102.993 32.3789 102.946 32.2642C102.898 32.1495 102.876 32.026 102.88 31.902C102.867 31.7787 102.88 31.6542 102.917 31.5359C102.954 31.4177 103.014 31.3082 103.095 31.2142C103.176 31.1203 103.275 31.0438 103.386 30.9895C103.498 30.9351 103.619 30.9041 103.743 30.8983C103.866 30.8925 103.99 30.9121 104.106 30.9558C104.222 30.9994 104.328 31.0663 104.417 31.1523C104.506 31.2383 104.577 31.3417 104.624 31.4559C104.672 31.5702 104.696 31.6931 104.695 31.817V31.802Z" fill="#263238"/>
<path d="M95.8363 34.2718C94.974 34.2718 94.1469 33.9296 93.5367 33.3204C92.9265 32.7111 92.5831 31.8846 92.5817 31.0223C92.5817 28.8126 94.8614 28.8126 95.8363 28.8126C96.8111 28.8126 99.0858 28.8126 99.0858 31.0223C99.0845 31.8837 98.7417 32.7095 98.1326 33.3186C97.5235 33.9277 96.6977 34.2705 95.8363 34.2718ZM95.8363 29.3226C93.8366 29.3226 93.0967 29.8225 93.0967 31.0223C93.0967 31.7515 93.3863 32.4509 93.902 32.9666C94.4176 33.4822 95.117 33.7719 95.8463 33.7719C96.5755 33.7719 97.2749 33.4822 97.7905 32.9666C98.3062 32.4509 98.5959 31.7515 98.5959 31.0223C98.5759 29.7975 97.806 29.3226 95.8363 29.3226Z" fill="#455A64"/>
<path d="M104.09 34.2718C103.228 34.2718 102.401 33.9296 101.79 33.3204C101.18 32.7111 100.837 31.8846 100.836 31.0223C100.836 28.8126 103.115 28.8126 104.09 28.8126C105.065 28.8126 107.34 28.8126 107.34 31.0223C107.338 31.8837 106.995 32.7095 106.386 33.3186C105.777 33.9277 104.951 34.2705 104.09 34.2718ZM104.09 29.3226C102.12 29.3226 101.35 29.8225 101.35 31.0223C101.35 31.7515 101.64 32.4509 102.156 32.9666C102.671 33.4822 103.371 33.7719 104.1 33.7719C104.829 33.7719 105.529 33.4822 106.044 32.9666C106.56 32.4509 106.85 31.7515 106.85 31.0223C106.83 29.7975 106.06 29.3226 104.09 29.3226Z" fill="#455A64"/>
<path d="M99.5907 29.9724L99.7507 36.0465L102.945 35.0567L99.5907 29.9724Z" fill="#F28F8F"/>
<path d="M96.5012 42.1454C94.1815 41.8405 89.4072 40.4707 88.6623 38.5809C88.9621 39.536 89.5464 40.3767 90.3371 40.9906C91.7619 42.2154 96.5012 43.5902 96.5012 43.5902V42.1454Z" fill="#F28F8F"/>
<path d="M96.6162 27.0226L94.4965 28.3174C94.3294 28.0264 94.2809 27.6822 94.3609 27.3564C94.441 27.0306 94.6435 26.7481 94.9264 26.5676C95.0662 26.4828 95.2218 26.4272 95.3838 26.4041C95.5457 26.3811 95.7106 26.3912 95.8686 26.4337C96.0265 26.4762 96.1742 26.5503 96.3027 26.6515C96.4312 26.7528 96.5378 26.879 96.6162 27.0226Z" fill="#263238"/>
<path d="M105.24 28.4627L102.88 27.6378C102.926 27.4814 103.003 27.336 103.107 27.2106C103.211 27.0851 103.339 26.9822 103.485 26.9082C103.63 26.8343 103.789 26.7908 103.951 26.7804C104.114 26.77 104.277 26.793 104.43 26.8479C104.747 26.9616 105.007 27.1927 105.158 27.4933C105.309 27.7939 105.338 28.141 105.24 28.4627Z" fill="#263238"/>
<path d="M98.8308 31.2821C98.7969 31.2822 98.7633 31.2754 98.7321 31.2623C98.7008 31.2491 98.6725 31.2299 98.6487 31.2057C98.625 31.1815 98.6063 31.1528 98.5938 31.1213C98.5813 31.0898 98.5752 31.0561 98.5758 31.0222C98.5758 30.6072 99.3957 30.3373 100.136 30.3373C100.876 30.3373 101.35 30.6072 101.35 31.0222C101.335 31.0765 101.302 31.1243 101.257 31.1583C101.212 31.1923 101.157 31.2107 101.1 31.2107C101.044 31.2107 100.989 31.1923 100.944 31.1583C100.899 31.1243 100.866 31.0765 100.851 31.0222C100.851 30.9722 100.596 30.8472 100.151 30.8472C99.7924 30.8396 99.436 30.9007 99.1008 31.0272C99.1008 31.062 99.0938 31.0964 99.08 31.1283C99.0663 31.1603 99.0462 31.1891 99.0209 31.213C98.9956 31.2369 98.9657 31.2553 98.933 31.2672C98.9003 31.2791 98.8655 31.2842 98.8308 31.2821Z" fill="#455A64"/>
<path d="M92.8466 31.062H92.8166L87.1025 30.5621C86.8355 30.2974 86.5174 30.0899 86.1676 29.9521L92.8766 30.5721C92.9439 30.5808 93.0051 30.6155 93.0471 30.6688C93.0891 30.722 93.1087 30.7896 93.1016 30.857C93.0899 30.9157 93.0579 30.9683 93.0113 31.0058C92.9647 31.0433 92.9064 31.0631 92.8466 31.062Z" fill="#455A64"/>
<path d="M69.3851 37.0212C71.2548 34.5216 72.5296 32.6369 74.2344 30.5222C75.2043 29.3074 75.8242 28.4375 76.734 27.1927C77.3739 26.3328 77.7339 25.6079 78.4638 25.3429C79.2524 25.0198 79.963 24.5324 80.5485 23.9131C80.9084 23.515 81.2423 23.0942 81.5484 22.6533C82.6199 21.211 83.8926 19.9299 85.3278 18.8489C86.8276 17.719 88.5024 16.8491 90.0471 15.7743C90.967 15.1294 91.9519 14.0595 90.832 13.0597C90.4886 12.7704 90.0776 12.5727 89.6372 12.4848C86.9126 11.8949 84.5429 12.8297 81.8783 13.5096C80.7209 13.7985 79.5889 14.1814 78.4938 14.6545C77.9551 14.8675 77.45 15.1571 76.994 15.5143C76.3565 16.1571 75.834 16.9045 75.4492 17.724C74.2844 19.8037 71.7848 21.6634 70.035 23.3082C67.9903 25.2329 66.1606 26.9977 63.8259 29.1174C61.7262 31.0321 59.6715 32.7919 57.7468 34.8816C56.152 36.6063 56.7469 37.9561 56.9569 38.426C58.2567 41.0957 59.7115 42.0555 61.4562 43.7103C64.4558 46.5749 74.8293 54.8187 78.2638 57.5433C79.0018 58.1229 79.5813 58.8795 79.9486 59.743L80.6085 61.2678C84.5279 61.9877 87.1425 56.1035 83.898 49.0195C83.3607 47.874 82.5399 46.8846 81.5134 46.1449C77.4139 43.1604 69.3851 37.0212 69.3851 37.0212Z" fill="#FFA8A7"/>
<path d="M69.385 37.0212C68.1375 38.5559 66.475 39.6995 64.5957 40.3158C64.5957 40.3158 67.0954 40.9557 70.5199 37.8811L69.385 37.0212Z" fill="#F28F8F"/>
<path d="M120.208 73.4409L119.568 72.891C119.472 72.828 119.363 72.7884 119.249 72.7754C119.136 72.7623 119.02 72.7763 118.913 72.816L111.969 74.7057C111.619 74.8224 111.299 75.0132 111.029 75.2651C110.76 75.5171 110.549 75.8242 110.409 76.1655L105.41 90.5785C105.35 90.6959 105.326 90.8287 105.342 90.9597C105.358 91.0907 105.413 91.2139 105.5 91.3134L106.16 91.8833C106.256 91.9495 106.367 91.9914 106.482 92.0053C106.598 92.0192 106.716 92.0048 106.825 91.9633L113.779 90.0735C114.128 89.9569 114.449 89.7661 114.718 89.5142C114.987 89.2622 115.199 88.9551 115.338 88.6137C116.338 85.7792 119.338 77.0354 120.338 74.2008C120.458 73.8459 120.398 73.5759 120.208 73.4409Z" fill="#455A64"/>
<path d="M106.065 91.1335L111.064 76.7206C111.203 76.3795 111.414 76.0727 111.684 75.8215C111.953 75.5703 112.274 75.3807 112.624 75.2658L119.563 73.376C120.208 73.2011 120.563 73.571 120.333 74.2009C119.333 77.0355 116.333 85.7793 115.333 88.6139C115.194 88.9552 114.982 89.2623 114.713 89.5143C114.444 89.7662 114.123 89.957 113.774 90.0736L106.835 91.9834C106.195 92.1333 105.85 91.7634 106.065 91.1335Z" fill="#02AD24"/>
<path d="M111.869 75.6657C111.508 75.9391 111.228 76.3054 111.059 76.7256L106.06 91.1335C106.003 91.2479 105.979 91.3762 105.991 91.5035C106.003 91.6309 106.052 91.7521 106.13 91.8534L105.51 91.3235C105.421 91.2252 105.364 91.1022 105.347 90.9709C105.33 90.8395 105.354 90.7062 105.415 90.5886L110.414 76.1756C110.572 75.7838 110.829 75.4394 111.159 75.1758L111.869 75.6657Z" fill="#37474F"/>
<path d="M118.303 80.0101C117.803 81.4749 116.068 82.4548 113.199 83.1347C110.329 83.8146 108.744 86.8592 109.199 87.784C109.654 88.7089 114.294 89.5738 116.148 89.3088C118.003 89.0438 119.863 86.3642 120.428 85.5344C120.993 84.7045 121.643 78.9153 121.048 78.1204C120.453 77.3255 119.198 77.4505 119.198 77.4505L118.303 80.0101Z" fill="#F28F8F"/>
</svg>
