<svg width="28" height="29" viewBox="0 0 28 29" fill="none" xmlns="http://www.w3.org/2000/svg">
<path fill-rule="evenodd" clip-rule="evenodd" d="M15.9123 19.114C17.4805 19.114 18.7569 20.3813 18.7569 21.939V25.9454C18.7569 26.2802 19.0252 26.5485 19.3691 26.5563H21.8516C23.8079 26.5563 25.3982 24.9855 25.3982 23.0552V11.6925C25.3891 11.0282 25.0726 10.403 24.5295 9.98754L15.9423 3.13914C14.7896 2.2261 13.1771 2.2261 12.0205 3.14174L3.49194 9.98493C2.92797 10.4134 2.61147 11.0386 2.60495 11.7146V23.0552C2.60495 24.9855 4.19527 26.5563 6.15159 26.5563H8.65755C9.01052 26.5563 9.29706 26.2763 9.29706 25.9324C9.29706 25.8569 9.30618 25.7813 9.32181 25.7097V21.939C9.32181 20.3904 10.5904 19.1244 12.1469 19.114H15.9123ZM21.8516 28.51H19.3456C17.9103 28.4761 16.8032 27.3495 16.8032 25.9454V21.939C16.8032 21.4584 16.4034 21.0677 15.9123 21.0677H12.1534C11.6728 21.0703 11.2755 21.4623 11.2755 21.939V25.9324C11.2755 26.0301 11.2625 26.1239 11.2351 26.2124C11.0945 27.5019 9.99258 28.51 8.65755 28.51H6.15159C3.11813 28.51 0.651245 26.0627 0.651245 23.0552V11.7055C0.66427 10.4108 1.2608 9.22559 2.29106 8.44541L10.8027 1.61394C12.677 0.129121 15.2884 0.129121 17.1588 1.61133L25.7317 8.44932C26.7385 9.21647 27.335 10.3991 27.3519 11.6781V23.0552C27.3519 26.0627 24.8851 28.51 21.8516 28.51Z" fill="#02AD24"/>
</svg>
