<svg width="301" height="291" viewBox="0 0 301 291" fill="none" xmlns="http://www.w3.org/2000/svg">
<g clip-path="url(#clip0_246_3276)">
<path d="M150.423 290.696C233.238 290.696 300.372 250.859 300.372 201.718C300.372 152.577 233.238 112.74 150.423 112.74C67.6086 112.74 0.474121 152.577 0.474121 201.718C0.474121 250.859 67.6086 290.696 150.423 290.696Z" fill="#F5F5F5"/>
<path d="M182.741 179.097L92.7511 231.08C92.2103 231.355 91.612 231.499 91.0051 231.499C90.3983 231.499 89.8 231.355 89.2591 231.08L78.5901 225.198C78.3796 225.127 78.1967 224.992 78.0671 224.812C77.9375 224.631 77.8678 224.415 77.8678 224.193C77.8678 223.97 77.9375 223.754 78.0671 223.573C78.1967 223.393 78.3796 223.258 78.5901 223.187L168.608 171.197C169.149 170.922 169.747 170.778 170.354 170.778C170.961 170.778 171.559 170.922 172.1 171.197L182.776 177.079C183.705 177.671 183.705 178.536 182.741 179.097Z" fill="#E0E0E0"/>
<path d="M208.97 261.745C228.572 261.745 244.463 253.11 244.463 242.459C244.463 231.808 228.572 223.173 208.97 223.173C189.368 223.173 173.477 231.808 173.477 242.459C173.477 253.11 189.368 261.745 208.97 261.745Z" fill="#E0E0E0"/>
<path d="M256.903 192.488C265.227 192.488 271.974 188.821 271.974 184.298C271.974 179.775 265.227 176.108 256.903 176.108C248.58 176.108 241.832 179.775 241.832 184.298C241.832 188.821 248.58 192.488 256.903 192.488Z" fill="#E0E0E0"/>
<path d="M40.8511 201.717C54.0894 201.717 64.8211 195.886 64.8211 188.692C64.8211 181.498 54.0894 175.667 40.8511 175.667C27.6128 175.667 16.8811 181.498 16.8811 188.692C16.8811 195.886 27.6128 201.717 40.8511 201.717Z" fill="#E0E0E0"/>
<path d="M133.306 9.66842L137.948 12.3684V8.66242C137.948 6.52042 139.698 5.78342 141.84 7.01642L141.998 7.11642C142.983 7.70645 143.831 8.50018 144.484 9.44442C144.601 5.84442 147.639 4.62242 151.372 6.75842L151.654 6.92342C155.435 9.10642 158.542 13.9904 158.542 17.7654V24.2124L162.826 26.6924C163.745 27.2423 164.523 27.9996 165.097 28.9037C165.671 29.8079 166.025 30.8338 166.132 31.8994C166.132 33.7174 164.644 34.3374 162.826 33.2774L157.126 29.9854L145.947 23.5314L133.306 16.2664C132.387 15.7165 131.609 14.9592 131.035 14.0551C130.461 13.151 130.107 12.1251 130 11.0594C129.996 9.24142 131.484 8.62142 133.306 9.66842Z" fill="#E0E0E0"/>
<path d="M166.144 2.75638L169.344 4.60238V2.03638C169.344 0.562383 170.556 0.0523817 172.03 0.906382L172.14 0.968382C172.819 1.37816 173.404 1.92762 173.855 2.58038C173.938 0.0933814 176.032 -0.746619 178.587 0.727381L178.78 0.837381C181.391 2.34538 183.526 5.70738 183.526 8.31738V12.7564L186.481 14.4644C187.114 14.8456 187.65 15.3697 188.045 15.9948C188.439 16.6199 188.682 17.3286 188.754 18.0644C188.754 19.3184 187.735 19.7454 186.481 19.0214L182.541 16.7554L174.827 12.3674L166.144 7.35638C165.511 6.97712 164.976 6.45497 164.581 5.83174C164.187 5.20851 163.943 4.50152 163.871 3.76738C163.871 2.47038 164.89 2.03638 166.144 2.75638Z" fill="#E0E0E0"/>
<path d="M260.127 64.896C255.994 62.506 252.206 62.416 249.499 64.207L244.23 67.293C240.979 68.822 238.961 72.714 239.057 78.382V80.689C239.215 90.201 252.778 116.506 254.457 119.75L254.157 120.074L254.522 119.867L254.632 120.074C254.632 120.074 254.956 119.798 255.507 119.296L260.129 116.63C260.129 116.63 275.048 104.335 275.048 94.23V91.923C275.046 81.757 268.364 69.655 260.127 64.896ZM253.927 76.957C256.12 78.3395 257.957 80.2183 259.29 82.4419C260.623 84.6654 261.414 87.1712 261.6 89.757C261.609 90.2967 261.569 90.8362 261.483 91.369C261.005 91.201 260.544 90.9887 260.105 90.735C257.938 89.3169 256.137 87.4076 254.846 85.1623C253.556 82.9171 252.814 80.3991 252.68 77.813H252.639C252.641 77.3513 252.681 76.8905 252.756 76.435C253.154 76.5763 253.543 76.7433 253.92 76.935L253.927 76.957Z" fill="#02AD24"/>
<path opacity="0.2" d="M239.077 80.6549C239.249 90.8009 254.65 120.04 254.65 120.04C254.65 120.04 269.383 107.532 269.19 97.393V95.0859C269.018 84.9399 262.137 72.969 253.816 68.347C245.495 63.725 238.883 68.195 239.055 78.347L239.077 80.6549ZM246.55 81.3919C246.474 76.6669 249.787 74.6489 253.941 76.9559C256.134 78.3384 257.971 80.2173 259.304 82.4408C260.637 84.6643 261.428 87.1702 261.614 89.7559C261.697 94.4809 258.384 96.499 254.223 94.192C252.026 92.8118 250.185 90.934 248.848 88.7103C247.512 86.4867 246.717 83.9796 246.529 81.3919H246.55Z" fill="black"/>
<path d="M227.862 236.299C228.038 236.605 228.131 236.953 228.132 237.307C228.209 238.374 228.209 239.446 228.132 240.514C228.034 241.007 226.986 241.723 225.652 241.574C225.041 241.456 224.465 241.2 223.968 240.826C223.472 240.451 223.068 239.967 222.788 239.411C222.151 238.398 219.271 234.978 218.749 234.147C218.228 233.316 217.419 231.111 218.428 230.206C219.281 229.444 222.478 231.186 223.335 232.148C224.191 233.11 227.862 236.299 227.862 236.299Z" fill="#263238"/>
<path d="M214.258 246.403C214.562 246.891 214.774 247.431 214.883 247.996C215.18 249.239 215.304 250.517 215.25 251.794C214.962 252.147 214.603 252.437 214.197 252.644C213.79 252.851 213.345 252.971 212.89 252.996C212.219 253.03 211.412 253.059 210.759 253.079C210.276 253.09 209.802 253.212 209.373 253.434C208.201 254.039 206.999 254.582 205.77 255.061C203.767 255.84 201.607 256.133 199.469 255.914C198.102 255.628 196.853 254.937 195.883 253.933C195.752 253.721 195.688 253.475 195.7 253.227C195.711 252.978 195.797 252.739 195.946 252.54C197.602 251.16 200.354 250.478 202.052 249.774C204.359 248.773 206.576 247.576 208.679 246.198C209.097 245.876 214.258 246.403 214.258 246.403Z" fill="#263238"/>
<path d="M214.258 243.258V246.402C213.912 246.813 213.478 247.142 212.99 247.366C212.501 247.59 211.968 247.703 211.431 247.697C210.876 247.755 210.316 247.644 209.826 247.378C209.335 247.112 208.936 246.704 208.682 246.207C208.764 245.227 208.789 244.242 208.756 243.258H214.258Z" fill="#FFA8A7"/>
<path d="M227.863 234.402V236.299C227.863 236.299 227.583 237.297 225.681 237.358C224.843 237.405 224.017 237.149 223.352 236.636L222.957 233.847L227.863 234.402Z" fill="#FFA8A7"/>
<path d="M202.601 176.285C202.601 176.285 203.272 206.3 204.142 211.795C204.744 215.559 208.725 244.068 208.725 244.068C209.594 244.524 210.562 244.758 211.543 244.75C212.524 244.742 213.488 244.492 214.35 244.022C214.35 244.022 214.35 243.02 214.487 241.387C214.624 239.755 215.868 225.829 215.741 220.597C215.695 217.559 215.097 214.554 213.977 211.73L215.741 185.85L216.56 185.953C216.56 185.953 216.52 188.714 216.864 193.618C216.864 193.618 217.517 203.499 217.746 205.441C218.181 209.061 220.61 222.24 221.322 225.733C221.963 228.866 223.006 234.651 223.006 234.651C224.536 236.175 227.87 234.972 227.87 234.972C227.87 234.972 228.036 231.043 228.207 228.643C228.379 226.243 229.112 215.468 228.82 212.638C228.414 208.697 226.804 204.904 226.947 203.906C227.784 198.104 227.862 173.403 227.862 173.403L202.601 176.285Z" fill="#02AD24"/>
<path opacity="0.4" d="M202.601 176.285C202.601 176.285 203.272 206.3 204.142 211.795C204.744 215.559 208.725 244.068 208.725 244.068C209.594 244.524 210.562 244.758 211.543 244.75C212.524 244.742 213.488 244.492 214.35 244.022C214.35 244.022 214.35 243.02 214.487 241.387C214.624 239.755 215.868 225.829 215.741 220.597C215.695 217.559 215.097 214.554 213.977 211.73L215.741 185.85L216.56 185.953C216.56 185.953 216.52 188.714 216.864 193.618C216.864 193.618 217.517 203.499 217.746 205.441C218.181 209.061 220.61 222.24 221.322 225.733C221.963 228.866 223.006 234.651 223.006 234.651C224.536 236.175 227.87 234.972 227.87 234.972C227.87 234.972 228.036 231.043 228.207 228.643C228.379 226.243 229.112 215.468 228.82 212.638C228.414 208.697 226.804 204.904 226.947 203.906C227.784 198.104 227.862 173.403 227.862 173.403L202.601 176.285Z" fill="black"/>
<path opacity="0.4" d="M215.742 185.822L216.561 185.931C216.561 185.931 216.515 188.864 216.882 194.077C216.882 194.077 217.043 196.563 217.237 199.347L218.578 186.075C221.07 184.614 223.243 182.666 224.965 180.347C219.523 184.516 215.742 185.805 215.742 185.805V185.822Z" fill="black"/>
<path d="M229.335 140.66C228.549 139.583 227.443 138.781 226.175 138.369L227.183 168.918C227.183 168.918 234.629 165.595 234.859 163.625C235.081 161.86 230.716 142.594 229.335 140.66Z" fill="#37474F"/>
<path d="M204.4 124.095C204.366 122.83 204.366 121.231 204.4 120.624C204.392 119.516 204.677 118.426 205.225 117.464C207.992 113.85 218.13 114.663 218.852 116.696C219.574 118.73 220.983 129.831 217.854 131.813C218.175 133.531 219.074 137.781 219.074 137.781C216.548 140.073 211.257 139.345 211.257 139.345C211.412 138.571 210.684 135.473 210.317 133.898C208.155 134.155 206.267 134.127 205.654 133.668C205.607 133.634 205.564 133.593 205.528 133.548C205.058 132.877 204.726 130.328 204.542 127.246C203.969 127.321 203.082 127.395 202.967 127.171C202.853 126.948 203.868 125.035 204.4 124.095Z" fill="#FFA8A7"/>
<path d="M210.197 124.301C210.152 124.044 210.161 123.779 210.225 123.525C210.289 123.272 210.406 123.034 210.569 122.829C210.731 122.623 210.935 122.454 211.167 122.333C211.399 122.212 211.654 122.141 211.915 122.125C213.92 121.936 215.146 124.485 214.166 126.346C213.186 128.208 211.915 128.328 211.915 128.328C211.786 129.558 211.786 130.799 211.915 132.029C211.967 132.37 212.143 132.681 212.409 132.901C212.675 133.12 213.014 133.234 213.359 133.221C215.387 133.215 217.395 132.814 219.27 132.041C222.048 130.683 223.944 127.871 224.998 123.872C226.052 119.874 226.218 116.117 223.28 115.979C223.28 115.979 223.252 114.862 224.901 114.42C224.901 114.42 223.062 113.578 222.271 115.113C222.181 114.238 221.835 113.409 221.276 112.73C220.718 112.051 219.972 111.551 219.132 111.292C216.199 110.416 212.562 111.722 209.394 112.438C206.227 113.154 202.063 112.776 201.702 113.229C201.341 113.682 199.789 122.543 208.575 122.128C208.548 122.111 208.954 124.267 210.197 124.301Z" fill="#263238"/>
<path d="M205.654 133.666C206.267 134.125 208.149 134.153 210.317 133.896C210.78 133.604 211.172 133.213 211.463 132.75C211.302 132.807 207.848 134.303 205.654 133.666Z" fill="#F28F8F"/>
<path d="M202.533 155.365V176.393C202.533 176.393 210.037 179.349 217.152 178.301C221.209 177.796 225.011 176.047 228.035 173.294C228.035 173.294 228.35 145.559 227.841 142.192C227.724 140.944 227.228 139.762 226.419 138.806C225.609 137.849 224.527 137.164 223.316 136.842C221.858 136.671 220.382 136.786 218.968 137.179C216.649 138.442 214.026 139.037 211.389 138.897C209.394 139.563 207.202 140.616 205.375 141.303C200.164 143.336 202.533 155.365 202.533 155.365Z" fill="#02AD24"/>
<path opacity="0.4" d="M202.533 155.365V176.393C202.533 176.393 210.037 179.349 217.152 178.301C221.209 177.796 225.011 176.047 228.035 173.294C228.035 173.294 228.35 145.559 227.841 142.192C227.724 140.944 227.228 139.762 226.419 138.806C225.609 137.849 224.527 137.164 223.316 136.842C221.858 136.671 220.382 136.786 218.968 137.179C216.649 138.442 214.026 139.037 211.389 138.897C209.394 139.563 207.202 140.616 205.375 141.303C200.164 143.336 202.533 155.365 202.533 155.365Z" fill="white"/>
<path d="M188.709 153.951L183.915 139.544L191.545 135.303L192.152 135.446L196.334 149.709L188.709 153.951Z" fill="#37474F"/>
<path d="M189.312 154.094L184.518 139.687L192.148 135.446L196.942 149.852L189.312 154.094Z" fill="#455A64"/>
<path d="M189.476 152.622L185.523 140.729L192.093 137.035L196.046 148.927L189.476 152.622Z" fill="white"/>
<path d="M185.257 143.101C185.257 143.101 185.624 142.815 185.795 143.841C185.966 144.866 186.941 148.486 188.659 149.649C188.659 149.649 189.043 149.809 189.054 149.466C189.065 148.666 189.195 147.873 189.439 147.111C189.782 146.218 190.686 145.614 191.111 145.765C191.536 145.916 191.071 147.552 191.111 148.177C191.151 148.801 191.993 150.245 192.033 150.914C192.073 151.584 191.964 152.06 192.033 152.375C192.65 153.203 193.317 153.993 194.029 154.741L190.3 159.461C190.3 159.461 187.877 156.242 187.253 155.606C186.361 154.763 185.668 153.731 185.225 152.587C184.789 150.991 184.471 149.366 184.275 147.723C184.277 146.745 184.266 143.411 185.257 143.101Z" fill="#FFA8A7"/>
<path d="M206.864 140.69L209.304 140.352C209.304 140.352 211.234 140.461 210.776 146.247C210.317 152.032 204.561 167.681 203.125 169.583C201.194 172.138 198.983 170.585 198.542 169.999C195.627 166.641 192.9 163.124 190.374 159.464C190.374 159.464 191.056 155.186 194.343 154.698L198.158 158.639C198.158 158.639 199.338 154.223 200.576 149.474C201.708 145.209 202.854 141.595 206.864 140.69Z" fill="#37474F"/>
<g clip-path="url(#clip1_246_3276)">
<path d="M92.7954 180.21L100.024 184.388L97.3291 181.143C96.7938 180.492 96.0519 180.044 95.2272 179.874C94.4026 179.705 93.5447 179.823 92.7967 180.21H92.7954Z" fill="#263238"/>
<path d="M168.624 136.54L175.715 140.595L173.117 137.464C172.582 136.824 171.847 136.384 171.031 136.216C170.215 136.048 169.367 136.163 168.624 136.54Z" fill="#263238"/>
<path d="M10.6292 141.039L12.8871 142.353C13.0615 142.453 13.259 142.505 13.4599 142.504C13.6607 142.504 13.8579 142.45 14.0316 142.349C14.2053 142.248 14.3495 142.103 14.4498 141.929C14.5501 141.754 14.603 141.557 14.6031 141.356V135.913C14.6046 135.598 14.5229 135.288 14.3661 135.014C14.2094 134.741 13.9833 134.514 13.7107 134.356L11.4438 133.041C11.2694 132.942 11.0719 132.89 10.871 132.89C10.6702 132.891 10.4731 132.945 10.2994 133.046C10.1256 133.147 9.98142 133.291 9.88112 133.466C9.78082 133.64 9.72794 133.838 9.72778 134.039V139.474C9.72846 139.791 9.81259 140.103 9.97172 140.378C10.1308 140.653 10.3594 140.881 10.6343 141.039H10.6292Z" fill="#02AD24"/>
<path opacity="0.6" d="M10.6292 141.039L12.8871 142.353C13.0615 142.453 13.259 142.505 13.4599 142.504C13.6607 142.504 13.8579 142.45 14.0316 142.349C14.2053 142.248 14.3495 142.103 14.4498 141.929C14.5501 141.754 14.603 141.557 14.6031 141.356V135.913C14.6046 135.598 14.5229 135.288 14.3661 135.014C14.2094 134.741 13.9833 134.514 13.7107 134.356L11.4438 133.041C11.2694 132.942 11.0719 132.89 10.871 132.89C10.6702 132.891 10.4731 132.945 10.2994 133.046C10.1256 133.147 9.98142 133.291 9.88112 133.466C9.78082 133.64 9.72794 133.838 9.72778 134.039V139.474C9.72846 139.791 9.81259 140.103 9.97172 140.378C10.1308 140.653 10.3594 140.881 10.6343 141.039H10.6292Z" fill="white"/>
<path d="M159.754 153.566C159.905 150.756 160.717 148.021 162.123 145.585C163.53 143.149 165.492 141.082 167.849 139.55C170.016 138.301 171.985 138.145 173.442 138.894L164.837 133.911C163.365 133.044 161.316 133.165 159.066 134.463C156.712 135.998 154.753 138.066 153.346 140.502C151.94 142.937 151.126 145.67 150.971 148.479C150.971 151.026 151.877 152.823 153.318 153.679L153.383 153.719L161.798 158.586C161.088 157.968 160.533 157.192 160.178 156.32C159.823 155.448 159.678 154.505 159.754 153.566Z" fill="#37474F"/>
<path d="M173.74 139.08L173.416 138.894C171.959 138.14 169.992 138.301 167.823 139.55C165.47 141.085 163.511 143.154 162.105 145.589C160.699 148.024 159.885 150.756 159.728 153.565C159.657 154.499 159.804 155.438 160.158 156.305C160.512 157.173 161.064 157.945 161.768 158.561C163.257 159.64 165.435 159.608 167.855 158.205C170.209 156.673 172.169 154.606 173.575 152.172C174.982 149.738 175.795 147.006 175.95 144.198C176.044 143.227 175.891 142.248 175.504 141.353C175.118 140.458 174.511 139.676 173.74 139.08ZM165.484 154.053C165.212 154.214 164.924 154.347 164.626 154.45C164.562 154.156 164.533 153.856 164.536 153.556C164.693 151.596 165.282 149.696 166.262 147.993C167.242 146.29 168.588 144.826 170.202 143.709C170.476 143.549 170.766 143.421 171.068 143.326C171.124 143.62 171.151 143.92 171.149 144.22C171.005 146.18 170.42 148.083 169.439 149.785C168.458 151.488 167.106 152.946 165.484 154.052V154.053Z" fill="#455A64"/>
<path d="M171.084 143.314C170.783 143.409 170.492 143.538 170.219 143.697C168.601 144.811 167.253 146.274 166.273 147.978C165.292 149.682 164.705 151.584 164.553 153.544C164.549 153.845 164.579 154.145 164.642 154.439C164.941 154.336 165.228 154.203 165.5 154.041C167.119 152.929 168.469 151.467 169.45 149.763C170.43 148.059 171.017 146.156 171.166 144.194C171.168 143.894 171.141 143.595 171.086 143.3L171.084 143.314Z" fill="#455A64"/>
<path opacity="0.25" d="M171.084 143.314C170.801 143.395 170.529 143.513 170.275 143.663C170.119 145.622 169.53 147.523 168.55 149.226C167.57 150.929 166.224 152.392 164.609 153.509C164.578 153.528 164.546 153.544 164.512 153.557C164.513 153.854 164.543 154.15 164.601 154.441C164.9 154.338 165.188 154.205 165.459 154.044C167.079 152.932 168.428 151.47 169.409 149.765C170.389 148.061 170.976 146.158 171.125 144.197C171.14 143.902 171.126 143.606 171.084 143.314Z" fill="white"/>
<path opacity="0.4" d="M170.316 143.67L170.219 143.711C168.601 144.826 167.253 146.288 166.273 147.992C165.292 149.696 164.705 151.598 164.553 153.558C164.587 153.546 164.619 153.529 164.65 153.51C166.267 152.397 167.615 150.936 168.596 149.234C169.576 147.531 170.164 145.63 170.316 143.67Z" fill="white"/>
<path d="M83.9651 197.218C84.1159 194.408 84.9278 191.673 86.3346 189.237C87.7414 186.801 89.7032 184.733 92.0598 183.202C92.8614 182.63 93.7939 182.269 94.7714 182.152C95.7488 182.036 96.7398 182.168 97.6529 182.537L89.0483 177.554C87.5745 176.694 85.527 176.808 83.269 178.114C80.9161 179.649 78.957 181.718 77.5507 184.153C76.1444 186.588 75.3303 189.32 75.1744 192.129C75.1744 194.677 76.0669 196.473 77.5216 197.32H77.5866L86.0012 202.186C85.2914 201.58 84.7363 200.814 84.3821 199.949C84.028 199.085 83.885 198.149 83.9651 197.218Z" fill="#37474F"/>
<path d="M97.9525 182.723L97.6286 182.537C96.7155 182.168 95.7245 182.036 94.7471 182.153C93.7696 182.269 92.8371 182.63 92.0355 183.202C89.6825 184.737 87.7235 186.806 86.3171 189.241C84.9108 191.676 84.0967 194.409 83.9409 197.218C83.8701 198.152 84.0175 199.09 84.3716 199.958C84.7257 200.825 85.2767 201.598 85.9808 202.214C87.4699 203.293 89.6475 203.253 92.0673 201.858C94.4217 200.324 96.3818 198.256 97.7883 195.821C99.1948 193.385 100.008 190.652 100.162 187.842C100.252 186.872 100.097 185.894 99.7107 184.999C99.3246 184.105 98.7199 183.322 97.9525 182.723ZM89.696 197.703C89.4258 197.864 89.1378 197.993 88.8379 198.087C88.7741 197.793 88.7442 197.493 88.7487 197.192C88.9025 195.232 89.4909 193.331 90.4711 191.628C91.4513 189.925 92.7985 188.462 94.4145 187.347C94.6895 187.186 94.9794 187.053 95.2802 186.949C95.3351 187.244 95.3621 187.544 95.3605 187.843C95.2164 189.808 94.6323 191.714 93.6516 193.421C92.6709 195.129 91.3189 196.592 89.696 197.703Z" fill="#455A64"/>
<path d="M95.2969 186.958C94.9962 187.062 94.7062 187.195 94.4312 187.355C92.8121 188.468 91.4625 189.929 90.482 191.633C89.5014 193.337 88.9148 195.24 88.7653 197.201C88.7608 197.502 88.7908 197.802 88.8546 198.096C89.1545 198.002 89.4424 197.873 89.7126 197.712C91.3312 196.599 92.6803 195.137 93.6608 193.433C94.6413 191.729 95.2282 189.826 95.3785 187.865C95.3801 187.565 95.3532 187.266 95.2981 186.971L95.2969 186.958Z" fill="#455A64"/>
<path opacity="0.25" d="M95.2968 186.958C95.0162 187.048 94.745 187.164 94.4872 187.307C94.3324 189.267 93.7435 191.168 92.7634 192.871C91.7833 194.574 90.4367 196.037 88.8214 197.153L88.7245 197.201C88.7204 197.496 88.7503 197.79 88.8137 198.078C89.1136 197.984 89.4016 197.855 89.6718 197.694C91.2905 196.582 92.6397 195.12 93.6203 193.416C94.6008 191.712 95.1876 189.81 95.3376 187.849C95.3519 187.551 95.3383 187.253 95.2968 186.958Z" fill="white"/>
<path opacity="0.4" d="M94.5203 187.322L94.4311 187.371C92.812 188.483 91.4624 189.945 90.4819 191.649C89.5013 193.353 88.9147 195.255 88.7653 197.217L88.8621 197.168C90.4784 196.054 91.8254 194.591 92.8044 192.887C93.7834 191.184 94.3697 189.282 94.5203 187.322Z" fill="white"/>
<path d="M180.564 115.225V89.8149L70.7631 153.339L68.3292 174.516L61.0442 184.388V206.985L80.5597 195.686L84.178 187.332C85.0019 185.424 86.422 183.836 88.2247 182.806L92.687 180.275L92.8145 180.21C93.5617 179.822 94.419 179.703 95.2436 179.871C96.0683 180.039 96.8105 180.485 97.3469 181.135L100.042 184.38L156.442 151.762L159.939 143.651C160.758 141.74 162.179 140.15 163.986 139.125L168.448 136.586L168.617 136.505C169.362 136.129 170.212 136.017 171.028 136.188C171.844 136.359 172.578 136.802 173.11 137.445L175.709 140.576L182.994 136.36V116.752L180.564 115.225Z" fill="#02AD24"/>
<path opacity="0.5" d="M180.564 115.225V89.8149L70.7631 153.339L68.3292 174.516L61.0442 184.388V206.985L80.5597 195.686L84.178 187.332C85.0019 185.424 86.422 183.836 88.2247 182.806L92.687 180.275L92.8145 180.21C93.5617 179.822 94.419 179.703 95.2436 179.871C96.0683 180.039 96.8105 180.485 97.3469 181.135L100.042 184.38L156.442 151.762L159.939 143.651C160.758 141.74 162.179 140.15 163.986 139.125L168.448 136.586L168.617 136.505C169.362 136.129 170.212 136.017 171.028 136.188C171.844 136.359 172.578 136.802 173.11 137.445L175.709 140.576L182.994 136.36V116.752L180.564 115.225Z" fill="white"/>
<path d="M181.867 117.383L179.423 115.857L179.342 90.5188L71.9768 152.633L69.4193 174.947L62.1343 184.768V192.206L181.867 122.94V117.383Z" fill="#02AD24"/>
<path opacity="0.1" d="M181.867 117.383L179.423 115.857L179.342 90.5188L71.9768 152.633L69.4193 174.947L62.1343 184.768V192.206L181.867 122.94V117.383Z" fill="black"/>
<path d="M62.1343 192.205V205.003L79.6265 194.889L83.0905 186.875C84.0214 184.742 85.614 182.967 87.6318 181.814L92.1081 179.275L92.2458 179.202C92.9297 178.851 93.6869 178.668 94.4553 178.667C95.1652 178.666 95.8665 178.823 96.5089 179.125C97.1512 179.428 97.7187 179.87 98.1705 180.419L100.266 182.942L155.52 150.98L158.87 143.235C159.799 141.098 161.396 139.322 163.419 138.173L167.882 135.635L168.06 135.538H168.101C168.774 135.201 169.516 135.027 170.268 135.027C170.978 135.024 171.679 135.179 172.321 135.481C172.964 135.782 173.531 136.223 173.984 136.771L175.966 139.198L181.859 135.791V122.939L62.1343 192.205Z" fill="#02AD24"/>
<path opacity="0.3" d="M62.1343 192.205V205.003L79.6265 194.889L83.0905 186.875C84.0214 184.742 85.614 182.967 87.6318 181.814L92.1081 179.275L92.2458 179.202C92.9297 178.851 93.6869 178.668 94.4553 178.667C95.1652 178.666 95.8665 178.823 96.5089 179.125C97.1512 179.428 97.7187 179.87 98.1705 180.419L100.266 182.942L155.52 150.98L158.87 143.235C159.799 141.098 161.396 139.322 163.419 138.173L167.882 135.635L168.06 135.538H168.101C168.774 135.201 169.516 135.027 170.268 135.027C170.978 135.024 171.679 135.179 172.321 135.481C172.964 135.782 173.531 136.223 173.984 136.771L175.966 139.198L181.859 135.791V122.939L62.1343 192.205Z" fill="black"/>
<path d="M48.8837 185.854L60.8962 192.805H61.0021V184.374L4.87402 151.886V160.378L17.7114 167.808C18.2759 168.133 18.7603 168.581 19.1288 169.119C19.4973 169.657 19.7405 170.27 19.8406 170.915L21.9608 184.379L43.8809 197.065L45.7933 187.258C45.8579 186.932 45.9991 186.626 46.2053 186.366C46.4115 186.105 46.6768 185.898 46.979 185.76C47.2812 185.623 47.6117 185.56 47.9432 185.576C48.2747 185.592 48.5975 185.687 48.885 185.853L48.8837 185.854Z" fill="#02AD24"/>
<path opacity="0.3" d="M48.8837 185.854L60.8962 192.805H61.0021V184.374L4.87402 151.886V160.378L17.7114 167.808C18.2759 168.133 18.7603 168.581 19.1288 169.119C19.4973 169.657 19.7405 170.27 19.8406 170.915L21.9608 184.379L43.8809 197.065L45.7933 187.258C45.8579 186.932 45.9991 186.626 46.2053 186.366C46.4115 186.105 46.6768 185.898 46.979 185.76C47.2812 185.623 47.6117 185.56 47.9432 185.576C48.2747 185.592 48.5975 185.687 48.885 185.853L48.8837 185.854Z" fill="white"/>
<path d="M17.7114 167.825L4.87402 160.395V174.515L21.9582 184.394L19.838 170.93C19.7381 170.286 19.4952 169.673 19.1271 169.135C18.759 168.598 18.2752 168.15 17.7114 167.825Z" fill="#02AD24"/>
<path d="M61.0009 192.822H60.8951L48.8787 185.871C48.5903 185.705 48.2664 185.61 47.9341 185.595C47.6017 185.579 47.2705 185.644 46.968 185.783C46.6656 185.922 46.4006 186.131 46.1951 186.393C45.9897 186.655 45.8498 186.963 45.787 187.29L43.881 197.094L61.0009 206.997V192.822Z" fill="#02AD24"/>
<path opacity="0.2" d="M17.7114 167.825L4.87402 160.395V174.515L21.9582 184.394L19.838 170.93C19.7381 170.286 19.4952 169.673 19.1271 169.135C18.759 168.598 18.2752 168.15 17.7114 167.825Z" fill="black"/>
<path opacity="0.2" d="M61.0009 192.822H60.8951L48.8787 185.871C48.5903 185.705 48.2664 185.61 47.9341 185.595C47.6017 185.579 47.2705 185.644 46.968 185.783C46.6656 185.922 46.4006 186.131 46.1951 186.393C45.9897 186.655 45.8498 186.963 45.787 187.29L43.881 197.094L61.0009 206.997V192.822Z" fill="black"/>
<path d="M70.7555 153.337L14.6364 120.87L12.5889 138.628L68.7156 171.095L70.7555 153.337Z" fill="#37474F"/>
<path d="M12.5888 138.633L12.2063 142.048L68.3254 174.515L68.7219 171.1L12.5888 138.633Z" fill="#455A64"/>
<path d="M4.87402 151.903L12.1998 142.048L68.3189 174.515L61.0021 184.387L4.87402 151.903Z" fill="#02AD24"/>
<path opacity="0.25" d="M62.2477 174.394L14.3864 146.703C14.0026 146.48 13.5502 146.406 13.1156 146.496C12.681 146.586 12.2947 146.833 12.0303 147.19L10.4111 149.38C10.2583 149.585 10.1507 149.82 10.0954 150.07C10.0402 150.32 10.0385 150.579 10.0906 150.83C10.1427 151.081 10.2472 151.318 10.3974 151.525C10.5476 151.732 10.74 151.905 10.9619 152.032L58.8155 179.73C59.1993 179.953 59.6517 180.027 60.0863 179.937C60.5209 179.847 60.9072 179.6 61.1716 179.243L62.7908 177.037C62.9441 176.833 63.0523 176.599 63.1082 176.349C63.1642 176.1 63.1667 175.842 63.1154 175.592C63.0642 175.342 62.9604 175.106 62.811 174.899C62.6616 174.692 62.47 174.519 62.249 174.392L62.2477 174.394Z" fill="white"/>
<path d="M182.996 71.4671L126.881 39L4.8689 109.581L60.9956 142.048L182.996 71.4671Z" fill="#02AD24"/>
<path opacity="0.4" d="M182.996 71.4671L126.881 39L4.8689 109.581L60.9956 142.048L182.996 71.4671Z" fill="white"/>
<path d="M4.88111 109.57L0 118.042L56.1219 150.51L61.003 142.038L4.88111 109.57Z" fill="#02AD24"/>
<path opacity="0.5" d="M4.88111 109.57L0 118.042L56.1219 150.51L61.003 142.038L4.88111 109.57Z" fill="white"/>
<path d="M0.0012207 118.048V129.315L56.1203 161.782V150.515L0.0012207 118.048Z" fill="#02AD24"/>
<path opacity="0.25" d="M0.0012207 118.048V129.315L56.1203 161.782V150.515L0.0012207 118.048Z" fill="white"/>
<path d="M56.1204 161.781L183 88.4019V71.467L61.0008 142.048L56.1204 150.515V161.781Z" fill="#02AD24"/>
<path opacity="0.1" d="M56.1204 161.781L183 88.4019V71.467L61.0008 142.048L56.1204 150.515V161.781Z" fill="white"/>
<path opacity="0.3" d="M72.6819 158.132L71.0627 172.732C71.021 173.033 71.0649 173.341 71.1894 173.619C71.3139 173.897 71.514 174.134 71.7668 174.303C72.0195 174.472 72.3147 174.567 72.6186 174.576C72.9225 174.585 73.2227 174.508 73.4851 174.354L91.6734 163.809C92.6664 163.235 93.4895 162.407 94.0585 161.409C94.6275 160.412 94.9219 159.281 94.9117 158.132V146.242C94.9111 145.828 94.8021 145.422 94.5955 145.064C94.3889 144.706 94.0921 144.409 93.7347 144.202C93.3774 143.995 92.972 143.885 92.5592 143.885C92.1464 143.884 91.7407 143.992 91.3827 144.198L75.8985 153.152C75.0093 153.67 74.2547 154.391 73.6957 155.257C73.1368 156.122 72.7895 157.107 72.6819 158.132Z" fill="black"/>
<path d="M72.7137 173.226C72.6657 173.226 72.6182 173.216 72.5744 173.196C72.5305 173.176 72.4911 173.148 72.4587 173.112C72.4306 173.079 72.4096 173.04 72.3971 172.999C72.3846 172.957 72.3809 172.913 72.3861 172.87L74.0052 158.27C74.095 157.455 74.3748 156.673 74.8219 155.987C75.2691 155.301 75.8711 154.73 76.5793 154.32L92.112 145.333C92.2711 145.238 92.4527 145.187 92.638 145.185C92.8232 145.184 93.0055 145.232 93.1662 145.324C93.3269 145.417 93.4601 145.55 93.5522 145.711C93.6443 145.872 93.692 146.055 93.6903 146.241V158.14C93.6892 159.056 93.4487 159.956 92.9928 160.75C92.537 161.544 91.8817 162.204 91.092 162.666L72.9037 173.211C72.8547 173.239 72.7985 173.254 72.7418 173.252L72.7137 173.226Z" fill="#37474F"/>
<path opacity="0.3" d="M104.784 141.951V153.055C104.784 153.285 104.844 153.51 104.959 153.709C105.074 153.907 105.239 154.072 105.437 154.187C105.636 154.301 105.861 154.361 106.09 154.36C106.319 154.36 106.544 154.299 106.742 154.183L122.934 144.839C123.443 144.544 123.866 144.119 124.16 143.608C124.454 143.097 124.609 142.518 124.609 141.928V130.813C124.609 130.584 124.548 130.359 124.433 130.16C124.318 129.962 124.153 129.797 123.955 129.683C123.756 129.569 123.531 129.509 123.302 129.51C123.073 129.51 122.849 129.571 122.651 129.687L106.459 139.03C105.948 139.326 105.523 139.752 105.229 140.265C104.935 140.778 104.781 141.359 104.784 141.951Z" fill="black"/>
<path d="M106.089 153.346C106.05 153.348 106.011 153.341 105.975 153.327C105.938 153.313 105.905 153.291 105.877 153.264C105.849 153.237 105.827 153.204 105.812 153.168C105.797 153.132 105.789 153.093 105.79 153.054V141.95C105.791 141.536 105.9 141.13 106.106 140.771C106.312 140.413 106.607 140.114 106.964 139.906L123.156 130.562C123.203 130.548 123.253 130.548 123.301 130.562C123.378 130.562 123.453 130.593 123.507 130.647C123.562 130.702 123.593 130.777 123.593 130.854V141.969C123.593 142.382 123.484 142.787 123.278 143.145C123.072 143.502 122.775 143.799 122.419 144.005L106.27 153.349C106.227 153.377 106.176 153.391 106.125 153.39L106.089 153.346Z" fill="#37474F"/>
<path opacity="0.3" d="M130.637 124.026V138.349C130.637 138.646 130.715 138.936 130.863 139.193C131.011 139.449 131.224 139.662 131.479 139.81C131.735 139.958 132.026 140.035 132.321 140.035C132.616 140.035 132.907 139.958 133.163 139.81L171.077 117.91C171.736 117.529 172.283 116.98 172.664 116.32C173.044 115.659 173.245 114.909 173.244 114.147V99.7988C173.247 99.5022 173.172 99.2101 173.025 98.9522C172.879 98.6943 172.667 98.4799 172.411 98.3307C172.156 98.1815 171.865 98.103 171.569 98.103C171.273 98.1031 170.982 98.1817 170.726 98.3309L132.806 120.23C132.14 120.613 131.588 121.166 131.207 121.833C130.826 122.5 130.629 123.257 130.637 124.026Z" fill="black"/>
<path d="M132.32 138.739C132.218 138.739 132.121 138.699 132.049 138.627C131.978 138.555 131.937 138.458 131.937 138.356V124.026C131.94 123.494 132.08 122.971 132.346 122.511C132.611 122.05 132.992 121.666 133.451 121.398L171.374 99.4986C171.429 99.4616 171.494 99.4421 171.56 99.4424C171.661 99.4424 171.759 99.4828 171.83 99.5546C171.902 99.6265 171.943 99.724 171.943 99.8256V114.147C171.942 114.681 171.8 115.206 171.533 115.669C171.266 116.131 170.882 116.515 170.42 116.782L132.506 138.688C132.451 138.724 132.386 138.742 132.32 138.739Z" fill="#37474F"/>
<path d="M10.313 166.364L9.57603 165.943C9.34722 165.811 9.08774 165.741 8.82361 165.741C8.55948 165.741 8.30001 165.811 8.07124 165.943C7.84247 166.075 7.65245 166.266 7.52026 166.495C7.38807 166.724 7.31835 166.984 7.31812 167.248V170.923C7.32141 171.581 7.49647 172.226 7.82592 172.796C8.15538 173.365 8.62774 173.838 9.19609 174.168L9.93301 174.589C10.1624 174.721 10.4224 174.791 10.6869 174.791C10.9515 174.79 11.2114 174.721 11.4407 174.589C11.6701 174.457 11.8609 174.267 11.9941 174.038C12.1273 173.809 12.1982 173.549 12.1999 173.284V169.609C12.1949 168.951 12.0183 168.305 11.6876 167.736C11.3568 167.167 10.8834 166.694 10.3142 166.364H10.313Z" fill="white"/>
<path d="M56.6775 193.187L55.9406 192.766C55.7111 192.634 55.4512 192.564 55.1866 192.564C54.9221 192.565 54.6622 192.634 54.4329 192.766C54.2035 192.898 54.0127 193.088 53.8795 193.317C53.7463 193.546 53.6754 193.806 53.6737 194.071V197.762C53.6787 198.421 53.8553 199.067 54.186 199.636C54.5168 200.205 54.9902 200.678 55.5594 201.007L56.2963 201.429C56.5251 201.561 56.7846 201.63 57.0487 201.63C57.3128 201.63 57.5723 201.561 57.8011 201.428C58.0298 201.296 58.2198 201.106 58.352 200.877C58.4842 200.648 58.5539 200.388 58.5542 200.123V196.449C58.5539 195.788 58.3804 195.139 58.051 194.567C57.7217 193.994 57.248 193.519 56.6775 193.187Z" fill="white"/>
<path d="M17.6325 173.429L16.9045 173C16.6745 172.868 16.4137 172.798 16.1484 172.799C15.8831 172.799 15.6226 172.869 15.393 173.003C15.1634 173.136 14.9727 173.327 14.8402 173.557C14.7076 173.787 14.6378 174.049 14.6377 174.314V175.167C14.6412 175.825 14.8172 176.472 15.1481 177.041C15.479 177.61 15.9532 178.082 16.5233 178.41L17.2513 178.841C17.4813 178.973 17.7419 179.043 18.0071 179.042C18.2723 179.042 18.5327 178.971 18.7623 178.838C18.9919 178.705 19.1825 178.514 19.3152 178.284C19.4478 178.054 19.5179 177.793 19.5182 177.527V176.675C19.5146 176.017 19.3386 175.37 19.0077 174.801C18.6768 174.232 18.2026 173.76 17.6325 173.432V173.429Z" fill="#FFA8A7"/>
<path d="M49.353 191.751L48.625 191.33C48.3959 191.195 48.1353 191.124 47.8698 191.123C47.6042 191.122 47.3431 191.191 47.113 191.324C46.8828 191.457 46.6917 191.648 46.5592 191.879C46.4266 192.109 46.3573 192.371 46.3582 192.637V193.489C46.3615 194.147 46.5365 194.793 46.866 195.362C47.1954 195.931 47.6678 196.404 48.2362 196.734L48.9731 197.163C49.203 197.295 49.4637 197.365 49.7289 197.364C49.9941 197.364 50.2545 197.294 50.4841 197.161C50.7136 197.028 50.9043 196.837 51.0369 196.607C51.1696 196.376 51.2396 196.116 51.2399 195.85V194.998C51.2367 194.338 51.0607 193.692 50.7296 193.122C50.3984 192.552 49.9237 192.08 49.353 191.751Z" fill="#FFA8A7"/>
<path opacity="0.3" d="M23.3377 182.356L42.0679 193.192C42.2502 193.3 42.4575 193.357 42.6689 193.358C42.8803 193.359 43.0882 193.304 43.2715 193.198C43.4548 193.093 43.607 192.941 43.7127 192.757C43.8184 192.574 43.8738 192.366 43.8732 192.154V181.78C43.8735 181.298 43.7472 180.823 43.5072 180.405C43.2671 179.986 42.9216 179.638 42.5052 179.395L23.7636 168.511C23.5803 168.406 23.3728 168.35 23.1617 168.351C22.9506 168.351 22.7432 168.407 22.5605 168.513C22.3777 168.619 22.2259 168.771 22.1202 168.955C22.0146 169.138 21.9587 169.345 21.9583 169.557V179.979C21.9596 180.462 22.0879 180.936 22.33 181.353C22.5722 181.77 22.9197 182.116 23.3377 182.356Z" fill="black"/>
<path d="M23.9841 181.239C23.7638 181.109 23.5808 180.924 23.4532 180.703C23.3256 180.481 23.2577 180.23 23.2561 179.974V169.722L41.8702 180.517C42.0897 180.645 42.2718 180.828 42.3983 181.049C42.5247 181.269 42.591 181.519 42.5906 181.774V191.994L23.9841 181.239Z" fill="#02AD24"/>
<path opacity="0.4" d="M23.9841 181.239C23.7638 181.109 23.5808 180.924 23.4532 180.703C23.3256 180.481 23.2577 180.23 23.2561 179.974V169.722L41.8702 180.517C42.0897 180.645 42.2718 180.828 42.3983 181.049C42.5247 181.269 42.591 181.519 42.5906 181.774V191.994L23.9841 181.239Z" fill="black"/>
<path d="M102.477 132.169L95.1603 127.927L73.1995 140.637L80.5164 144.871L102.477 132.169Z" fill="#02AD24"/>
<path d="M73.1995 140.636V146.168H80.5163V144.87L73.1995 140.636Z" fill="#02AD24"/>
<path d="M80.5164 144.87V146.168L102.476 133.353V132.169L80.5164 144.87Z" fill="#02AD24"/>
<path opacity="0.5" d="M102.477 132.169L95.1603 127.927L73.1995 140.637L80.5164 144.871L102.477 132.169Z" fill="white"/>
<path opacity="0.25" d="M73.1995 140.636V146.168H80.5163V144.87L73.1995 140.636Z" fill="white"/>
<path opacity="0.2" d="M80.5164 144.87V146.168L102.476 133.353V132.169L80.5164 144.87Z" fill="white"/>
<path d="M180.564 87.0478L173.238 82.8141L124.444 111.161L131.761 115.395L180.564 87.0478Z" fill="#02AD24"/>
<path d="M124.444 111.162V116.694H131.761V115.396L124.444 111.162Z" fill="#02AD24"/>
<path d="M131.763 115.396V116.694L180.564 88.241V87.0491L131.763 115.396Z" fill="#02AD24"/>
<path opacity="0.5" d="M180.564 87.0478L173.238 82.8141L124.444 111.161L131.761 115.395L180.564 87.0478Z" fill="white"/>
<path opacity="0.25" d="M124.444 111.162V116.694H131.761V115.396L124.444 111.162Z" fill="white"/>
<path opacity="0.2" d="M131.763 115.396V116.694L180.564 88.241V87.0491L131.763 115.396Z" fill="white"/>
<path d="M169.483 132.932V124.407C169.477 124.079 169.558 123.756 169.719 123.47C169.88 123.185 170.114 122.948 170.397 122.784L175.326 119.929C175.479 119.837 175.654 119.789 175.832 119.789C176.011 119.789 176.185 119.837 176.339 119.929L175.594 119.434C175.443 119.344 175.271 119.297 175.096 119.297C174.921 119.297 174.749 119.344 174.598 119.434L169.669 122.331C169.39 122.49 169.158 122.72 168.996 122.998C168.834 123.275 168.748 123.591 168.746 123.912V132.445C168.746 132.606 168.786 132.764 168.862 132.906C168.938 133.048 169.049 133.168 169.184 133.256L169.855 133.702C169.738 133.612 169.643 133.496 169.579 133.363C169.514 133.23 169.481 133.083 169.483 132.935V132.932Z" fill="#02AD24"/>
<path d="M176.337 119.979C176.184 119.887 176.009 119.839 175.831 119.839C175.653 119.839 175.478 119.887 175.325 119.979L170.396 122.834C170.113 122.998 169.879 123.235 169.718 123.52C169.557 123.805 169.476 124.129 169.482 124.456V132.981C169.48 133.129 169.513 133.276 169.577 133.409C169.642 133.542 169.737 133.658 169.854 133.748C169.896 133.785 169.943 133.817 169.992 133.845C170.137 133.928 170.302 133.972 170.469 133.972C170.637 133.972 170.801 133.928 170.947 133.845L175.876 130.999C176.158 130.834 176.392 130.597 176.553 130.312C176.713 130.027 176.795 129.704 176.79 129.376V120.817C176.79 120.65 176.749 120.487 176.67 120.341C176.59 120.195 176.475 120.071 176.336 119.981L176.337 119.979Z" fill="#02AD24"/>
<path opacity="0.6" d="M169.483 132.932V124.407C169.477 124.079 169.558 123.756 169.719 123.47C169.88 123.185 170.114 122.948 170.397 122.784L175.326 119.929C175.479 119.837 175.654 119.789 175.832 119.789C176.011 119.789 176.185 119.837 176.339 119.929L175.594 119.434C175.443 119.344 175.271 119.297 175.096 119.297C174.921 119.297 174.749 119.344 174.598 119.434L169.669 122.331C169.39 122.49 169.158 122.72 168.996 122.998C168.834 123.275 168.748 123.591 168.746 123.912V132.445C168.746 132.606 168.786 132.764 168.862 132.906C168.938 133.048 169.049 133.168 169.184 133.256L169.855 133.702C169.738 133.612 169.643 133.496 169.579 133.363C169.514 133.23 169.481 133.083 169.483 132.935V132.932Z" fill="white"/>
<path opacity="0.5" d="M176.337 119.979C176.184 119.887 176.009 119.839 175.831 119.839C175.653 119.839 175.478 119.887 175.325 119.979L170.396 122.834C170.113 122.998 169.879 123.235 169.718 123.52C169.557 123.805 169.476 124.129 169.482 124.456V132.981C169.48 133.129 169.513 133.276 169.577 133.409C169.642 133.542 169.737 133.658 169.854 133.748C169.896 133.785 169.943 133.817 169.992 133.845C170.137 133.928 170.302 133.972 170.469 133.972C170.637 133.972 170.801 133.928 170.947 133.845L175.876 130.999C176.158 130.834 176.392 130.597 176.553 130.312C176.713 130.027 176.795 129.704 176.79 129.376V120.817C176.79 120.65 176.749 120.487 176.67 120.341C176.59 120.195 176.475 120.071 176.336 119.981L176.337 119.979Z" fill="white"/>
<g opacity="0.3">
<path opacity="0.3" d="M154.482 144.659C154.512 144.636 154.549 144.621 154.587 144.619C154.625 144.616 154.663 144.625 154.696 144.644C154.729 144.663 154.756 144.692 154.773 144.727C154.789 144.761 154.795 144.8 154.789 144.838C154.785 144.945 154.754 145.05 154.701 145.143C154.647 145.236 154.572 145.315 154.482 145.373L147.439 149.428C147.409 149.452 147.372 149.466 147.333 149.468C147.295 149.471 147.256 149.462 147.223 149.443C147.189 149.424 147.162 149.396 147.144 149.361C147.126 149.327 147.119 149.288 147.123 149.249C147.129 149.141 147.161 149.036 147.216 148.943C147.271 148.85 147.348 148.771 147.439 148.714L154.482 144.659Z" fill="black"/>
<path opacity="0.3" d="M154.491 147.126C154.521 147.102 154.558 147.088 154.596 147.086C154.634 147.083 154.672 147.092 154.705 147.111C154.738 147.13 154.765 147.159 154.781 147.194C154.798 147.228 154.804 147.267 154.798 147.305C154.792 147.412 154.76 147.516 154.707 147.609C154.654 147.701 154.58 147.781 154.491 147.84L147.448 151.895C147.418 151.919 147.381 151.934 147.342 151.937C147.303 151.94 147.264 151.931 147.23 151.912C147.197 151.893 147.169 151.864 147.152 151.829C147.134 151.794 147.127 151.755 147.132 151.716C147.138 151.609 147.168 151.505 147.222 151.412C147.275 151.319 147.35 151.24 147.439 151.181L154.491 147.126Z" fill="black"/>
<path opacity="0.3" d="M154.477 145.892C154.507 145.868 154.544 145.854 154.582 145.852C154.62 145.849 154.658 145.858 154.691 145.877C154.724 145.896 154.751 145.925 154.767 145.96C154.784 145.994 154.79 146.033 154.784 146.071C154.78 146.178 154.75 146.283 154.696 146.376C154.643 146.47 154.568 146.548 154.477 146.606L147.436 150.661C147.405 150.685 147.369 150.699 147.331 150.701C147.293 150.704 147.254 150.695 147.221 150.676C147.188 150.657 147.162 150.628 147.145 150.593C147.129 150.559 147.123 150.52 147.128 150.482C147.134 150.376 147.165 150.273 147.219 150.181C147.272 150.09 147.346 150.012 147.436 149.955L154.477 145.892Z" fill="black"/>
</g>
<path d="M74.737 169.755L72.4791 168.449C72.224 168.302 71.9221 168.259 71.6359 168.328C71.3497 168.397 71.1011 168.574 70.9415 168.822C71.1903 168.784 71.4448 168.833 71.6619 168.96L73.9287 170.266C74.2015 170.425 74.4277 170.654 74.5843 170.929C74.741 171.203 74.8227 171.515 74.8212 171.831V177.273C74.8213 177.493 74.7566 177.708 74.635 177.89C74.9099 177.857 75.1629 177.723 75.3463 177.515C75.5298 177.308 75.6309 177.04 75.6307 176.762V171.32C75.6314 171.004 75.5492 170.693 75.3923 170.418C75.2355 170.143 75.0096 169.915 74.737 169.755Z" fill="#02AD24"/>
<path d="M74.8263 171.807C74.828 171.49 74.7463 171.179 74.5896 170.904C74.4329 170.629 74.2067 170.401 73.9338 170.242L71.667 168.936C71.4499 168.808 71.1955 168.76 70.9467 168.798C70.8272 168.984 70.7652 169.202 70.7682 169.423V174.857C70.7665 175.174 70.8481 175.485 71.0048 175.76C71.1615 176.035 71.3877 176.263 71.6606 176.422L73.9185 177.728C73.9917 177.829 74.0987 177.9 74.2201 177.929C74.3414 177.957 74.4689 177.941 74.5791 177.882C74.6893 177.824 74.7748 177.728 74.82 177.612C74.8652 177.495 74.867 177.367 74.825 177.249L74.8263 171.807Z" fill="#02AD24"/>
<path opacity="0.7" d="M74.737 169.755L72.4791 168.449C72.224 168.302 71.9221 168.259 71.6359 168.328C71.3497 168.397 71.1011 168.574 70.9415 168.822C71.1903 168.784 71.4448 168.833 71.6619 168.96L73.9287 170.266C74.2015 170.425 74.4277 170.654 74.5843 170.929C74.741 171.203 74.8227 171.515 74.8212 171.831V177.273C74.8213 177.493 74.7566 177.708 74.635 177.89C74.9099 177.857 75.1629 177.723 75.3463 177.515C75.5298 177.308 75.6309 177.04 75.6307 176.762V171.32C75.6314 171.004 75.5492 170.693 75.3923 170.418C75.2355 170.143 75.0096 169.915 74.737 169.755Z" fill="white"/>
<path opacity="0.6" d="M74.8263 171.807C74.828 171.49 74.7463 171.179 74.5896 170.904C74.4329 170.629 74.2067 170.401 73.9338 170.242L71.667 168.936C71.4499 168.808 71.1955 168.76 70.9467 168.798C70.8272 168.984 70.7652 169.202 70.7682 169.423V174.857C70.7665 175.174 70.8481 175.485 71.0048 175.76C71.1615 176.035 71.3877 176.263 71.6606 176.422L73.9185 177.728C73.9917 177.829 74.0987 177.9 74.2201 177.929C74.3414 177.957 74.4689 177.941 74.5791 177.882C74.6893 177.824 74.7748 177.728 74.82 177.612C74.8652 177.495 74.867 177.367 74.825 177.249L74.8263 171.807Z" fill="white"/>
<path d="M149.488 65.708L126.878 52.6261L38.3846 103.822L61.0008 116.905L149.488 65.708Z" fill="#02AD24"/>
<path opacity="0.5" d="M149.488 65.708L126.878 52.6261L38.3846 103.822L61.0008 116.905L149.488 65.708Z" fill="white"/>
<path d="M38.3846 103.822V109.581L61.0009 122.664V116.905L38.3846 103.822Z" fill="#02AD24"/>
<path d="M61.0009 116.905V122.664L149.489 71.4709V65.7092L61.0009 116.905Z" fill="#02AD24"/>
<path opacity="0.25" d="M38.3846 103.822V109.581L61.0009 122.664V116.905L38.3846 103.822Z" fill="white"/>
<path opacity="0.1" d="M61.0009 116.905V122.664L149.489 71.4709V65.7092L61.0009 116.905Z" fill="white"/>
<path opacity="0.3" d="M127.61 127.351C127.61 126.854 127.478 126.365 127.228 125.935C126.979 125.505 126.62 125.148 126.189 124.902C125.757 124.655 125.268 124.528 124.772 124.531C124.275 124.535 123.788 124.671 123.361 124.924L103.934 136.271C103.273 136.66 102.723 137.216 102.342 137.884C101.96 138.551 101.758 139.306 101.757 140.075V182.09L103.222 181.237V140.075C103.224 139.563 103.359 139.06 103.612 138.615C103.866 138.17 104.231 137.799 104.67 137.537L124.094 126.179C124.301 126.057 124.536 125.993 124.775 125.992C125.014 125.991 125.25 126.053 125.458 126.172C125.666 126.292 125.838 126.464 125.958 126.672C126.078 126.879 126.141 127.115 126.141 127.355V167.981L127.606 167.169L127.61 127.351Z" fill="black"/>
</g>
</g>
<defs>
<clipPath id="clip0_246_3276">
<rect width="300.372" height="290.695" fill="white"/>
</clipPath>
<clipPath id="clip1_246_3276">
<rect width="183" height="168" fill="white" transform="translate(0 39)"/>
</clipPath>
</defs>
</svg>
