<svg width="326" height="203" viewBox="0 0 326 203" fill="none" xmlns="http://www.w3.org/2000/svg">
<path d="M45.6706 1.03467H12.7134V35.3906H45.6706V1.03467Z" fill="#E0E0E0"/>
<path d="M43.4383 1.03467H10.4811V35.3906H43.4383V1.03467Z" fill="#F5F5F5"/>
<path d="M43.4479 35.4003H10.4955V1.00598H43.4719L43.4479 35.4003ZM10.4907 35.4003H43.424V1.0443H10.4955L10.4907 35.4003Z" fill="#E0E0E0"/>
<path d="M39.0073 5.65259H14.9121V30.7681H39.0073V5.65259Z" fill="white"/>
<path d="M14.9122 30.9404C14.7431 31.191 14.5471 31.4223 14.3277 31.6302C13.9445 32.0374 13.4032 32.5883 12.7996 33.1823C12.1961 33.7763 11.6356 34.3128 11.2236 34.6912C11.0026 34.9101 10.7584 35.1045 10.4955 35.2709C10.6619 35.0169 10.8599 34.7851 11.0847 34.581C11.4727 34.1739 12.014 33.623 12.6224 33.0242C13.2308 32.4254 13.7864 31.8937 14.1984 31.5153C14.4107 31.2939 14.6506 31.1007 14.9122 30.9404Z" fill="#E0E0E0"/>
<path d="M39.0073 30.8782C39.2661 31.0477 39.5041 31.247 39.7163 31.4722C40.1235 31.8554 40.6743 32.3967 41.2683 33.0003C41.8623 33.6038 42.3988 34.1643 42.7773 34.5763C42.996 34.7853 43.1904 35.0183 43.3569 35.2709C43.1029 35.1045 42.8711 34.9065 42.6671 34.6817C42.2599 34.2984 41.7091 33.7571 41.1103 33.1488C40.5115 32.5404 39.9798 31.9799 39.6013 31.568C39.3741 31.3649 39.1744 31.133 39.0073 30.8782Z" fill="#E0E0E0"/>
<path d="M38.9402 5.71958C39.1114 5.46782 39.3107 5.23639 39.5342 5.02978C39.9175 4.62261 40.4588 4.07172 41.0671 3.47773C41.6755 2.88373 42.2312 2.34722 42.6383 1.96878C42.847 1.74785 43.0819 1.55321 43.3377 1.38916C43.167 1.64126 42.9677 1.87274 42.7437 2.07896C42.3605 2.48614 41.8192 3.03702 41.2108 3.63581C40.6025 4.23459 40.042 4.76631 39.6348 5.14475C39.4284 5.36484 39.1951 5.55798 38.9402 5.71958Z" fill="#E0E0E0"/>
<path d="M14.8451 5.79625C14.5922 5.62659 14.3606 5.42716 14.1553 5.20226C13.7481 4.81904 13.1972 4.27773 12.5985 3.66937C11.9997 3.061 11.4536 2.49096 11.0943 2.08378C10.8648 1.87798 10.6635 1.64283 10.4955 1.3844C10.7525 1.54889 10.9889 1.74347 11.1997 1.96402C11.6069 2.34725 12.1577 2.88855 12.7565 3.49692C13.3553 4.10528 13.8918 4.66575 14.2655 5.07292C14.4878 5.28917 14.6825 5.53213 14.8451 5.79625Z" fill="#E0E0E0"/>
<path d="M38.9402 30.7728C38.9402 30.7728 38.9402 30.7297 38.9402 30.6482C38.9402 30.5668 38.9402 30.447 38.9402 30.2985C38.9402 29.9824 38.9402 29.5321 38.9402 28.9429C38.9402 27.7549 38.9402 26.0208 38.9115 23.8221C38.9115 19.4246 38.9115 13.1589 38.8684 5.65251L38.9594 5.74831H14.9313L15.0367 5.64293C15.0367 14.8642 15.0367 23.4867 15.0367 30.7632L14.9457 30.6722L32.344 30.7153H37.2301H38.5235H38.8588C38.897 30.7103 38.9356 30.7103 38.9738 30.7153H38.5426H37.2684H32.4015L14.9457 30.7632H14.8068V30.6722C14.8068 23.5203 14.8068 14.8978 14.8068 5.65251V5.54712H14.9169H38.945H39.036V5.63813C39.036 13.1685 39.0025 19.4533 38.9929 23.87C38.9929 26.0591 38.9929 27.7836 38.9642 28.9668C38.9642 29.5465 38.9642 29.992 38.9642 30.3033C38.9642 30.4518 38.9642 30.562 38.9642 30.6434C38.9589 30.687 38.9509 30.7302 38.9402 30.7728Z" fill="#E0E0E0"/>
<path d="M30.974 14.1936H22.9359V22.2317H30.974V14.1936Z" fill="#E0E0E0"/>
<path d="M322.865 0H285.76V53.7854H322.865V0Z" fill="#E0E0E0"/>
<path d="M321.007 0H283.901V53.7854H321.007V0Z" fill="#F5F5F5"/>
<path d="M316.403 5.82495H288.514V47.9603H316.403V5.82495Z" fill="white"/>
<path d="M316.399 47.9508C316.399 47.9508 316.399 47.879 316.399 47.7448C316.399 47.6107 316.399 47.4047 316.399 47.146C316.399 46.6191 316.399 45.8431 316.399 44.8371C316.399 42.8156 316.399 39.8744 316.37 36.1571C316.37 28.7274 316.37 18.2031 316.327 5.81544L316.418 5.90645H288.533L288.634 5.80586C288.634 21.7 288.634 36.3583 288.61 47.9604L288.533 47.879L308.83 47.9221H314.439H315.91H316.418H315.939H314.502H308.911L288.567 47.9652H288.485V47.9508C288.485 36.3679 288.485 21.7096 288.462 5.79627V5.69568H288.567H316.451H316.542V5.78669C316.542 18.2031 316.509 28.7418 316.499 36.1907C316.499 39.8983 316.499 42.8348 316.475 44.8467C316.475 45.8431 316.475 46.6143 316.475 47.1413C316.475 47.3951 316.475 47.5915 316.475 47.7257C316.475 47.8598 316.399 47.9508 316.399 47.9508Z" fill="#E0E0E0"/>
<path d="M321.112 0C320.922 0.339013 320.7 0.659726 320.451 0.958058C320.02 1.53768 319.412 2.3185 318.712 3.16638C318.013 4.01426 317.361 4.76634 316.877 5.30285C316.63 5.60439 316.356 5.88332 316.058 6.13636C316.268 5.80732 316.505 5.49646 316.767 5.20704L318.554 3.04183L320.341 0.871832C320.575 0.561587 320.833 0.27009 321.112 0Z" fill="#E0E0E0"/>
<path d="M316.542 47.8262C317.924 50.0288 319.548 52.0695 321.385 53.9098L316.542 47.8262Z" fill="white"/>
<path d="M321.385 53.9098C321.078 53.6789 320.794 53.4191 320.537 53.1338C319.889 52.4779 319.276 51.787 318.703 51.0644C318.126 50.3458 317.587 49.5975 317.088 48.8226C316.864 48.5121 316.674 48.178 316.523 47.8262C316.774 48.1134 317.003 48.4192 317.208 48.7411C317.615 49.3159 318.166 50.1016 318.861 50.9399C319.555 51.7782 320.173 52.5111 320.643 53.038C320.914 53.3078 321.162 53.5994 321.385 53.9098Z" fill="#E0E0E0"/>
<path d="M283.896 53.7423L288.759 47.7449L283.896 53.7423Z" fill="white"/>
<path d="M288.759 47.7449C288.033 48.8127 287.251 49.8409 286.416 50.825C285.631 51.8469 284.793 52.827 283.906 53.7615C284.638 52.702 285.423 51.6803 286.258 50.7005C287.039 49.6722 287.874 48.6856 288.759 47.7449Z" fill="#E0E0E0"/>
<path d="M283.901 0C284.74 0.89628 285.528 1.83821 286.263 2.82148C287.051 3.76093 287.785 4.74453 288.462 5.76751C287.625 4.87056 286.838 3.92867 286.105 2.94603C285.319 2.00376 284.583 1.02036 283.901 0Z" fill="#E0E0E0"/>
<path d="M307.709 14.3805H298.373V40.8947H307.709V14.3805Z" fill="#E0E0E0"/>
<path d="M12.2056 97.8177C10.1321 96.5195 7.78888 95.7133 5.35553 95.4609C4.2346 95.3459 3.01308 95.3794 2.11729 96.0597C2.01342 96.1185 1.92739 96.2043 1.86835 96.308C1.80932 96.4118 1.77947 96.5295 1.78198 96.6489C1.83418 96.8186 1.94662 96.9634 2.09813 97.056C3.55327 98.0926 5.26418 98.7115 7.04572 98.8458C8.82726 98.98 10.6116 98.6245 12.2056 97.8177Z" fill="#E0E0E0"/>
<path d="M12.0332 97.6261C10.4504 96.4607 8.97403 95.1575 7.62131 93.7316C6.25899 92.2971 5.30187 90.5266 4.84773 88.6012C4.75792 88.3167 4.73069 88.0161 4.7679 87.7201C4.8051 87.4241 4.90587 87.1396 5.06329 86.8862C8.57937 89.6263 11.3482 93.2046 12.0332 97.6261Z" fill="#E0E0E0"/>
<path d="M12.1721 97.7938C11.8419 95.8684 11.8695 93.8986 12.2535 91.9832C12.6481 90.055 13.7526 88.3453 15.348 87.1929C15.9564 88.63 15.6929 90.2587 15.2666 91.7484C14.5991 94.0543 13.5622 96.2367 12.196 98.2105" fill="#E0E0E0"/>
<path d="M15.6259 103.997C13.5277 104.251 11.7026 105.358 10.1362 106.78C8.5586 108.213 7.45984 110.096 6.98898 112.174C9.04881 112.045 10.8212 110.593 12.0619 108.965C13.3026 107.336 14.2079 105.554 15.5971 104.031" fill="#E0E0E0"/>
<path d="M16.378 104.979C15.5515 102.881 15.2619 100.61 15.5354 98.3711C15.809 96.1327 16.637 93.9979 17.9444 92.1604C19.1372 96.4142 18.7013 101.219 16.378 104.979Z" fill="#E0E0E0"/>
<path d="M20.9479 110.421C19.0289 110.3 17.1169 110.747 15.4506 111.707C13.7842 112.666 12.4373 114.095 11.5781 115.815C11.4631 116.045 11.3577 116.342 11.5158 116.548C11.597 116.626 11.6961 116.684 11.8046 116.716C11.9131 116.748 12.0278 116.752 12.1385 116.73C13.9828 116.61 15.6211 115.499 16.9719 114.234C18.3228 112.969 19.4964 111.508 20.991 110.402" fill="#E0E0E0"/>
<path d="M20.8042 110.124C19.8194 106.957 19.7579 103.576 20.627 100.376C20.9719 99.1206 21.5467 97.7984 22.7059 97.214C22.7526 97.1829 22.8052 97.1617 22.8604 97.1518C22.9156 97.1419 22.9723 97.1435 23.0269 97.1566C23.1198 97.2083 23.1912 97.2915 23.2281 97.3913C23.6137 98.269 23.7782 99.2279 23.7071 100.184C23.6387 101.138 23.4929 102.085 23.2712 103.015C22.9023 104.744 22.7107 106.608 21.7623 108.098C21.5378 108.457 21.3362 108.829 21.1587 109.214C20.9767 109.592 20.9767 109.726 20.8138 110.028" fill="#E0E0E0"/>
<path d="M32.8949 111.925C31.9991 108.519 32.9524 104.385 35.0984 101.592C35.2565 101.386 35.4673 101.166 35.726 101.19C36.1188 101.224 36.205 101.75 36.205 102.148C36.0417 105.653 34.8946 109.042 32.8949 111.925Z" fill="#E0E0E0"/>
<path d="M33.9679 112.672C36.0825 113.169 38.2797 113.202 40.4082 112.769C42.5368 112.336 44.5462 111.446 46.2981 110.162C44.236 109.124 41.8773 108.834 39.6253 109.343C37.393 109.851 35.3523 110.852 33.9679 112.672Z" fill="#E0E0E0"/>
<path d="M34.926 110.402C37.2445 106.622 41.6899 104.15 46.1161 103.93C45.6083 105.731 44.1281 107.13 42.4563 107.978C40.7845 108.826 38.9211 109.19 37.0816 109.549C36.3679 109.688 35.3859 109.841 34.926 110.402Z" fill="#E0E0E0"/>
<path d="M33.1248 99.3889C33.8281 97.2598 34.3097 95.0638 34.5619 92.8358C34.7343 90.5987 34.4134 88.2658 33.2541 86.3497C31.0889 90.5412 30.859 95.4513 33.0673 99.614" fill="#E0E0E0"/>
<path d="M40.4204 95.7052C42.9497 91.1017 48.1184 87.4227 53.3542 86.9054C51.3375 91.9304 45.8335 95.8105 40.4204 95.7052Z" fill="#E0E0E0"/>
<path d="M38.8253 96.6058C42.6 97.1806 45.8191 99.5949 49.3639 101.056C50.1076 101.418 50.9344 101.575 51.7591 101.511C52.1401 101.506 52.5106 101.385 52.8205 101.163C53.1305 100.941 53.3649 100.63 53.4923 100.271C53.6197 99.9114 53.6339 99.5218 53.533 99.1543C53.432 98.7868 53.2209 98.4591 52.9279 98.2153C52.4276 97.7544 51.8394 97.3992 51.1986 97.1711C47.3664 95.5663 43.2276 95.528 39.1798 96.5004" fill="#E0E0E0"/>
<path d="M36.6361 99.2547C37.4935 99.499 37.7857 99.9445 38.4612 100.519C40.7713 102.483 43.5043 103.887 46.4466 104.62C46.7484 104.697 47.1508 104.725 47.304 104.452C47.4573 104.179 47.2657 103.92 47.0933 103.705C45.8121 102.199 44.1467 101.068 42.2742 100.433C40.4348 99.7481 38.8348 98.9194 36.6361 99.0967" fill="#E0E0E0"/>
<path d="M34.1691 83.2505C35.7183 84.6787 37.549 85.7673 39.5437 86.4462C41.5385 87.1252 43.6531 87.3795 45.752 87.1929C45.9443 87.1956 46.1312 87.1293 46.2789 87.006C46.5711 86.6851 46.2214 86.1965 45.8813 85.933C42.4754 83.2792 38.351 82.1774 34.1691 83.2505Z" fill="#E0E0E0"/>
<path d="M37.096 82.1822C39.1454 80.6716 41.5231 79.6672 44.0348 79.2509C46.5466 78.8347 49.1211 79.0184 51.5483 79.7871C49.6582 81.5418 47.2309 82.6068 44.6599 82.8098C42.1207 83.0438 39.5602 82.8282 37.096 82.1726" fill="#E0E0E0"/>
<path d="M35.9319 74.8291C35.6014 71.428 35.8169 68.7454 35.5822 65.3299C35.5822 65.0569 35.5008 64.7311 35.2469 64.6305C34.8924 64.4964 34.5954 64.9323 34.4805 65.2964C33.9844 66.878 33.8561 68.5519 34.1051 70.1907C34.3542 71.8294 34.9741 73.3896 35.9175 74.7524" fill="#E0E0E0"/>
<path d="M35.6876 75.2027C37.9082 73.7691 39.8229 71.9098 41.321 69.7322C42.4323 68.2089 43.3712 66.379 43.1174 64.5204C42.3343 64.5405 41.565 64.7314 40.8634 65.0797C40.1617 65.4281 39.5446 65.9255 39.0552 66.5371C38.0851 67.7667 37.3804 69.1841 36.9858 70.6999C36.5355 72.1992 36.2193 73.7321 35.6876 75.2027Z" fill="#E0E0E0"/>
<path d="M41.2204 73.665C46.2897 71.7903 50.983 69.0243 55.0787 65.4975C53.4213 64.8317 51.5243 65.2293 49.8717 65.8951C46.1178 67.3218 43.0164 70.0739 41.1534 73.6315" fill="#E0E0E0"/>
<path d="M37.2445 77.0614C39.8025 77.344 42.3988 77.5404 44.9377 77.0997C47.4765 76.659 49.7902 75.6961 52.1231 74.7045C52.3235 74.6463 52.4946 74.5146 52.6021 74.3357C52.6401 74.2274 52.6439 74.1101 52.6131 73.9996C52.5822 73.8891 52.5182 73.7907 52.4297 73.7177C52.2491 73.5777 52.0397 73.4795 51.8165 73.4303C49.2825 72.7261 46.5472 73.0567 44.0563 73.9093C41.6804 74.7215 39.3958 75.7795 37.2397 77.0661" fill="#E0E0E0"/>
<path d="M22.6389 83.3702C20.8952 79.8445 21.0054 75.7344 22.5143 72.1034C23.5778 73.7225 23.7071 75.7823 23.5107 77.7032C23.3143 79.6241 22.7299 81.6121 22.6964 83.5426" fill="#E0E0E0"/>
<path d="M15.669 79.8541C13.4834 79.8255 11.316 80.2539 9.3057 81.1118C7.29538 81.9697 5.48651 83.2382 3.99506 84.836C6.19638 85.0989 8.42554 84.6845 10.3853 83.648C12.332 82.6163 14.1683 81.3884 15.8654 79.9835" fill="#E0E0E0"/>
<path d="M10.9745 78.2829C8.84284 78.1105 6.7926 77.847 4.74715 78.4745C3.7133 78.7664 2.75432 79.2772 1.93524 79.9723C1.11617 80.6674 0.456157 81.5306 -3.05176e-05 82.5031C2.01155 82.6662 4.02998 82.2856 5.84412 81.4014C7.64471 80.5186 9.36183 79.4748 10.9745 78.2829Z" fill="#E0E0E0"/>
<path d="M17.9204 78.3548C16.0043 77.0998 14.0355 75.8208 11.8032 75.2986C9.57094 74.7765 6.97939 75.1645 5.42255 76.8459C7.23328 77.9093 9.42244 78.0339 11.5206 78.0339C13.6187 78.0339 16.1863 78.0051 18.1599 78.7045" fill="#E0E0E0"/>
<path d="M17.93 78.4602C14.6534 75.2411 13.4128 69.4544 14.7301 65.0474C17.3215 69.0112 18.4528 73.7533 17.93 78.4602Z" fill="#E0E0E0"/>
<path d="M26.9453 69.3394C27.5633 67.9023 27.9992 66.3934 28.5549 64.9276C29.0619 63.45 29.8382 62.0792 30.8446 60.8846C31.87 59.6774 33.3291 58.922 34.9068 58.7816C34.4021 60.9986 33.4406 63.0859 32.0838 64.9104C30.727 66.7348 29.0047 68.2563 27.0268 69.3777" fill="#E0E0E0"/>
<path d="M25.3167 71.2364C24.2915 69.8281 23.1083 67.9167 21.724 66.8677C20.3396 65.8186 18.5288 65.1815 16.8331 65.5839C17.7098 67.1212 18.9332 68.4327 20.406 69.414C21.8788 70.3953 23.5603 71.0193 25.3167 71.2364Z" fill="#E0E0E0"/>
<path d="M25.6424 69.4543C24.9094 67.7814 24.3663 66.0316 24.0233 64.2377C23.6913 62.4116 23.9885 60.527 24.8664 58.8917C26.6675 62.2928 27.2615 65.943 25.7574 69.4926" fill="#E0E0E0"/>
<path d="M26.9645 58.8918C27.98 55.5386 31.0698 53.0381 34.4038 51.898C34.8161 51.729 35.263 51.6617 35.7068 51.7016C35.928 51.7266 36.1369 51.8162 36.3073 51.9594C36.4777 52.1025 36.6021 52.2928 36.6648 52.5064C36.7846 53.0812 36.3104 53.5938 35.8649 53.9722C33.2598 56.1976 30.2303 57.8712 26.9597 58.8918" fill="#E0E0E0"/>
<path d="M26.998 56.1374C27.1274 53.9626 27.2663 51.7543 27.9561 49.6945C28.6459 47.6347 30.0255 45.7042 32.0087 44.8036C32.3488 46.9975 31.3764 49.1819 30.2123 51.0693C29.0483 52.9567 27.6351 54.7434 26.931 56.8512" fill="#E0E0E0"/>
<path d="M26.9453 57.632C26.1022 55.1746 26.016 52.0513 24.5502 49.9101C23.5203 48.4155 21.8724 47.3952 20.9862 45.8096C20.4511 47.3304 20.5266 48.9995 21.197 50.4657C21.8625 51.9159 22.7806 53.2362 23.9083 54.365C24.9957 55.5243 25.9298 56.4009 26.9405 57.632" fill="#E0E0E0"/>
<path d="M26.9645 130.004C26.8974 130.004 26.84 113.607 26.8352 93.3915C26.8304 73.1765 26.8783 56.7745 26.9453 56.7745C27.0124 56.7745 27.0699 73.1669 27.0747 93.3915C27.0795 113.616 27.0268 130.004 26.9645 130.004Z" fill="#E0E0E0"/>
<path d="M41.2875 80.8936C41.0921 80.9936 40.8865 81.0723 40.6743 81.1283L38.9738 81.6983C37.5367 82.1773 35.5822 82.8911 33.4506 83.7677C31.3189 84.6444 29.3453 85.406 28.21 86.388C27.7578 86.7658 27.3988 87.2428 27.1609 87.782C26.998 88.1652 26.9693 88.3999 26.9453 88.3951C26.9214 88.3904 26.9453 88.3377 26.9453 88.2275C26.9684 88.0641 27.0085 87.9035 27.0651 87.7485C27.2789 87.1764 27.6311 86.6662 28.0902 86.2635C28.7777 85.6805 29.5457 85.1997 30.3704 84.836C31.2805 84.4144 32.2865 83.9689 33.3595 83.533C35.496 82.6564 37.4792 81.9714 38.9258 81.5259C39.6444 81.3007 40.2384 81.1331 40.6456 81.0229C40.8556 80.9622 41.0703 80.9189 41.2875 80.8936Z" fill="#E0E0E0"/>
<path d="M45.9867 69.3586C45.9867 69.3586 45.9293 69.4305 45.8095 69.5455L45.2874 70.0245L43.3233 71.8113L36.7846 77.6506C34.2362 79.926 32.0278 82.096 30.4997 83.7295C29.7333 84.5439 29.1345 85.2193 28.7225 85.6935L28.2435 86.2348C28.1333 86.3594 28.0711 86.4216 28.0663 86.4121C28.0615 86.4025 28.1046 86.3354 28.2052 86.2061C28.3058 86.0767 28.4495 85.8756 28.6459 85.6313C29.0387 85.1522 29.604 84.448 30.3704 83.6145C32.3386 81.4627 34.4172 79.4145 36.5978 77.4782C39.1606 75.2124 41.4887 73.1669 43.1844 71.7059L45.1963 69.9814L45.752 69.5024C45.8239 69.4447 45.9027 69.3964 45.9867 69.3586Z" fill="#E0E0E0"/>
<path d="M34.0302 79.9548C33.9631 79.9212 34.5092 78.6901 35.0266 77.1381C35.5439 75.586 35.817 74.2639 35.8841 74.2639C35.8273 75.2681 35.614 76.2573 35.2517 77.1956C35.0193 77.8722 34.7507 78.5358 34.447 79.1835C34.3432 79.4581 34.203 79.7175 34.0302 79.9548Z" fill="#E0E0E0"/>
<path d="M26.9789 89.8754C26.8308 89.7306 26.6991 89.57 26.5861 89.3964L25.5753 88.103C24.7322 87.0108 23.5634 85.5019 22.2509 83.8493C20.9383 82.1966 19.736 80.7116 18.8593 79.6434L17.8294 78.3692C17.6976 78.22 17.579 78.0598 17.4749 77.8901C17.6306 78.018 17.7734 78.1608 17.9013 78.3165C18.1647 78.6039 18.5336 79.0206 18.9887 79.5428C19.894 80.5871 21.1204 82.0577 22.4377 83.7103C23.755 85.363 24.8999 86.8911 25.7095 88.0216C26.1166 88.5821 26.4424 89.0371 26.6675 89.3581C26.7875 89.5203 26.8917 89.6935 26.9789 89.8754Z" fill="#E0E0E0"/>
<path d="M23.8365 85.842C23.2055 85.1467 22.7534 84.3082 22.5191 83.399C22.2746 82.5942 22.1741 81.7525 22.2221 80.9128H22.3275C22.2796 81.1044 22.2461 81.205 22.2269 81.2002C22.2078 81.1954 22.2269 81.09 22.2269 80.8984H22.3323C22.3859 81.7097 22.5272 82.5128 22.7538 83.2936C23.0486 84.1697 23.4105 85.0217 23.8365 85.842Z" fill="#E0E0E0"/>
<path d="M19.7791 80.7403C19.4982 80.5244 19.1907 80.3457 18.8641 80.2085C18.0371 79.9607 17.167 79.8906 16.3109 80.0026C15.4452 80.0717 14.5865 80.2111 13.7433 80.4193C13.3972 80.5299 13.0433 80.6148 12.6847 80.6732C12.9994 80.4856 13.3399 80.3452 13.6954 80.2564C14.5406 80.0016 15.4113 79.8409 16.2917 79.7774C17.1799 79.6606 18.0832 79.7575 18.9264 80.06C19.2807 80.1813 19.5821 80.4217 19.7791 80.7403Z" fill="#E0E0E0"/>
<path d="M18.821 79.5044C18.821 79.5427 18.2845 79.2888 17.4127 78.9918C16.2761 78.6085 15.0969 78.3656 13.9014 78.2685C12.7041 78.181 11.5005 78.2422 10.3182 78.4505C9.41288 78.6134 8.88116 78.7859 8.84763 78.7427C8.96498 78.6745 9.09053 78.6213 9.22127 78.5847C9.56885 78.4625 9.9241 78.3632 10.2847 78.2877C12.6817 77.7628 15.18 77.9527 17.4701 78.8338C17.8139 78.9662 18.1497 79.1181 18.4761 79.2888C18.601 79.3434 18.7172 79.416 18.821 79.5044Z" fill="#E0E0E0"/>
<path d="M26.9453 74.2974C26.529 73.1305 26.1867 71.9385 25.9202 70.7286C25.579 69.5407 25.3119 68.3329 25.1202 67.1119C25.5425 68.2757 25.8866 69.4663 26.1501 70.6759C26.4915 71.865 26.7571 73.0746 26.9453 74.2974Z" fill="#E0E0E0"/>
<path d="M27.0124 74.2974C26.6812 73.5602 26.3003 72.8464 25.8723 72.1609C25.3879 71.5183 24.8265 70.9375 24.2005 70.4316C24.4394 70.4912 24.6609 70.6061 24.8472 70.767C25.3215 71.1162 25.7343 71.542 26.0687 72.0268C26.5777 72.6874 26.9032 73.4707 27.0124 74.2974Z" fill="#E0E0E0"/>
<path d="M26.9645 121.242C26.9357 121.242 26.8878 120.849 26.7058 120.155C26.4331 119.175 26.0657 118.223 25.6088 117.314C24.4735 115 22.4137 112.045 19.7982 109.128C18.5 107.643 17.2402 106.253 16.172 104.907C15.2126 103.729 14.3462 102.478 13.5804 101.166C13.0659 100.28 12.6268 99.3522 12.2679 98.3925C12.1481 98.0524 12.0619 97.7841 12.014 97.5973C11.9793 97.5065 11.9567 97.4115 11.9469 97.3147C11.9469 97.3147 12.0858 97.6931 12.3541 98.359C12.7416 99.313 13.1996 100.237 13.7241 101.123C14.5068 102.412 15.3808 103.643 16.3396 104.807C17.4126 106.134 18.6725 107.523 19.9755 109.008C22.6005 111.954 24.6556 114.929 25.7573 117.281C26.2068 118.198 26.5538 119.162 26.792 120.155C26.8554 120.427 26.905 120.702 26.9405 120.979C26.9557 121.066 26.9637 121.154 26.9645 121.242Z" fill="#E0E0E0"/>
<path d="M39.9079 106.641C39.6898 106.782 39.4625 106.909 39.2277 107.02C38.6158 107.367 38.0284 107.756 37.4696 108.184C36.6463 108.825 35.8743 109.53 35.1607 110.292C34.3464 111.149 33.5129 112.145 32.6602 113.209C30.9548 115.35 29.3597 117.242 28.4064 118.756C28.0194 119.346 27.6629 119.955 27.3382 120.581C27.2273 120.815 27.1025 121.042 26.9645 121.261C26.9645 121.261 26.9645 121.194 27.0268 121.07C27.0891 120.945 27.1466 120.763 27.252 120.538C27.5509 119.894 27.8884 119.268 28.2627 118.665C29.192 117.118 30.7728 115.197 32.4734 113.06C33.3308 111.992 34.1739 110.996 35.0026 110.143C35.731 109.38 36.5226 108.68 37.369 108.05C37.941 107.628 38.5484 107.256 39.1846 106.938C39.4097 106.828 39.5965 106.756 39.7163 106.704C39.836 106.651 39.9031 106.632 39.9079 106.641Z" fill="#E0E0E0"/>
<path d="M40.1618 111.384C39.6883 111.488 39.2081 111.558 38.7247 111.595C37.5726 111.709 36.4339 111.932 35.3236 112.26C34.2259 112.62 33.1961 113.161 32.2769 113.86C31.5728 114.402 31.2422 114.852 31.2087 114.818C31.2615 114.698 31.3344 114.588 31.4243 114.493C31.6471 114.213 31.8974 113.956 32.1716 113.726C33.0791 112.97 34.123 112.394 35.2469 112.03C36.3728 111.696 37.5332 111.492 38.7055 111.422C39.1888 111.365 39.6762 111.352 40.1618 111.384Z" fill="#E0E0E0"/>
<path d="M31.635 114.306C31.5584 114.263 32.2051 113.276 32.708 111.949C33.211 110.622 33.2877 109.434 33.3739 109.444C33.4076 109.7 33.3995 109.961 33.3499 110.215C33.2777 110.832 33.1363 111.44 32.9284 112.026C32.7119 112.608 32.4341 113.165 32.0997 113.688C31.9776 113.917 31.8208 114.125 31.635 114.306Z" fill="#E0E0E0"/>
<path d="M44.0994 93.9041C44.0296 93.9571 43.952 93.9991 43.8695 94.0286L43.1988 94.3352C42.9018 94.4597 42.5426 94.6226 42.1402 94.8142C41.7378 95.0058 41.2635 95.2405 40.7701 95.5328L39.9893 95.9782C39.7163 96.1363 39.448 96.3232 39.1606 96.5004C38.5858 96.8501 38.0062 97.2812 37.393 97.7219C34.7494 99.686 32.4452 102.07 30.5716 104.778C30.1501 105.41 29.7381 106.004 29.4124 106.589C29.2399 106.881 29.0675 107.159 28.9333 107.432L28.5166 108.232C28.2388 108.711 28.0376 109.214 27.8412 109.626C27.6448 110.038 27.4963 110.397 27.3621 110.699C27.228 111.001 27.1514 111.202 27.0795 111.384C27.0476 111.464 27.0092 111.54 26.9645 111.614C26.9756 111.528 26.9981 111.444 27.0316 111.365C27.0939 111.183 27.1753 110.948 27.2759 110.665C27.399 110.294 27.5413 109.93 27.7022 109.573C27.8843 109.152 28.0759 108.663 28.3489 108.136L28.7513 107.326C28.895 107.049 29.0675 106.766 29.2303 106.474C29.5561 105.875 29.9633 105.276 30.38 104.634C32.2504 101.893 34.5733 99.4888 37.2493 97.5255C37.8768 97.0896 38.4612 96.6585 39.0456 96.3136C39.3379 96.1363 39.6109 95.9543 39.8839 95.801L40.6791 95.3699C41.1582 95.0825 41.6372 94.8909 42.0731 94.6753C42.509 94.4597 42.8491 94.3256 43.1509 94.1963L43.8455 93.9328C43.9289 93.9144 44.014 93.9047 44.0994 93.9041Z" fill="#E0E0E0"/>
<path d="M33.853 100.768C33.9526 100.438 34.1496 100.146 34.4182 99.9302C35.0503 99.3837 35.8535 99.0753 36.6888 99.0583C37.5109 99.0594 38.3247 99.2221 39.084 99.5374C39.403 99.64 39.7061 99.7868 39.9845 99.9733C39.6574 99.9102 39.3367 99.8171 39.0265 99.6955C38.2767 99.4404 37.4904 99.3093 36.6984 99.3074C35.9138 99.3236 35.1551 99.5905 34.5332 100.069C34.2913 100.287 34.064 100.521 33.853 100.768Z" fill="#E0E0E0"/>
<path d="M32.3248 102.349C33.0024 101.027 33.1728 99.5017 32.8039 98.062C32.9403 98.2424 33.0322 98.4525 33.0721 98.6752C33.3461 99.7319 33.2145 100.853 32.7033 101.818C32.5308 102.182 32.3488 102.368 32.3248 102.349Z" fill="#E0E0E0"/>
<path d="M15.6403 123.637C15.9948 129.898 17.8821 136.274 20.7851 142.712H33.4123C36.181 136.336 37.9391 129.975 38.2505 123.637H15.6403Z" fill="#E0E0E0"/>
<path d="M36.205 133.75C36.205 133.817 32.047 133.869 26.9214 133.869C21.7958 133.869 17.6331 133.817 17.6331 133.75C17.6331 133.683 21.791 133.63 26.9214 133.63C32.0518 133.63 36.205 133.697 36.205 133.75Z" fill="#FAFAFA"/>
<path d="M35.9224 136.02C35.9224 136.082 32.0279 136.135 27.2184 136.135C22.409 136.135 18.5145 136.082 18.5145 136.02C18.5145 135.958 22.409 135.9 27.2184 135.9C32.0279 135.9 35.9224 135.953 35.9224 136.02Z" fill="#FAFAFA"/>
<path d="M20.991 127.724C21.1443 129.661 21.1443 131.607 20.991 133.544C20.8314 131.607 20.8314 129.66 20.991 127.724Z" fill="#FAFAFA"/>
<path d="M27.7406 127.724C27.9002 129.729 27.9002 131.744 27.7406 133.75C27.5809 131.744 27.5809 129.729 27.7406 127.724Z" fill="#FAFAFA"/>
<path d="M34.1068 127.676C34.2269 128.694 34.2669 129.721 34.2266 130.746C34.2669 131.771 34.2269 132.798 34.1068 133.817C33.9868 132.798 33.9467 131.771 33.9871 130.746C33.9467 129.721 33.9868 128.694 34.1068 127.676Z" fill="#FAFAFA"/>
<path d="M37.8529 127.723C37.8529 127.791 32.9763 127.843 26.9597 127.843C20.9431 127.843 16.0714 127.791 16.0714 127.723C16.0714 127.656 20.9431 127.609 26.9597 127.609C32.9763 127.609 37.8529 127.661 37.8529 127.723Z" fill="#FAFAFA"/>
<path d="M321.61 66.149H289.568V99.5469H321.61V66.149Z" fill="#E0E0E0"/>
<path d="M319.44 66.149H287.398V99.5469H319.44V66.149Z" fill="#F5F5F5"/>
<path d="M319.469 99.5613H287.374V66.1538H319.469V99.5613ZM287.432 99.5613H319.45V66.1538H287.412L287.432 99.5613Z" fill="#E0E0E0"/>
<path d="M315.134 70.6423H291.709V95.0632H315.134V70.6423Z" fill="white"/>
<path d="M291.709 95.2213C291.541 95.4667 291.347 95.6932 291.13 95.8967C290.756 96.2895 290.229 96.8261 289.64 97.4057C289.051 97.9853 288.509 98.5027 288.112 98.8715C287.907 99.0832 287.679 99.2712 287.432 99.432C287.597 99.1887 287.79 98.9653 288.006 98.7661C288.38 98.3685 288.907 97.8081 289.501 97.2524C290.095 96.6967 290.632 96.1506 291.034 95.7818C291.237 95.5697 291.464 95.3817 291.709 95.2213Z" fill="#E0E0E0"/>
<path d="M315.158 95.1638C315.403 95.3283 315.628 95.5213 315.828 95.7387C316.226 96.1171 316.758 96.6392 317.337 97.2284C317.917 97.8176 318.439 98.3589 318.803 98.7613C319.018 98.9635 319.207 99.1902 319.368 99.4368C319.124 99.2708 318.899 99.078 318.698 98.8619C318.305 98.4883 317.769 97.9613 317.184 97.3721C316.6 96.7829 316.087 96.2368 315.718 95.8345C315.504 95.6358 315.315 95.4104 315.158 95.1638Z" fill="#E0E0E0"/>
<path d="M315.072 70.7047C315.236 70.4592 315.429 70.2341 315.646 70.034C316.02 69.6412 316.547 69.1047 317.136 68.5251C317.725 67.9455 318.267 67.4281 318.669 67.0593C318.871 66.8449 319.098 66.6552 319.345 66.494C319.182 66.7406 318.988 66.9658 318.77 67.1647C318.396 67.5575 317.869 68.094 317.275 68.6784C316.681 69.2628 316.145 69.7754 315.742 70.1442C315.542 70.3577 315.317 70.5459 315.072 70.7047Z" fill="#E0E0E0"/>
<path d="M291.642 70.767C291.398 70.5996 291.173 70.4052 290.972 70.1874C290.574 69.8137 290.042 69.2868 289.463 68.6976C288.883 68.1084 288.366 67.5671 287.997 67.1695C287.782 66.9664 287.592 66.738 287.432 66.4893C287.677 66.6538 287.902 66.8467 288.102 67.0641C288.495 67.4425 289.032 67.9695 289.616 68.5587C290.2 69.1479 290.713 69.694 291.082 70.0916C291.297 70.2912 291.486 70.5183 291.642 70.767Z" fill="#E0E0E0"/>
<path d="M315.072 95.0584C315.067 95.0202 315.067 94.9817 315.072 94.9435C315.072 94.8572 315.072 94.7471 315.072 94.5986C315.072 94.2968 315.072 93.8561 315.072 93.2812C315.072 92.1268 315.072 90.4406 315.072 88.3041C315.072 84.0264 315.048 77.9379 315.029 70.6423L315.12 70.7333H291.757L291.858 70.6328C291.858 79.5954 291.858 87.9784 291.858 95.0632L291.772 94.977L308.686 95.0201L313.438 95.0441H314.693H313.453H308.725L291.753 95.092H291.661V95.0009C291.661 87.9305 291.661 79.5475 291.661 70.5705V70.4651H291.767H315.129H315.158V70.5561C315.158 77.8757 315.124 83.9689 315.115 88.2802C315.115 90.4118 315.115 92.0884 315.115 93.2381C315.115 93.8034 315.115 94.2393 315.115 94.5411C315.115 94.68 315.115 94.7902 315.115 94.8716C315.115 94.953 315.072 95.0632 315.072 95.0584Z" fill="#E0E0E0"/>
<path d="M307.33 78.944H299.513V86.7617H307.33V78.944Z" fill="#E0E0E0"/>
<path d="M207.625 182.62V197.772H229.781H254.221V182.62H207.625Z" fill="#F5F5F5"/>
<path d="M205.671 178.385V182.62H255.854V178.385H229.781H205.671Z" fill="#E0E0E0"/>
<path d="M230.763 197.772H254.221V182.62H255.854V178.385H229.781V182.227L230.763 197.772Z" fill="#E0E0E0"/>
<path d="M223.592 185.063H214.14V187.343H223.592V185.063Z" fill="#E0E0E0"/>
<path d="M225.057 190.198H212.923V195.013H225.057V190.198Z" fill="white"/>
<path d="M214.792 163.253V178.405H236.952H261.392V163.253H214.792Z" fill="#F5F5F5"/>
<path d="M212.837 159.014V163.253H263.02V159.014H236.952H212.837Z" fill="#EBEBEB"/>
<path d="M237.929 178.405H261.392V163.253H263.02V159.014H236.952V162.86L237.929 178.405Z" fill="#EBEBEB"/>
<path d="M230.763 165.696H221.311V167.976H230.763V165.696Z" fill="#E0E0E0"/>
<path d="M232.228 170.826H220.095V175.641H232.228V170.826Z" fill="white"/>
<path d="M66.3838 73.7274C66.1256 72.9559 65.6393 72.2809 64.9893 71.7916C64.3393 71.3024 63.556 71.0219 62.7432 70.9874C63.1647 69.8042 62.3552 68.439 61.2055 67.9408C60.6156 67.7274 59.9875 67.6406 59.3619 67.686C58.7363 67.7314 58.1273 67.908 57.5744 68.2042C56.7745 68.5827 56.0272 69.1096 55.1793 69.306C54.044 69.5647 52.8704 69.2054 51.7111 69.1671C50.5214 69.1445 49.3484 69.4493 48.3203 70.0483C47.2921 70.6472 46.4484 71.5173 45.8814 72.5634C45.4933 73.2963 45.2538 74.1059 44.8275 74.8196C44.4826 75.3897 44.0323 75.8879 43.6922 76.4627C43.2173 77.3042 43.0013 78.2671 43.0711 79.2309C43.141 80.1946 43.4937 81.1163 44.085 81.8805L60.4151 78.1297C61.0863 78.5939 61.8856 78.837 62.7016 78.825C63.5176 78.8131 64.3094 78.5466 64.9667 78.0629C65.6239 77.5792 66.1138 76.9024 66.3678 76.1268C66.6219 75.3513 66.6274 74.5159 66.3838 73.737V73.7274Z" fill="#263238"/>
<path d="M104.002 133.855L88.2562 132.293L87.3461 140.47L105.128 139.853L104.002 133.855Z" fill="#FFDEDE"/>
<path d="M115.963 138.645C115.863 138.787 115.723 138.896 115.561 138.959C115.4 139.022 115.223 139.036 115.053 139C114.98 138.98 114.909 138.953 114.842 138.918C114.363 138.684 114.579 137.683 114.579 137.683L112.27 136.926C112.27 136.926 108.878 138.42 107.575 139.565C106.273 140.71 103.647 139.201 103.647 139.201L103.475 133.999L108.457 130.746C108.457 130.746 108.15 130.943 108.567 130.267C108.984 129.592 110.311 130.071 110.311 130.071C110.584 129.74 111.499 129.75 111.499 129.75L115.25 130.794C115.632 130.9 115.985 131.091 116.284 131.352C116.582 131.613 116.818 131.938 116.974 132.303L118.186 135.115C118.186 135.115 118.751 137.093 118.545 137.51C118.458 137.678 118.312 137.807 118.135 137.874C117.959 137.941 117.764 137.941 117.587 137.874C117.587 137.874 117.204 139.053 116.883 139.048C116.559 138.979 116.25 138.851 115.973 138.669L115.963 138.645Z" fill="#FFDEDE"/>
<path d="M108.538 138.885C108.629 138.847 108.715 138.8 108.797 138.746L109.516 138.334C110.418 137.834 111.349 137.388 112.303 136.998H112.246L114.55 137.774L114.483 137.659C114.448 137.853 114.431 138.05 114.435 138.248C114.433 138.464 114.495 138.675 114.612 138.856C114.689 138.949 114.79 139.017 114.905 139.053C115.009 139.098 115.121 139.123 115.235 139.124C115.47 139.125 115.698 139.042 115.877 138.89C115.922 138.852 115.964 138.81 116.002 138.765L116.03 138.732L115.882 138.76L115.954 138.803C116.046 138.862 116.142 138.915 116.241 138.962C116.341 139.012 116.446 139.056 116.552 139.091C116.608 139.113 116.666 139.129 116.725 139.139C116.798 139.16 116.877 139.16 116.95 139.139C117.068 139.073 117.165 138.977 117.233 138.861C117.295 138.762 117.351 138.66 117.4 138.554C117.499 138.344 117.586 138.128 117.659 137.908L117.506 137.98C117.66 138.041 117.829 138.058 117.992 138.03C118.156 138.002 118.309 137.93 118.435 137.821C118.565 137.704 118.65 137.545 118.675 137.371C118.692 137.212 118.692 137.051 118.675 136.892C118.59 136.282 118.462 135.678 118.291 135.086L117.645 133.587L117.237 132.629C117.112 132.301 116.951 131.988 116.758 131.695C116.554 131.41 116.293 131.17 115.992 130.991C115.692 130.825 115.369 130.705 115.034 130.636L111.494 129.678H111.465C111.245 129.681 111.025 129.703 110.809 129.745C110.578 129.776 110.363 129.88 110.196 130.042H110.335C110.154 129.922 109.948 129.848 109.732 129.826C109.517 129.805 109.299 129.836 109.099 129.917C108.742 130.099 108.47 130.412 108.337 130.789L108.375 130.741L104.941 132.969L104.016 133.587C103.905 133.656 103.8 133.733 103.7 133.817C103.821 133.766 103.936 133.703 104.045 133.63L105.003 133.055L108.476 130.9V130.871C108.595 130.544 108.832 130.273 109.142 130.114C109.313 130.049 109.497 130.025 109.679 130.046C109.86 130.067 110.034 130.131 110.186 130.234L110.263 130.282L110.325 130.215C110.46 130.095 110.626 130.019 110.804 129.994C111.005 129.955 111.208 129.936 111.413 129.937L114.943 130.933C115.253 130.998 115.552 131.11 115.829 131.264C116.101 131.428 116.335 131.647 116.519 131.905C116.699 132.183 116.847 132.481 116.96 132.792C117.099 133.108 117.233 133.424 117.372 133.75L118.018 135.249C118.186 135.829 118.313 136.419 118.397 137.017C118.411 137.155 118.411 137.295 118.397 137.433C118.38 137.551 118.322 137.66 118.234 137.74C118.14 137.819 118.027 137.871 117.907 137.891C117.787 137.911 117.663 137.899 117.549 137.855L117.434 137.817L117.396 137.927C117.329 138.138 117.247 138.345 117.151 138.545C117.084 138.729 116.972 138.894 116.826 139.024C116.792 139.028 116.758 139.028 116.725 139.024L116.586 138.986C116.49 138.952 116.394 138.909 116.299 138.866C116.205 138.821 116.114 138.771 116.026 138.717L115.958 138.679L115.81 138.708V138.736C115.779 138.771 115.745 138.803 115.709 138.832C115.576 138.947 115.407 139.013 115.23 139.019C115.142 139.019 115.054 139.001 114.972 138.966C114.892 138.947 114.821 138.902 114.77 138.837C114.612 138.519 114.575 138.155 114.665 137.812V137.721L114.584 137.697L112.275 136.95H112.246H112.217C111.264 137.356 110.339 137.827 109.448 138.358C109.137 138.545 108.902 138.698 108.744 138.808C108.674 138.829 108.605 138.855 108.538 138.885Z" fill="#FF9A6C"/>
<path d="M110.747 131.508C111.109 131.745 111.503 131.932 111.915 132.063C112.919 132.441 113.967 132.686 115.034 132.792L114.919 132.686C114.957 132.887 114.991 133.093 115.044 133.304C115.315 134.493 115.813 135.618 116.509 136.619C116.719 136.919 116.95 137.204 117.199 137.472C117.376 137.663 117.487 137.754 117.501 137.745C117.515 137.735 117.146 137.29 116.658 136.518C116.022 135.512 115.56 134.406 115.293 133.247C115.245 133.045 115.206 132.84 115.173 132.648V132.547H115.077C114.029 132.445 112.995 132.231 111.992 131.91C111.585 131.752 111.169 131.618 110.747 131.508Z" fill="#FF9A6C"/>
<path d="M114.023 134.305C114.133 135.913 114.861 137.415 116.054 138.497C116.117 138.444 115.417 137.649 114.861 136.49C114.306 135.331 114.1 134.291 114.023 134.305Z" fill="#FF9A6C"/>
<path d="M103.135 137.529C103.135 137.529 103.168 137.568 103.245 137.62C103.359 137.696 103.477 137.765 103.6 137.826C104.064 138.053 104.565 138.192 105.08 138.238C105.87 138.31 106.664 138.155 107.37 137.793C108.269 137.332 108.982 136.573 109.386 135.647L109.233 135.718C110.116 136.036 111.041 136.227 111.978 136.284C112.326 136.303 112.674 136.303 113.022 136.284C113.371 136.285 113.717 136.228 114.047 136.116C114.232 136.054 114.387 135.926 114.483 135.757C114.524 135.669 114.547 135.575 114.551 135.479C114.555 135.383 114.54 135.287 114.507 135.196C114.439 135.017 114.303 134.873 114.129 134.794L113.707 134.612C112.591 134.133 111.561 133.783 110.694 133.501C109.827 133.218 109.108 133.022 108.615 132.897C108.361 132.817 108.099 132.764 107.834 132.739C108.08 132.839 108.331 132.923 108.586 132.993C109.065 133.146 109.774 133.371 110.636 133.673C111.499 133.975 112.509 134.358 113.616 134.832L114.033 135.014C114.145 135.067 114.233 135.162 114.277 135.278C114.301 135.336 114.314 135.399 114.314 135.462C114.314 135.525 114.301 135.588 114.277 135.647C114.207 135.762 114.096 135.848 113.966 135.886C113.656 135.987 113.333 136.035 113.008 136.03C112.672 136.03 112.332 136.03 111.987 136.03C111.074 135.974 110.172 135.79 109.31 135.484L109.199 135.445L109.156 135.551C108.772 136.436 108.095 137.163 107.24 137.611C106.571 137.965 105.817 138.131 105.061 138.09C104.566 138.058 104.081 137.944 103.623 137.754C103.307 137.63 103.144 137.529 103.135 137.529Z" fill="#FF9A6C"/>
<path d="M52.9279 113.621C51.0595 113.58 49.2817 112.808 47.976 111.47C46.6703 110.133 45.9406 108.338 45.9436 106.469L45.6466 82.7523C45.3688 76.386 48.7411 70.9107 54.935 70.8053H55.5098C61.2821 71.0496 65.9 75.8064 66.1251 81.7415C66.3359 87.2647 66.561 92.5963 66.4077 95.5471C66.0868 101.66 60.0462 102.254 60.0462 102.254C60.0462 102.254 60.0462 104.529 60.0462 106.325C60.0621 107.27 59.8903 108.209 59.5409 109.086C59.1915 109.964 58.6713 110.764 58.0106 111.44C57.3498 112.115 56.5616 112.653 55.6916 113.021C54.8216 113.39 53.8871 113.582 52.9422 113.587L52.9279 113.621Z" fill="#FFDEDE"/>
<path d="M60.0462 102.325C57.2915 102.2 54.6345 101.267 52.4057 99.6428C52.4057 99.6428 54.0823 104.318 60.0318 104.016L60.0462 102.325Z" fill="#FFDEDE"/>
<path d="M63.9359 87.1978C63.9298 87.4215 63.8379 87.6344 63.6792 87.7922C63.5204 87.9501 63.3071 88.0408 63.0833 88.0456C62.9735 88.0495 62.864 88.0313 62.7613 87.9922C62.6587 87.9532 62.5649 87.8939 62.4854 87.8181C62.406 87.7422 62.3425 87.6512 62.2987 87.5504C62.255 87.4496 62.2318 87.3411 62.2306 87.2313C62.2331 87.0064 62.3239 86.7914 62.4834 86.6328C62.6429 86.4742 62.8583 86.3846 63.0833 86.3834C63.1929 86.3802 63.3021 86.3988 63.4044 86.4382C63.5068 86.4775 63.6004 86.5367 63.6797 86.6125C63.759 86.6882 63.8225 86.779 63.8665 86.8794C63.9105 86.9799 63.9341 87.0881 63.9359 87.1978Z" fill="#263238"/>
<path d="M64.7551 84.4097C64.6449 84.5199 64.0222 84.0026 63.1072 83.969C62.1923 83.9355 61.5073 84.3714 61.4115 84.2517C61.3157 84.1319 61.4833 83.9978 61.7803 83.7726C62.1855 83.5096 62.6631 83.3806 63.1455 83.4038C63.6205 83.4172 64.078 83.5854 64.4485 83.8828C64.7216 84.1511 64.8078 84.3571 64.7551 84.4097Z" fill="#263238"/>
<path d="M55.644 87.1977C55.6402 87.4222 55.5491 87.6364 55.3898 87.7948C55.2306 87.9531 55.0159 88.0431 54.7913 88.0456C54.6817 88.0475 54.5728 88.0276 54.4709 87.9871C54.369 87.9466 54.2761 87.8863 54.1977 87.8097C54.1193 87.733 54.0568 87.6416 54.014 87.5407C53.9712 87.4397 53.9488 87.3313 53.9482 87.2216C53.9519 86.9971 54.0431 86.7829 54.2024 86.6245C54.3616 86.4662 54.5763 86.3762 54.8009 86.3738C54.9107 86.3712 55.0199 86.3906 55.1221 86.4309C55.2243 86.4711 55.3174 86.5314 55.3959 86.6082C55.4745 86.685 55.5369 86.7767 55.5795 86.8779C55.6221 86.9791 55.644 87.0878 55.644 87.1977Z" fill="#263238"/>
<path d="M55.7973 84.2469C55.6871 84.3571 55.0596 83.8397 54.1494 83.8062C53.2392 83.7727 52.5494 84.2086 52.4536 84.0888C52.3578 83.9691 52.5207 83.8349 52.8225 83.6098C53.2277 83.3468 53.7052 83.2177 54.1877 83.2409C54.6623 83.2561 55.1193 83.4241 55.4907 83.72C55.7589 83.9882 55.85 84.199 55.7973 84.2469Z" fill="#263238"/>
<path d="M58.7816 91.6048C59.2688 91.4713 59.7711 91.4004 60.2762 91.394C60.5109 91.394 60.7552 91.3413 60.7792 91.1784C60.8076 90.9314 60.7626 90.6815 60.6498 90.4599C60.4534 89.8707 60.2474 89.2527 60.0367 88.606C59.1792 85.9618 58.5996 83.8157 58.6762 83.763C58.7529 83.7104 59.5576 85.8372 60.4103 88.4815C60.6163 89.133 60.8127 89.7509 60.9947 90.3449C61.1354 90.6441 61.166 90.9834 61.081 91.303C61.0442 91.3847 60.9892 91.4569 60.9203 91.5142C60.8514 91.5714 60.7704 91.6123 60.6834 91.6335C60.5532 91.6648 60.4196 91.6793 60.2858 91.6766C59.7834 91.7166 59.2779 91.6925 58.7816 91.6048Z" fill="#263238"/>
<path d="M56.2092 81.3248C56.0751 81.5595 55.1984 81.2673 54.1206 81.2002C53.0428 81.1332 52.1374 81.2625 52.0369 81.0086C51.9937 80.8888 52.1853 80.6829 52.5734 80.5296C53.0823 80.313 53.6365 80.2242 54.1877 80.2709C54.7392 80.3025 55.275 80.4668 55.7493 80.7499C56.1086 80.9751 56.2667 81.2098 56.2092 81.3248Z" fill="#263238"/>
<path d="M64.9084 81.6505C64.712 81.8613 63.9503 81.617 63.0785 81.5835C62.2066 81.5499 61.4258 81.6841 61.2582 81.4541C61.1815 81.344 61.3061 81.1332 61.6414 80.9416C62.1039 80.7099 62.6188 80.6027 63.1353 80.6304C63.6519 80.6581 64.1523 80.8198 64.5874 81.0996C64.894 81.3248 64.9946 81.5499 64.9084 81.6505Z" fill="#263238"/>
<path d="M45.9436 87.2983C45.843 87.2504 41.9102 85.8852 41.8719 90.0671C41.8336 94.249 45.9245 93.4203 45.934 93.3101C45.9436 93.2 45.9436 87.2983 45.9436 87.2983Z" fill="#FFDEDE"/>
<path d="M44.7125 91.7102C44.7125 91.7102 44.6407 91.7628 44.5209 91.8155C44.4367 91.8507 44.3463 91.8688 44.2551 91.8688C44.1638 91.8688 44.0734 91.8507 43.9892 91.8155C43.5629 91.6479 43.2036 90.9437 43.194 90.1868C43.1842 89.8293 43.2546 89.4741 43.4 89.1473C43.438 89.0183 43.5066 88.9004 43.6 88.8036C43.6934 88.7069 43.8089 88.6341 43.9365 88.5917C44.0191 88.57 44.1068 88.579 44.1834 88.6168C44.2599 88.6547 44.3203 88.7189 44.3533 88.7977C44.4107 88.9126 44.382 88.9988 44.406 89.0036C44.4299 89.0084 44.4922 88.9366 44.4587 88.7641C44.4401 88.6599 44.3838 88.5661 44.3006 88.5007C44.2478 88.4552 44.1857 88.4218 44.1187 88.4027C44.0517 88.3837 43.9814 88.3795 43.9126 88.3905C43.7438 88.4235 43.5863 88.4995 43.4554 88.6111C43.3245 88.7227 43.2246 88.8661 43.1653 89.0276C42.9895 89.39 42.9025 89.789 42.9114 90.1916C42.9114 91.0347 43.3425 91.8299 43.9269 92.0119C44.0356 92.0446 44.1504 92.0522 44.2624 92.0339C44.3745 92.0156 44.4809 91.9721 44.5736 91.9065C44.703 91.8107 44.7269 91.7197 44.7125 91.7102Z" fill="#FF9A6C"/>
<path d="M48.8657 76.8555C48.9607 76.3206 49.2002 75.8218 49.5581 75.4132C49.9161 75.0045 50.379 74.7015 50.8968 74.537C51.7891 74.2367 52.7569 74.2485 53.6416 74.5705C55.9362 75.404 59.869 76.6543 60.8702 75.8543C62.336 74.7046 62.6905 73.9382 62.6905 73.9382L63.5 74.8196C64.1563 74.4459 62.1827 72.252 60.5636 71.4951C58.1205 70.355 54.3889 69.6509 52.1327 70.3071C49.4166 71.0975 47.1604 72.4819 45.7951 75.0256C44.4802 77.6222 43.8613 80.5156 43.9988 83.423C43.9988 84.3092 43.8599 86.848 44.7125 87.0444C45.3784 87.1929 46.2263 87.4899 46.1784 88.7641C46.1451 89.2293 46.2966 89.6889 46.5999 90.0431C47.3424 90.8575 48.2525 90.091 48.6741 89.3246C49.5699 87.6863 49.6705 85.7319 49.7471 83.8541C49.8747 82.5221 49.789 81.1783 49.4932 79.8733C49.1842 79.0431 48.9642 78.1824 48.837 77.3057C48.8308 77.1551 48.8405 77.0041 48.8657 76.8555Z" fill="#263238"/>
<path d="M58.9397 93.8658C58.9636 93.928 58.7768 94.0861 58.3983 94.1675C57.8964 94.2675 57.3752 94.186 56.9277 93.9376C56.4787 93.6937 56.127 93.3031 55.9314 92.8311C55.7876 92.4718 55.8116 92.2323 55.8787 92.2131C55.9457 92.1939 56.3242 93.0083 57.1816 93.4729C58.0391 93.9376 58.9013 93.7268 58.9397 93.8658Z" fill="#263238"/>
<path d="M63.1887 149.673L43.7305 145.39L31.2231 114.402C31.2231 114.402 14.5097 118.109 11.7553 127.47C9.36018 135.541 4.44535 171.219 15.6355 193.212C17.0614 195.982 19.2252 198.304 21.888 199.922C24.5509 201.54 27.609 202.391 30.7249 202.38H115.882C121.074 202.381 126.084 200.468 129.955 197.007C133.825 193.547 136.285 188.781 136.863 183.621C137.342 179.31 137.678 175.224 137.611 172.561L123.939 162.07L63.1887 149.673Z" fill="#455A64"/>
<g opacity="0.3">
<path opacity="0.3" d="M115.211 160.451C121.204 168.278 128.495 175.301 137.213 179.909L137.63 169.284L121.525 157.821L115.211 160.451Z" fill="black"/>
</g>
<path d="M50.9399 108.376C50.9399 108.941 55.3661 110.771 57.3637 109.966C60.4103 108.749 60.0319 106.359 60.0319 106.359L61.7228 108.141L78.6661 133.961L91.2598 142.272L71.1022 148.657L49.9675 124.38L50.9399 108.376Z" fill="#F5F5F5"/>
<path d="M45.5987 99.71L45.1532 100.543L43.1413 104.294L34.7727 109.631L51.9842 130.09L59.8355 148.657L78.6613 154.549C78.6613 154.549 69.7035 140.777 66.9203 133.735C64.1371 126.694 63.8545 127.029 61.3157 121.865C59.5898 118.227 58.0549 114.502 56.717 110.704L45.5987 99.71Z" fill="#02AD24"/>
<path d="M85.9234 136.571L89.6167 140.015L90.661 142.142L76.932 135.757L67.0209 121.865C67.0209 121.865 63.4905 114.033 62.2785 111.226C60.9995 108.275 60.0462 106.603 60.0462 106.603V104.275L65.0425 108.787L69.2148 110.028L76.1895 121.046L85.9234 136.571Z" fill="#02AD24"/>
<path d="M81.6936 123.58C81.6936 123.58 80.0265 120.026 78.6661 117.07C75.6003 110.411 68.3718 109.779 68.3718 109.779L76.362 131.939L86.1485 138.88C86.1485 138.88 88.9365 139.838 89.2862 138.88C89.2862 138.88 91.322 131.532 91.2598 131.503C91.1975 131.474 84.2947 129.41 84.2947 129.41L81.5163 123.182" fill="#02AD24"/>
<path d="M96.4141 116.663L86.9054 132.504L96.8644 132.212L105.645 117.535C105.722 117.406 105.764 117.259 105.766 117.109C105.767 116.959 105.729 116.811 105.655 116.68C105.581 116.55 105.474 116.441 105.344 116.366C105.214 116.29 105.067 116.251 104.917 116.251H97.1422C96.9956 116.251 96.8514 116.289 96.7238 116.361C96.5962 116.433 96.4895 116.537 96.4141 116.663Z" fill="#263238"/>
<path d="M59.8354 134.578L83.6384 131.747L87.6383 124.739L90.7711 123.019C91.0309 122.876 91.3262 122.809 91.6224 122.828C91.9186 122.847 92.2033 122.95 92.4429 123.125L92.7399 123.34L95.0632 123.048C95.4592 122.996 95.8613 123.075 96.2081 123.273L97.856 124.231C97.9747 124.301 98.0734 124.4 98.1422 124.52C98.2111 124.639 98.2478 124.774 98.2488 124.912C98.2486 125.028 98.2229 125.142 98.1736 125.247C98.1243 125.352 98.0526 125.444 97.9635 125.518C97.8743 125.592 97.77 125.646 97.6579 125.675C97.5458 125.704 97.4286 125.709 97.3147 125.688L95.7147 125.395L93.2621 126.195C93.2621 126.195 94.8429 126.363 95.0441 127.561C95.2453 128.758 94.4453 128.787 94.4453 128.787C94.4453 128.787 96.1075 129.745 94.9243 131.182C94.9243 131.182 96.3135 132.107 94.7566 133.86C93.7076 135.048 86.1341 138.918 86.1341 138.918L59.8354 148.657V134.578Z" fill="#FFDEDE"/>
<path d="M94.886 131.173C94.886 131.173 95.0632 131.173 95.274 131.388C95.411 131.547 95.5061 131.738 95.5504 131.943C95.5948 132.148 95.587 132.361 95.5279 132.562C95.3196 133.131 94.9663 133.637 94.5028 134.028C93.9856 134.534 93.4264 134.996 92.831 135.407C91.7432 136.136 90.594 136.77 89.3963 137.299C88.9165 137.548 88.4145 137.752 87.897 137.908C88.3583 137.62 88.8384 137.364 89.3341 137.141C90.4947 136.572 91.615 135.924 92.6873 135.201C93.2742 134.798 93.8284 134.35 94.3447 133.86C94.7892 133.503 95.1368 133.04 95.3554 132.514C95.416 132.337 95.4337 132.149 95.4071 131.964C95.3804 131.779 95.3102 131.603 95.2022 131.45C95.1102 131.344 95.0038 131.25 94.886 131.173Z" fill="#FF9A6C"/>
<path d="M92.6537 123.403C92.29 123.627 91.8868 123.78 91.4657 123.853C91.0647 124.003 90.6386 124.074 90.2107 124.064C90.5734 123.837 90.977 123.684 91.3987 123.613C91.7997 123.464 92.2257 123.392 92.6537 123.403Z" fill="#FF9A6C"/>
<path d="M95.7195 125.376C95.2014 125.676 94.6456 125.905 94.0669 126.057C93.5117 126.283 92.9283 126.433 92.3328 126.502C92.8486 126.198 93.4051 125.969 93.9854 125.822C94.5397 125.593 95.1234 125.443 95.7195 125.376Z" fill="#FF9A6C"/>
<path d="M92.8884 128.552C92.8166 128.552 92.7831 128.337 92.7016 128.102C92.6202 127.867 92.5244 127.685 92.5771 127.623C92.6298 127.561 92.8405 127.719 92.9364 128.011C93.0322 128.303 92.9316 128.562 92.8884 128.552Z" fill="#FF9A6C"/>
<path d="M93.6788 131.302C93.607 131.302 93.6357 130.943 93.5351 130.555C93.4345 130.167 93.2621 129.87 93.3148 129.822C93.3675 129.774 93.6645 130.032 93.7938 130.492C93.9232 130.952 93.7411 131.302 93.6788 131.302Z" fill="#FF9A6C"/>
<path d="M35.4433 109.204C34.6481 109.683 27.9178 114.282 28.8998 121.812C29.8818 129.343 44.7796 146.367 47.8885 146.693L59.8402 148.657V134.579L54.0919 134.253L46.5807 119.518L35.4433 109.204Z" fill="#02AD24"/>
<path d="M59.8355 133.898C59.6948 133.924 59.5521 133.937 59.4091 133.937L58.202 133.984L53.9194 134.08H53.862L53.8236 134.032L50.7962 129.961C48.9902 127.522 47.3711 125.304 46.2071 123.69L44.8419 121.774C44.6625 121.545 44.5023 121.301 44.3628 121.046C44.5651 121.253 44.7509 121.476 44.9185 121.712L46.3556 123.58C47.5579 125.161 49.2298 127.364 51.007 129.807L54.0105 133.893L53.9147 133.846H58.1972H59.4043C59.5497 133.845 59.6945 133.863 59.8355 133.898Z" fill="#263238"/>
<path d="M56.9326 112.543C56.8424 112.408 56.7639 112.265 56.6978 112.117L56.1086 110.881H56.238C55.8032 111.513 55.4172 112.178 55.0835 112.869C54.661 113.789 54.1593 114.67 53.5842 115.503L53.4884 115.638L53.3878 115.508C52.6117 114.55 51.7255 113.539 50.7723 112.5C48.6885 110.234 46.6957 108.27 45.273 106.833L43.5916 105.123C43.3791 104.922 43.1836 104.704 43.0072 104.471C43.242 104.647 43.463 104.841 43.6683 105.051L45.4071 106.699C46.8442 108.102 48.8801 110.052 50.9735 112.318C51.9315 113.362 52.8129 114.387 53.5842 115.35H53.383C53.9548 114.529 54.4609 113.664 54.8967 112.763C55.2456 112.07 55.6543 111.408 56.1182 110.785L56.1949 110.68L56.2428 110.795C56.4583 111.312 56.6356 111.729 56.7697 112.059C56.8445 112.213 56.8992 112.375 56.9326 112.543Z" fill="#263238"/>
<path d="M65.1048 108.941C65.2645 109.155 65.3861 109.395 65.4641 109.65C65.7095 110.297 65.919 110.958 66.0916 111.628L66.2545 112.213L65.8808 111.734C65.3462 111.07 64.76 110.45 64.1276 109.88C63.5719 109.372 63.0306 108.922 62.5372 108.471L62.7384 108.395C62.6691 109.18 62.6451 109.968 62.6665 110.756C62.6847 111.069 62.6441 111.383 62.5468 111.681C62.518 111.681 62.5468 111.341 62.5132 110.761C62.4509 109.964 62.4509 109.163 62.5132 108.366L62.5372 108.141L62.7144 108.289C63.1935 108.706 63.7683 109.171 64.3288 109.688C64.9742 110.271 65.5643 110.913 66.0916 111.604L65.8808 111.705C65.6748 110.876 65.5072 110.186 65.3539 109.712C65.2526 109.461 65.1693 109.204 65.1048 108.941Z" fill="#263238"/>
<path d="M82.3929 131.896C82.1888 131.736 81.9981 131.56 81.8229 131.369L80.3523 129.865C79.7343 129.218 79.0014 128.495 78.1966 127.599C77.8278 127.12 77.502 126.607 77.1188 126.104C76.7299 125.561 76.3961 124.98 76.1224 124.37C75.5524 123.134 75.1213 121.913 74.7333 120.806C74.3452 119.7 74.0051 118.699 73.6938 117.875C73.3824 117.051 73.095 116.39 72.8746 115.959C72.7448 115.736 72.6296 115.506 72.5297 115.269C72.5297 115.269 72.5824 115.317 72.6543 115.422C72.7678 115.575 72.8718 115.735 72.9656 115.901C73.3092 116.519 73.6117 117.159 73.871 117.817C74.2111 118.641 74.5704 119.633 74.968 120.735C75.3656 121.836 75.8015 123.048 76.3667 124.27C76.632 124.862 76.9528 125.429 77.3248 125.961C77.7128 126.473 78.0386 127.005 78.3882 127.46C79.1403 128.318 79.8924 129.094 80.4816 129.745L81.8947 131.302C82.0773 131.485 82.244 131.684 82.3929 131.896Z" fill="#263238"/>
<path d="M89.3005 139.843L134.483 138.574C135.198 138.555 135.91 138.687 136.571 138.962C138.214 139.661 141.17 141.457 143.196 145.759C146.132 151.986 159.833 178.333 159.833 178.333L145.979 185.432L128.988 153.912L76.6015 149.457L77.2098 145.27L89.3005 139.843Z" fill="#263238"/>
<path d="M141.864 179.88L149.083 192.273L149.562 195.406C149.632 195.861 149.791 196.298 150.029 196.693C150.268 197.087 150.582 197.43 150.954 197.703C151.325 197.976 151.747 198.172 152.194 198.282C152.642 198.392 153.107 198.412 153.562 198.342L175.535 194.989C175.795 194.954 176.043 194.861 176.261 194.715C176.479 194.569 176.66 194.376 176.791 194.149C176.922 193.922 176.999 193.668 177.016 193.407C177.034 193.145 176.991 192.884 176.891 192.641C176.796 192.427 176.653 192.238 176.471 192.09C176.29 191.942 176.076 191.838 175.847 191.789C174.007 191.31 159.828 186.112 159.828 186.112L153.917 174.252L141.864 179.88Z" fill="#E0E0E0"/>
<path d="M147.915 182.749C147.311 182.138 146.768 181.471 146.291 180.757C145.742 180.093 145.26 179.375 144.854 178.615C145.454 179.228 145.996 179.895 146.473 180.608C147.022 181.273 147.505 181.99 147.915 182.749Z" fill="#263238"/>
<path d="M152.226 181.015C151.62 180.398 151.11 179.694 150.712 178.927C150.243 178.2 149.882 177.41 149.639 176.58C149.706 176.546 150.214 177.581 150.928 178.802C151.641 180.024 152.288 180.972 152.226 181.015Z" fill="#263238"/>
<path d="M155.239 197.944C155.191 197.944 155.076 197.518 154.76 196.871C154.337 196.033 153.734 195.297 152.995 194.718C152.256 194.138 151.398 193.729 150.482 193.518C149.778 193.351 149.323 193.346 149.323 193.298C149.719 193.208 150.129 193.208 150.525 193.298C151.494 193.461 152.406 193.864 153.178 194.471C153.951 195.078 154.559 195.868 154.947 196.771C155.128 197.136 155.228 197.537 155.239 197.944Z" fill="#263238"/>
<path d="M170.046 195.813C169.864 195.572 169.744 195.291 169.696 194.994C169.523 194.278 169.559 193.528 169.801 192.833C170.051 192.151 170.441 191.53 170.946 191.008C171.133 190.773 171.364 190.578 171.626 190.433C171.655 190.467 171.43 190.721 171.099 191.142C170.667 191.681 170.321 192.284 170.074 192.929C169.854 193.579 169.793 194.272 169.897 194.95C169.969 195.234 170.018 195.522 170.046 195.813Z" fill="#263238"/>
<path d="M75.4662 146.008C75.4662 146.008 122.09 141.333 124.356 141.519C128.538 141.864 136.25 148.461 149.936 157.648C157.027 162.467 163.608 167.997 169.576 174.151L165.203 184.134C165.203 184.134 134.545 172.958 129.731 168.939C125.735 165.586 118.445 160.844 118.445 160.844L100.462 161.026L87.0922 162.204C83.7943 162.496 80.4762 161.949 77.4461 160.615C74.4161 159.281 71.7725 157.203 69.7609 154.573L64.5731 147.795L75.4662 146.008Z" fill="#263238"/>
<path d="M118.219 160.705C118.219 160.705 118.296 160.748 118.435 160.844L119.063 161.275L121.482 162.975C123.585 164.475 126.67 166.63 130.454 169.49C130.693 169.667 130.933 169.873 131.172 170.031L131.944 170.51C132.499 170.788 133.055 171.095 133.644 171.368L135.445 172.206L137.361 173.044C139.951 174.165 142.744 175.334 145.74 176.551C151.718 178.98 158.424 181.619 165.663 184.402L165.504 184.474L169.466 174.414L169.495 174.558L164.053 169.011C162.774 167.904 161.404 166.726 160.005 165.562C151.662 158.686 142.936 152.289 133.869 146.401C132.642 145.35 131.317 144.418 129.913 143.618C128.579 142.841 127.16 142.224 125.683 141.778C125.319 141.682 124.955 141.606 124.595 141.515L123.508 141.347L122.421 141.29H117.151L103.073 141.261L93.9327 141.223H91.5376H90.9148C90.8446 141.227 90.7743 141.227 90.7041 141.223H90.9148H91.5376H93.9327L103.073 141.189L117.151 141.16H122.421L123.527 141.213L124.638 141.381C125.003 141.472 125.371 141.548 125.74 141.649C127.236 142.093 128.674 142.714 130.023 143.498C131.445 144.302 132.786 145.242 134.027 146.305C143.112 152.185 151.851 158.583 160.202 165.466C161.605 166.63 162.975 167.809 164.254 168.92L169.696 174.472L169.753 174.534L169.725 174.616L165.749 184.675L165.706 184.79L165.591 184.747C158.353 181.954 151.646 179.301 145.673 176.858C142.688 175.636 139.891 174.462 137.304 173.327L135.388 172.479L133.568 171.54C132.983 171.258 132.423 170.951 131.867 170.668L131.077 170.189C130.818 170.031 130.598 169.825 130.358 169.648C126.593 166.774 123.518 164.594 121.434 163.071L119.039 161.342L118.425 160.891C118.277 160.762 118.219 160.705 118.219 160.705Z" fill="#455A64"/>
<path d="M155.287 181.6L168.221 186.682L170.371 189.01C170.685 189.349 171.061 189.622 171.48 189.815C171.899 190.008 172.352 190.116 172.813 190.134C173.274 190.152 173.734 190.079 174.166 189.919C174.599 189.759 174.996 189.515 175.334 189.202L191.65 174.103C191.845 173.929 191.998 173.712 192.097 173.469C192.195 173.226 192.237 172.964 192.218 172.703C192.2 172.441 192.122 172.188 191.99 171.961C191.858 171.735 191.676 171.542 191.458 171.397C191.26 171.273 191.035 171.198 190.802 171.177C190.569 171.156 190.334 171.19 190.117 171.277C188.33 171.919 173.667 175.545 173.667 175.545L163.833 167.708L155.287 181.6Z" fill="#E0E0E0"/>
<path d="M155.287 181.6C155.287 181.6 155.33 181.519 155.426 181.356L155.862 180.637C156.25 179.99 156.82 179.056 157.543 177.859C159.018 175.43 161.145 171.943 163.77 167.66L163.823 167.569L163.909 167.636L173.744 175.454H173.643L182.39 173.251L187.013 172.048C187.794 171.837 188.584 171.631 189.37 171.401L189.954 171.219C190.157 171.141 190.37 171.091 190.586 171.071C190.812 171.062 191.037 171.1 191.248 171.182C191.458 171.264 191.649 171.39 191.808 171.55C192.12 171.862 192.309 172.275 192.341 172.715C192.374 173.154 192.247 173.591 191.985 173.945C191.854 174.119 191.707 174.279 191.544 174.424L191.099 174.836L190.213 175.655L186.735 178.87L180.158 184.944L177.097 187.77L175.631 189.126C175.393 189.356 175.133 189.563 174.855 189.743C174.173 190.162 173.372 190.342 172.577 190.255C171.782 190.169 171.038 189.82 170.462 189.264C169.638 188.407 168.891 187.569 168.158 186.778H168.192C164.201 185.188 160.973 183.904 158.726 183.004L156.178 181.974L155.517 181.705L155.301 181.614C155.301 181.614 155.387 181.638 155.545 181.701L156.221 181.954L158.808 182.951L168.254 186.615C168.992 187.401 169.753 188.244 170.558 189.082C170.99 189.494 171.523 189.786 172.103 189.928C172.683 190.07 173.29 190.058 173.863 189.892C174.162 189.806 174.448 189.678 174.711 189.514C174.977 189.339 175.224 189.138 175.449 188.915C175.928 188.469 176.407 188.014 176.915 187.559C177.905 186.639 178.924 185.694 179.971 184.723C182.06 182.807 184.258 180.747 186.539 178.64C187.675 177.583 188.833 176.509 190.012 175.421L190.898 174.601C191.198 174.341 191.483 174.062 191.75 173.768C191.979 173.461 192.09 173.083 192.063 172.702C192.037 172.32 191.875 171.961 191.607 171.689C191.47 171.554 191.308 171.45 191.129 171.382C190.95 171.315 190.758 171.285 190.567 171.296C190.373 171.316 190.183 171.362 190.002 171.435L189.403 171.617C188.613 171.847 187.827 172.053 187.042 172.264L182.414 173.461L173.667 175.65H173.61L173.566 175.617L163.785 167.78H163.924L157.653 177.868L155.914 180.642L155.435 181.365C155.349 181.509 155.287 181.6 155.287 181.6Z" fill="#263238"/>
<path d="M176.484 187.933C176.45 187.966 176.11 187.669 175.473 187.319C174.653 186.86 173.742 186.587 172.805 186.52C171.868 186.453 170.927 186.593 170.05 186.931C169.375 187.185 168.992 187.434 168.963 187.411C169.249 187.122 169.594 186.898 169.974 186.754C170.867 186.348 171.848 186.171 172.827 186.242C173.806 186.312 174.752 186.627 175.578 187.157C175.935 187.344 176.244 187.609 176.484 187.933Z" fill="#263238"/>
<path d="M187.559 177.878C187.275 177.778 187.017 177.614 186.807 177.399C186.265 176.902 185.878 176.26 185.691 175.55C185.516 174.844 185.49 174.11 185.614 173.394C185.636 173.096 185.719 172.806 185.858 172.542C185.882 172.834 185.869 173.129 185.82 173.418C185.758 174.107 185.808 174.801 185.969 175.473C186.149 176.136 186.488 176.746 186.955 177.25C187.315 177.634 187.588 177.835 187.559 177.878Z" fill="#263238"/>
<path d="M110.292 160.71C109.29 155.962 107.245 151.105 103.197 148.437C100.127 146.406 96.3279 145.908 92.6585 145.457L16.2726 136.063C15.5876 148.101 20.7419 163.085 26.0017 173.94C26.816 175.626 27.7597 177.351 29.3213 178.381C31.2375 179.636 33.6709 179.622 35.9511 179.564C61.651 178.908 87.3605 177.816 112.917 175.004C111.48 170.372 111.288 165.452 110.292 160.71Z" fill="#455A64"/>
<path d="M44.3772 139.517C44.076 139.521 43.7749 139.502 43.4766 139.46L41.0336 139.196C38.9737 138.957 36.1331 138.607 33.0002 138.176C29.8674 137.745 27.0315 137.309 24.9909 136.95C23.9658 136.768 23.1418 136.619 22.5957 136.471C22.2985 136.421 22.0055 136.349 21.7191 136.255C22.0201 136.269 22.3195 136.306 22.6149 136.365L25.0388 136.739C27.089 137.045 29.9201 137.453 33.0529 137.884L41.0767 138.981L43.5101 139.33C43.8036 139.37 44.0935 139.432 44.3772 139.517Z" fill="#263238"/>
<path d="M44.77 202.356C44.7399 202.309 44.7143 202.259 44.6934 202.208C44.6359 202.098 44.5688 201.949 44.4826 201.767L43.7066 200.057L43.1461 198.845C42.9545 198.366 42.7677 197.887 42.5521 197.341C42.1401 196.263 41.6228 195.046 41.1821 193.652C40.9521 192.962 40.7031 192.239 40.4587 191.482C40.2144 190.725 39.9797 189.921 39.7642 189.087C39.2851 187.444 38.8732 185.652 38.4325 183.775C36.6551 175.579 36.0726 167.17 36.7032 158.808C36.8804 156.892 37.0193 155.062 37.2876 153.366C37.4169 152.518 37.5031 151.694 37.6468 150.909C37.7906 150.123 37.9343 149.376 38.0684 148.657C38.3127 147.22 38.6576 145.941 38.9163 144.825C39.0552 144.26 39.1702 143.737 39.2995 143.258C39.4288 142.779 39.5678 142.348 39.6827 141.955C39.9079 141.184 40.0899 140.581 40.2144 140.154L40.3629 139.675C40.3765 139.621 40.3958 139.568 40.4204 139.517C40.4168 139.573 40.4055 139.628 40.3869 139.68L40.2671 140.159L39.7881 141.97L39.4288 143.278C39.3091 143.757 39.1989 144.288 39.0696 144.849C38.8205 145.979 38.4899 147.244 38.26 148.681C38.1355 149.395 37.9965 150.147 37.8576 150.928C37.7187 151.708 37.6373 152.532 37.5175 153.38C37.254 155.071 37.1247 156.896 36.9523 158.812C36.3605 167.155 36.941 175.54 38.6768 183.722C39.1127 185.595 39.4911 187.387 39.9845 189.025C40.2192 189.849 40.4156 190.649 40.6599 191.42C40.9042 192.191 41.139 192.9 41.3689 193.59C41.7952 194.984 42.2982 196.201 42.6958 197.288C42.9066 197.829 43.0838 198.337 43.2706 198.797L43.8072 200.038L44.5353 201.767L44.7221 202.222C44.7427 202.265 44.7587 202.31 44.77 202.356Z" fill="#263238"/>
<path d="M43.9605 178.084C42.9613 178.175 41.956 178.175 40.9569 178.084C39.9512 178.083 38.9476 177.992 37.9582 177.811C38.9591 177.723 39.9657 177.723 40.9665 177.811C41.9706 177.814 42.9724 177.905 43.9605 178.084Z" fill="#263238"/>
<path d="M43.2658 181.6C42.1991 181.506 41.156 181.233 40.1809 180.79C39.172 180.431 38.2323 179.901 37.4025 179.224C37.4456 179.157 38.6624 179.89 40.2767 180.541C41.891 181.193 43.2802 181.494 43.2658 181.6Z" fill="#263238"/>
<path d="M36.5738 157.591C35.9767 157.966 35.2907 158.176 34.5859 158.199C33.889 158.308 33.1759 158.234 32.5164 157.984C32.5164 157.902 33.441 158.041 34.5619 157.931C35.6828 157.821 36.5451 157.519 36.5738 157.591Z" fill="#263238"/>
<path d="M38.1019 156.441C37.3601 156.596 36.5878 156.498 35.908 156.163C35.1931 155.91 34.5852 155.422 34.1835 154.779C34.7559 155.215 35.3686 155.595 36.0134 155.914C37.1055 156.389 38.1019 156.355 38.1019 156.441Z" fill="#263238"/>
<path d="M64.9994 74.3741C64.8088 73.8774 64.5018 73.4337 64.1042 73.0803C63.7066 72.7269 63.23 72.474 62.7144 72.343C61.6768 72.0862 60.588 72.126 59.572 72.458L49.6465 74.7286C51.0836 75.6866 54.0392 76.5872 55.7349 76.7692C58.2115 77.0327 59.9552 77.0567 61.4306 76.204C61.5266 76.4486 61.6733 76.6701 61.8612 76.8539C62.0491 77.0377 62.2738 77.1795 62.5205 77.27C62.7672 77.3606 63.0304 77.3978 63.2925 77.3791C63.5546 77.3605 63.8099 77.2865 64.0413 77.162C64.489 76.8707 64.8265 76.4381 65.0001 75.9329C65.1737 75.4278 65.1734 74.8791 64.9994 74.3741Z" fill="#263238"/>
<path d="M164.163 178.496C162.146 178.077 160.207 177.347 158.415 176.331C158.444 176.263 159.708 176.81 161.289 177.404C162.87 177.998 164.182 178.429 164.163 178.496Z" fill="#263238"/>
<path d="M166.347 174.252C165.48 173.894 164.631 173.493 163.804 173.049C162.941 172.683 162.098 172.27 161.279 171.813C162.196 172.041 163.08 172.381 163.914 172.824C164.783 173.194 165.6 173.674 166.347 174.252Z" fill="#263238"/>
<path d="M87.2886 144.193L107.298 144.437L131.46 139.647C131.839 139.567 132.186 139.374 132.454 139.094C132.721 138.813 132.898 138.458 132.959 138.075L136.245 116.318C136.283 116.068 136.26 115.813 136.18 115.574C136.1 115.334 135.965 115.117 135.785 114.939C135.606 114.762 135.387 114.63 135.146 114.553C134.906 114.476 134.65 114.457 134.401 114.498L109.707 118.517C109.365 118.573 109.05 118.738 108.809 118.987C108.568 119.237 108.415 119.557 108.371 119.901L105.616 142.027L87.3173 141.936C87.0183 141.936 86.7315 142.055 86.5196 142.266C86.3077 142.477 86.1881 142.763 86.1868 143.062C86.1855 143.357 86.3002 143.641 86.5063 143.853C86.7124 144.064 86.9934 144.186 87.2886 144.193Z" fill="#E0E0E0"/>
<path d="M87.2886 144.193C87.1593 144.202 87.0296 144.181 86.9102 144.13C86.729 144.065 86.5675 143.955 86.4409 143.81C86.3143 143.665 86.2269 143.49 86.1868 143.302C86.1544 143.147 86.1537 142.988 86.1849 142.834C86.2161 142.679 86.2784 142.533 86.368 142.403C86.4577 142.274 86.5728 142.164 86.7064 142.08C86.84 141.997 86.9892 141.941 87.1449 141.917C87.8778 141.888 88.7065 141.917 89.655 141.917L105.611 141.955L105.525 142.032C106.311 135.666 107.245 128.14 108.275 119.767C108.335 119.487 108.463 119.227 108.647 119.009C108.832 118.791 109.068 118.622 109.334 118.517C109.595 118.432 109.865 118.376 110.138 118.349L110.933 118.215L114.157 117.693L120.801 116.605L127.685 115.494L131.201 114.924L132.978 114.632L133.869 114.488C134.175 114.422 134.486 114.388 134.799 114.387C135.141 114.417 135.466 114.547 135.735 114.761C136.003 114.975 136.202 115.263 136.308 115.59C136.398 115.913 136.408 116.253 136.336 116.581L136.193 117.511C136.007 118.75 135.822 119.981 135.637 121.204C135.268 123.642 134.904 126.052 134.545 128.413C134.186 130.775 133.836 133.089 133.496 135.359L133.237 137.045C133.194 137.328 133.156 137.606 133.113 137.884C133.085 138.178 133.006 138.465 132.878 138.732C132.743 138.996 132.552 139.227 132.318 139.408C132.083 139.589 131.812 139.717 131.522 139.781L129.903 140.102L107.317 144.547L92.6489 144.331L88.6874 144.26L87.6191 144.236H87.2695H87.6191H88.6491L92.6154 144.26L107.283 144.398L129.86 139.896L131.474 139.57C131.73 139.514 131.97 139.403 132.177 139.243C132.384 139.083 132.553 138.879 132.672 138.645C132.788 138.402 132.858 138.139 132.878 137.869L133.007 137.031C133.089 136.471 133.175 135.905 133.261 135.34L134.305 128.394C134.66 126.034 135.022 123.639 135.393 121.209C135.575 119.989 135.76 118.758 135.948 117.515L136.087 116.586C136.162 116.299 136.162 115.997 136.087 115.709C135.998 115.43 135.828 115.182 135.599 114.999C135.37 114.816 135.091 114.705 134.799 114.68C134.507 114.682 134.217 114.714 133.932 114.775L133.036 114.924L131.263 115.211L127.743 115.781L120.864 116.902L114.22 117.98L110.996 118.502L110.201 118.632C109.942 118.657 109.686 118.71 109.439 118.79C109.209 118.879 109.006 119.024 108.847 119.213C108.688 119.401 108.578 119.626 108.529 119.867C107.475 128.212 106.526 135.747 105.726 142.109V142.185H105.645L89.6886 142.07C88.7305 142.07 87.9018 142.042 87.188 142.07C87.0268 142.093 86.8726 142.151 86.7367 142.24C86.6007 142.33 86.4865 142.448 86.4024 142.588C86.3195 142.725 86.2676 142.879 86.2503 143.038C86.233 143.198 86.2508 143.359 86.3023 143.511C86.3539 143.663 86.438 143.802 86.5488 143.918C86.6596 144.034 86.7943 144.124 86.9437 144.183C87.0579 144.2 87.1737 144.203 87.2886 144.193Z" fill="#263238"/>
<path d="M110.507 119.216C110.574 119.216 109.913 124.998 109.027 132.116C108.141 139.235 107.369 144.997 107.298 144.988C107.226 144.978 107.896 139.206 108.783 132.087C109.669 124.969 110.44 119.206 110.507 119.216Z" fill="#263238"/>
<path d="M121.247 128.198C120.744 129.247 121.022 130.425 121.865 130.832C122.708 131.24 123.781 130.713 124.303 129.664C124.825 128.615 124.528 127.436 123.685 127.034C122.842 126.631 121.75 127.149 121.247 128.198Z" fill="white"/>
<path d="M303.987 119.158C303.979 119.221 303.963 119.282 303.939 119.34L303.767 119.863C303.613 120.318 303.393 120.988 303.082 121.851C302.478 123.575 301.568 126.061 300.365 129.103C297.264 137.041 293.557 144.728 289.276 152.096C288.069 154.189 287.01 156.365 286.11 158.606C285.297 160.709 284.728 162.898 284.414 165.131C283.945 168.925 283.945 172.762 284.414 176.556C284.764 179.803 285.233 182.409 285.535 184.22C285.688 185.106 285.808 185.806 285.894 186.294C285.932 186.519 285.961 186.697 285.98 186.831C285.993 186.892 286.002 186.955 286.004 187.018C285.984 186.958 285.968 186.897 285.956 186.836C285.928 186.706 285.889 186.529 285.846 186.299C285.75 185.82 285.611 185.121 285.439 184.235C285.108 182.438 284.61 179.837 284.237 176.57C283.748 172.754 283.738 168.892 284.208 165.073C284.515 162.823 285.083 160.616 285.899 158.496C286.801 156.235 287.864 154.042 289.08 151.934C293.351 144.571 297.074 136.903 300.217 128.993C301.443 125.965 302.377 123.489 303.01 121.774C303.326 120.926 303.57 120.265 303.738 119.8L303.934 119.288C303.958 119.216 303.987 119.158 303.987 119.158Z" fill="#263238"/>
<path d="M299.35 147.886C299.306 147.982 299.255 148.075 299.197 148.164L298.718 148.935C298.296 149.606 297.669 150.564 296.893 151.742C295.341 154.104 293.127 157.318 290.9 161.006C289.798 162.856 288.816 164.657 287.992 166.328C287.168 168 286.507 169.548 285.985 170.855C285.463 172.163 285.08 173.25 284.84 173.993C284.716 174.347 284.62 174.635 284.543 174.855C284.515 174.957 284.475 175.055 284.423 175.147C284.435 175.043 284.459 174.94 284.495 174.841C284.558 174.616 284.644 174.323 284.744 173.964C284.96 173.203 285.329 172.12 285.817 170.793C286.306 169.466 286.962 167.919 287.781 166.228C288.601 164.537 289.578 162.731 290.689 160.877C292.917 157.179 295.158 153.979 296.744 151.641L298.636 148.882L299.158 148.135C299.214 148.046 299.278 147.962 299.35 147.886Z" fill="#263238"/>
<path d="M303.939 119.158C304.059 117.99 302.794 116.826 301.692 116.414C300.557 116.081 299.35 116.081 298.215 116.414C294.886 117.207 291.857 118.943 289.489 121.414C287.121 123.884 285.516 126.985 284.864 130.344C287.939 128.823 291.102 127.486 294.335 126.339L293.788 126.497C295.357 126.181 296.837 125.528 298.128 124.583C299.419 123.639 300.49 122.425 301.266 121.027C301.518 120.467 301.856 119.95 302.267 119.494C302.478 119.27 302.753 119.118 303.054 119.058C303.356 118.998 303.668 119.033 303.949 119.158" fill="#455A64"/>
<path d="M303.949 119.149C307.005 117.035 310.763 116.192 314.43 116.797C316.244 117.117 317.965 117.832 319.471 118.893C320.977 119.954 322.231 121.333 323.143 122.933C324.022 124.549 324.486 126.357 324.496 128.196C324.505 130.035 324.058 131.848 323.196 133.472C321.5 129.951 319.685 126.286 316.533 123.977C315.79 123.441 314.957 122.948 314.54 122.128C314.061 121.17 314.257 120.016 313.841 119.039C313.333 117.836 311.924 117.482 310.626 117.415C309.328 117.348 305.539 118.55 303.949 119.13" fill="#455A64"/>
<path d="M303.867 119.091C307 118.162 310.545 119.695 312.681 122.042C314.818 124.389 315.896 127.541 316.264 130.693C316.633 133.845 316.336 137.031 316.015 140.188C313.561 136.524 311.737 132.477 310.617 128.212C310.138 126.296 309.745 124.303 308.84 122.531C308.32 121.622 307.604 120.841 306.743 120.245C305.883 119.65 304.9 119.254 303.867 119.087" fill="#455A64"/>
<path d="M303.762 119.158C306.267 117.999 307.68 115.384 308.001 112.639C308.147 111.262 307.946 109.871 307.416 108.592C306.885 107.313 306.042 106.188 304.964 105.319C303.731 106.479 302.855 107.968 302.441 109.61C302.026 111.251 302.091 112.977 302.627 114.584C303.158 116.093 304.121 117.602 303.762 119.158Z" fill="#455A64"/>
<path d="M283.738 169.969C283.674 169.85 283.621 169.725 283.58 169.595C283.48 169.346 283.36 168.973 283.164 168.503C282.8 167.545 282.206 166.204 281.453 164.57C279.383 160.327 277.02 156.233 274.383 152.317C271.792 148.367 268.92 144.61 265.789 141.074C264.845 140.001 263.816 139.004 262.714 138.094C262.412 137.85 262.091 137.629 261.756 137.433C261.633 137.375 261.514 137.308 261.401 137.232C261.53 137.276 261.657 137.327 261.78 137.385C262.126 137.57 262.458 137.781 262.771 138.018C263.902 138.904 264.953 139.886 265.914 140.954C269.092 144.464 271.991 148.216 274.584 152.178C277.239 156.099 279.593 160.216 281.626 164.494C282.383 166.146 282.934 167.512 283.269 168.47C283.451 168.949 283.556 169.322 283.643 169.576C283.686 169.704 283.718 169.836 283.738 169.969Z" fill="#263238"/>
<path d="M292.754 198.586H275.633L272.965 178.769H295.939L292.754 198.586Z" fill="#02AD24"/>
<path d="M308.796 154.98C307.067 151.268 302.622 148.844 298.54 149.174C298.98 149.393 299.363 149.711 299.658 150.104C299.953 150.496 300.153 150.952 300.241 151.435C300.402 152.401 300.488 153.378 300.5 154.357C300.868 159.047 303.886 163.047 306.78 166.75C308.816 169.351 310.866 171.967 313.299 174.204C313.007 167.536 312.586 160.47 308.796 154.98Z" fill="#455A64"/>
<path d="M298.54 149.227C301.132 147.234 304.476 146.406 307.747 146.353C311.019 146.3 314.248 147.024 317.414 147.828C319.33 148.307 321.246 148.844 322.88 149.946C324.513 151.047 325.807 152.82 325.835 154.779C323.148 151.823 318.818 151.253 314.981 150.137C312.384 149.385 309.874 148.303 307.225 147.742C304.251 147.257 301.2 147.762 298.54 149.179" fill="#455A64"/>
<path d="M298.986 148.7C297.851 147.507 298.478 144.719 299.465 143.407C300.452 142.094 302.028 141.352 303.58 140.801C305.62 140.073 307.737 139.58 309.889 139.33C309.613 140.683 308.913 141.913 307.891 142.842C306.872 143.757 305.757 144.56 304.567 145.237L298.976 148.695" fill="#455A64"/>
<path d="M288.332 147.11C285.089 148.547 282.584 151.186 280.155 153.773C283.755 152.897 287.198 151.472 290.363 149.548C291.618 148.782 292.864 147.924 294.301 147.603C295.738 147.282 297.348 147.924 298.545 148.916C296.509 145.917 291.575 145.673 288.332 147.11Z" fill="#455A64"/>
<path d="M286.804 168.326C288.62 164.158 287.853 159.105 290.157 155.191C291.925 152.192 295.182 150.401 298.425 149.146C299.177 151.402 298.818 153.936 297.865 156.106C296.912 158.276 295.398 160.173 293.803 161.936C291.594 164.374 289.195 166.63 286.799 168.886" fill="#455A64"/>
<path d="M296.993 178.769H271.389V183.229H296.993V178.769Z" fill="#02AD24"/>
<path d="M296.14 183.367C296.14 183.439 290.598 183.492 283.767 183.492C276.936 183.492 271.389 183.439 271.389 183.367C271.389 183.296 276.931 183.243 283.767 183.243C290.603 183.243 296.14 183.3 296.14 183.367Z" fill="#263238"/>
<path d="M305.098 119.326C304.251 117.742 303.255 116.243 302.124 114.847C300.981 113.448 299.464 112.403 297.75 111.834C295.441 111.159 292.96 111.695 290.66 112.38C287.966 113.183 285.336 114.186 282.79 115.379C286.152 116.644 289.847 116.71 293.252 115.566C295.015 114.967 296.725 115.044 298.574 115.254C300.825 115.508 303.642 117.592 305.098 119.326Z" fill="#455A64"/>
<path d="M243.945 145.749C239.912 150.885 238.566 157.725 239.021 164.259C241.421 155.566 246.414 147.81 253.334 142.027C255.969 139.843 259.332 138.109 262.594 138.109C255.883 137.529 248.094 140.451 243.945 145.749Z" fill="#455A64"/>
<path d="M253.315 135.436C251.064 135.603 249.004 136.744 247.145 138.018C244.3 139.972 241.627 142.439 240.386 145.682C242.906 142.716 246.119 140.416 249.739 138.987C253.359 137.557 257.276 137.042 261.143 137.486C258.69 136.25 256.046 135.235 253.315 135.436Z" fill="#455A64"/>
<path d="M259.619 127.723C258.316 128.629 257.32 130.119 257.387 131.699C257.476 132.793 257.931 133.825 258.68 134.626C259.502 135.581 260.415 136.454 261.406 137.232C262.235 133.572 263.226 129.75 264.055 126.09C262.482 126.33 260.973 126.886 259.619 127.723Z" fill="#455A64"/>
<path d="M267.255 127.374C265.45 128.457 263.996 130.039 263.068 131.929C262.211 133.845 261.856 136.241 262.934 138.032C266.023 133.413 269.355 128.961 272.917 124.696C270.948 125.405 269.052 126.301 267.255 127.374Z" fill="#455A64"/>
<path d="M273.708 133.659C271.68 133.517 269.648 133.869 267.787 134.685C265.925 135.501 264.29 136.756 263.02 138.344C264.793 137.44 266.788 137.062 268.769 137.256C273.731 137.899 278.655 138.812 283.518 139.991C282.518 138.22 281.103 136.718 279.394 135.615C277.685 134.512 275.733 133.841 273.708 133.659Z" fill="#455A64"/>
<path d="M263.49 138.032C259.686 138.243 256.362 141.17 255.035 144.739C253.708 148.307 254.163 152.355 255.595 155.881C257.028 159.406 259.38 162.482 261.866 165.366C263.111 161.054 264.366 156.743 264.917 152.326C265.468 147.91 265.047 142.219 263.49 138.032Z" fill="#455A64"/>
<g opacity="0.3">
<path opacity="0.3" d="M243.945 145.749C239.912 150.885 238.566 157.725 239.021 164.259C241.421 155.566 246.414 147.81 253.334 142.027C255.969 139.843 259.332 138.109 262.594 138.109C255.883 137.529 248.094 140.451 243.945 145.749Z" fill="black"/>
<path opacity="0.3" d="M253.315 135.436C251.064 135.603 249.004 136.744 247.145 138.018C244.3 139.972 241.627 142.439 240.386 145.682C242.906 142.716 246.119 140.416 249.739 138.987C253.359 137.557 257.276 137.042 261.143 137.486C258.69 136.25 256.046 135.235 253.315 135.436Z" fill="black"/>
<path opacity="0.3" d="M259.619 127.723C258.316 128.629 257.32 130.119 257.387 131.699C257.476 132.793 257.931 133.825 258.68 134.626C259.502 135.581 260.415 136.454 261.406 137.232C262.235 133.572 263.226 129.75 264.055 126.09C262.482 126.33 260.973 126.886 259.619 127.723Z" fill="black"/>
<path opacity="0.3" d="M267.255 127.374C265.45 128.457 263.996 130.039 263.068 131.929C262.211 133.845 261.856 136.241 262.934 138.032C266.023 133.413 269.355 128.961 272.917 124.696C270.948 125.405 269.052 126.301 267.255 127.374Z" fill="black"/>
<path opacity="0.3" d="M273.708 133.659C271.68 133.517 269.648 133.869 267.787 134.685C265.925 135.501 264.29 136.756 263.02 138.344C264.793 137.44 266.788 137.062 268.769 137.256C273.731 137.899 278.655 138.812 283.518 139.991C282.518 138.22 281.103 136.718 279.394 135.615C277.685 134.512 275.733 133.841 273.708 133.659Z" fill="black"/>
<path opacity="0.3" d="M263.49 138.032C259.686 138.243 256.362 141.17 255.035 144.739C253.708 148.307 254.163 152.355 255.595 155.881C257.028 159.406 259.38 162.482 261.866 165.366C263.111 161.054 264.366 156.743 264.917 152.326C265.468 147.91 265.047 142.219 263.49 138.032Z" fill="black"/>
</g>
<g opacity="0.2">
<path opacity="0.2" d="M308.796 154.98C307.067 151.268 302.622 148.844 298.54 149.174C298.98 149.393 299.363 149.711 299.658 150.104C299.953 150.496 300.153 150.952 300.241 151.435C300.402 152.401 300.488 153.378 300.5 154.357C300.868 159.047 303.886 163.047 306.78 166.75C308.816 169.351 310.866 171.967 313.299 174.204C313.007 167.536 312.586 160.47 308.796 154.98Z" fill="black"/>
<path opacity="0.2" d="M298.54 149.227C301.132 147.234 304.476 146.406 307.747 146.353C311.019 146.3 314.248 147.024 317.414 147.828C319.33 148.307 321.246 148.844 322.88 149.946C324.513 151.047 325.807 152.82 325.835 154.779C323.148 151.823 318.818 151.253 314.981 150.137C312.384 149.385 309.874 148.303 307.225 147.742C304.251 147.257 301.2 147.762 298.54 149.179" fill="black"/>
<path opacity="0.2" d="M298.986 148.7C297.851 147.507 298.478 144.719 299.465 143.407C300.452 142.094 302.028 141.352 303.58 140.801C305.62 140.073 307.737 139.58 309.889 139.33C309.613 140.683 308.913 141.913 307.891 142.842C306.872 143.757 305.757 144.56 304.567 145.237L298.976 148.695" fill="black"/>
<path opacity="0.2" d="M288.332 147.11C285.089 148.547 282.584 151.186 280.155 153.773C283.755 152.897 287.198 151.472 290.363 149.548C291.618 148.782 292.864 147.924 294.301 147.603C295.738 147.282 297.348 147.924 298.545 148.916C296.509 145.917 291.575 145.673 288.332 147.11Z" fill="black"/>
<path opacity="0.2" d="M286.804 168.326C288.62 164.158 287.853 159.105 290.157 155.191C291.925 152.192 295.182 150.401 298.425 149.146C299.177 151.402 298.818 153.936 297.865 156.106C296.912 158.276 295.398 160.173 293.803 161.936C291.594 164.374 289.195 166.63 286.799 168.886" fill="black"/>
</g>
<path d="M130.339 81.6985H84.2659C83.6307 81.6985 83.0215 81.9508 82.5723 82.4C82.1231 82.8492 81.8708 83.4584 81.8708 84.0936V105.085C81.8708 105.72 82.1231 106.329 82.5723 106.778C83.0215 107.227 83.6307 107.48 84.2659 107.48H103.595L107.7 112.749L111.125 107.48H130.344C130.979 107.48 131.588 107.227 132.037 106.778C132.487 106.329 132.739 105.72 132.739 105.085V84.0984C132.739 83.7831 132.678 83.4707 132.557 83.1793C132.437 82.8878 132.26 82.623 132.037 82.4C131.814 82.177 131.55 82.0003 131.258 81.8799C130.967 81.7595 130.654 81.6979 130.339 81.6985Z" fill="white"/>
<path d="M130.339 81.6984H130.569C130.794 81.7151 131.015 81.7652 131.225 81.8469C131.571 81.9778 131.881 82.1878 132.131 82.4601C132.482 82.8373 132.702 83.3178 132.758 83.8301C132.801 86.1151 132.792 89.4395 132.806 93.6502C132.806 95.7531 132.806 98.0812 132.806 100.601C132.806 101.861 132.806 103.173 132.806 104.529C132.821 104.878 132.805 105.227 132.758 105.573C132.688 105.929 132.539 106.265 132.322 106.555C132.103 106.856 131.82 107.104 131.492 107.28C131.165 107.457 130.802 107.558 130.43 107.576H111.096L111.192 107.523L107.772 112.792L107.681 112.931L107.58 112.802L103.47 107.532L103.566 107.58H84.9797C84.6444 107.58 84.3282 107.58 83.9737 107.58C83.4539 107.521 82.9654 107.301 82.5758 106.952C82.1861 106.603 81.9147 106.141 81.799 105.631C81.7408 105.3 81.7199 104.965 81.7367 104.63V103.671C81.7367 101.069 81.7367 98.5139 81.7367 96.007V88.5773C81.7367 87.3637 81.7367 86.1662 81.7367 84.9846V84.0984C81.737 83.6367 81.8645 83.1841 82.1054 82.7903C82.3463 82.3964 82.6911 82.0766 83.1019 81.8661C83.3707 81.7261 83.663 81.6368 83.9642 81.6026C84.2659 81.5739 84.5438 81.6026 84.8312 81.6026H89.8706H96.2417H107.686L124.255 81.6409L128.758 81.6649H129.932H130.329H129.932H128.758L124.255 81.6888L107.686 81.7272H96.2417H84.8408C84.5582 81.7272 84.2659 81.7272 83.9977 81.7272C83.7245 81.7563 83.4594 81.8376 83.2169 81.9667C82.845 82.1588 82.5331 82.4494 82.3152 82.8068C82.0973 83.1641 81.9816 83.5744 81.981 83.993V88.4719C81.981 90.891 81.981 93.3676 81.981 95.8825V104.539C81.9651 104.859 81.9844 105.18 82.0385 105.497C82.1088 105.801 82.2407 106.087 82.426 106.339C82.6114 106.59 82.8463 106.801 83.1163 106.958C83.386 107.117 83.6865 107.216 83.9977 107.25C84.3043 107.279 84.6492 107.25 84.9558 107.25H103.638L103.671 107.298L107.777 112.567H107.585L111.01 107.298L111.044 107.245H111.106H130.43C130.943 107.222 131.433 107.029 131.824 106.696C132.215 106.363 132.483 105.908 132.586 105.406C132.631 105.071 132.647 104.732 132.633 104.395C132.633 103.039 132.633 101.727 132.633 100.467C132.633 97.9471 132.633 95.619 132.633 93.5161C132.633 89.3102 132.667 85.9714 132.633 83.7008C132.586 83.2724 132.424 82.8647 132.164 82.5207C131.905 82.1768 131.557 81.9092 131.158 81.7463C130.889 81.6913 130.613 81.6751 130.339 81.6984Z" fill="#263238"/>
<path d="M95.0728 86.2875H90.4837C90.1451 86.2875 89.8706 86.562 89.8706 86.9006V90.1772C89.8706 90.5158 90.1451 90.7903 90.4837 90.7903H95.0728C95.4115 90.7903 95.686 90.5158 95.686 90.1772V86.9006C95.686 86.562 95.4115 86.2875 95.0728 86.2875Z" fill="#02AD24"/>
<path d="M89.9664 86.4073L92.1795 88.7689C92.2979 88.9293 92.4665 89.0456 92.6585 89.0994C92.7787 89.1177 92.9015 89.1043 93.0149 89.0606C93.1283 89.0169 93.2283 88.9445 93.3052 88.8503C93.7076 88.4384 94.0908 88.012 94.4836 87.5953C94.8764 87.1785 95.2309 86.8049 95.5997 86.4073C95.6076 86.3953 95.6111 86.381 95.6096 86.3668C95.6081 86.3525 95.6018 86.3392 95.5917 86.3291C95.5816 86.319 95.5683 86.3127 95.554 86.3112C95.5398 86.3097 95.5255 86.3132 95.5135 86.3211L93.401 88.5725C93.304 88.6982 93.1913 88.8109 93.0657 88.9078C92.7495 89.109 92.4813 88.9078 92.2705 88.6827C91.8681 88.2611 91.4705 87.8348 91.0729 87.4085L90.0574 86.3211C90.0047 86.2684 89.9185 86.3498 89.9712 86.4073H89.9664Z" fill="white"/>
<path d="M89.9424 90.7616L91.7196 88.7401L91.9687 88.4575C92.0214 88.4 91.9352 88.3138 91.8873 88.3713C91.2933 89.0467 90.6993 89.7173 90.1101 90.3928L89.8562 90.6754C89.8083 90.7329 89.8897 90.8191 89.9424 90.7616Z" fill="#02AD24"/>
<path d="M95.595 90.5844L93.9327 88.6683L93.6932 88.3904C93.6405 88.3282 93.5591 88.3904 93.607 88.4719L95.2692 90.388C95.3507 90.4838 95.4321 90.5748 95.5087 90.6706C95.5854 90.7664 95.6477 90.6419 95.595 90.5844Z" fill="white"/>
<path d="M99.9781 90.0718V88.5821L99.2452 89.8084H98.9865L98.2584 88.6108V90.0718H97.7171V87.5857H98.1961L99.1158 89.1473L100.031 87.6001H100.51V90.0862L99.9781 90.0718Z" fill="#263238"/>
<path d="M102.948 89.2719H101.511C101.54 89.391 101.612 89.4953 101.712 89.5658C101.813 89.6362 101.935 89.668 102.057 89.6551C102.145 89.6593 102.233 89.6453 102.316 89.614C102.398 89.5827 102.473 89.5347 102.536 89.4731L102.833 89.7941C102.732 89.8996 102.608 89.9817 102.472 90.0347C102.335 90.0876 102.189 90.1101 102.043 90.1006C101.905 90.1147 101.766 90.0997 101.635 90.0568C101.503 90.0139 101.382 89.944 101.279 89.8515C101.176 89.759 101.094 89.646 101.037 89.5198C100.981 89.3936 100.951 89.2569 100.951 89.1186C100.946 88.985 100.97 88.8519 101.02 88.728C101.07 88.6041 101.146 88.4921 101.242 88.3991C101.338 88.3062 101.453 88.2344 101.578 88.1884C101.704 88.1423 101.837 88.1231 101.971 88.1318C102.103 88.1289 102.235 88.1535 102.357 88.204C102.48 88.2546 102.59 88.3299 102.682 88.4254C102.774 88.5208 102.845 88.6342 102.891 88.7585C102.937 88.8827 102.956 89.0152 102.948 89.1474C102.948 89.1474 102.948 89.2288 102.948 89.2719ZM101.511 88.951H102.469C102.469 88.8239 102.419 88.7021 102.329 88.6122C102.239 88.5224 102.117 88.4719 101.99 88.4719C101.863 88.4719 101.741 88.5224 101.651 88.6122C101.561 88.7021 101.511 88.8239 101.511 88.951Z" fill="#263238"/>
<path d="M103.12 89.8946L103.307 89.497C103.507 89.618 103.735 89.6825 103.968 89.6838C104.227 89.6838 104.323 89.612 104.323 89.5066C104.323 89.1952 103.168 89.5066 103.168 88.7497C103.168 88.3905 103.494 88.1318 104.05 88.1318C104.306 88.1277 104.559 88.1852 104.788 88.2994L104.601 88.6923C104.433 88.5982 104.242 88.5502 104.05 88.5533C103.801 88.5533 103.695 88.63 103.695 88.7306C103.695 89.0563 104.85 88.7306 104.85 89.4922C104.85 89.8467 104.519 90.1006 103.949 90.1006C103.659 90.1078 103.373 90.0366 103.12 89.8946Z" fill="#263238"/>
<path d="M105.008 89.8947L105.19 89.4971C105.391 89.6175 105.621 89.682 105.856 89.6839C106.11 89.6839 106.205 89.612 106.205 89.5067C106.205 89.1953 105.051 89.5067 105.051 88.7498C105.051 88.3905 105.377 88.1319 105.937 88.1319C106.192 88.1272 106.443 88.1848 106.67 88.2995L106.488 88.6923C106.32 88.5989 106.13 88.551 105.937 88.5534C105.688 88.5534 105.583 88.63 105.583 88.7306C105.583 89.0564 106.737 88.7306 106.737 89.4923C106.737 89.8468 106.407 90.1007 105.832 90.1007C105.544 90.1072 105.259 90.0361 105.008 89.8947Z" fill="#263238"/>
<path d="M108.768 88.9797V90.0719H108.246V89.8323C108.183 89.9256 108.096 89.9999 107.994 90.0472C107.891 90.0944 107.778 90.1129 107.666 90.1006C107.216 90.1006 106.953 89.8515 106.953 89.521C106.953 89.1905 107.187 88.9509 107.772 88.9509H108.217C108.217 88.7114 108.074 88.5725 107.777 88.5725C107.579 88.5711 107.386 88.6332 107.226 88.7497L107.029 88.3617C107.275 88.2046 107.562 88.1245 107.853 88.1318C108.428 88.1318 108.768 88.4048 108.768 88.9797ZM108.213 89.4587V89.2623H107.834C107.575 89.2623 107.489 89.3581 107.489 89.4875C107.489 89.6168 107.609 89.7174 107.805 89.7174C107.892 89.7251 107.978 89.705 108.052 89.6602C108.126 89.6154 108.184 89.5482 108.217 89.4683L108.213 89.4587Z" fill="#263238"/>
<path d="M111.259 88.1605V89.7509C111.273 89.8937 111.254 90.0376 111.204 90.1721C111.154 90.3065 111.075 90.4281 110.972 90.5279C110.869 90.6276 110.745 90.703 110.609 90.7485C110.473 90.7939 110.328 90.8082 110.186 90.7904C109.847 90.8071 109.511 90.7148 109.228 90.5269L109.448 90.1293C109.646 90.27 109.882 90.3454 110.124 90.3449C110.517 90.3449 110.684 90.1677 110.684 89.8228V89.7413C110.607 89.8227 110.513 89.8863 110.409 89.9277C110.305 89.9691 110.193 89.9872 110.081 89.9808C109.836 89.9808 109.6 89.8834 109.427 89.7101C109.254 89.5367 109.156 89.3015 109.156 89.0563C109.156 88.8111 109.254 88.576 109.427 88.4026C109.6 88.2292 109.836 88.1318 110.081 88.1318C110.2 88.1252 110.319 88.1464 110.429 88.1938C110.539 88.2412 110.636 88.3134 110.713 88.4048V88.1605H111.259ZM110.713 89.0563C110.718 88.9549 110.692 88.8545 110.638 88.7682C110.585 88.6819 110.507 88.6138 110.414 88.5728C110.321 88.5318 110.218 88.5198 110.118 88.5385C110.019 88.5571 109.927 88.6055 109.855 88.6772C109.783 88.749 109.735 88.8408 109.716 88.9405C109.698 89.0403 109.71 89.1433 109.751 89.2362C109.792 89.329 109.86 89.4072 109.946 89.4606C110.032 89.514 110.133 89.5401 110.234 89.5353C110.361 89.5353 110.483 89.4849 110.573 89.395C110.663 89.3052 110.713 89.1834 110.713 89.0563Z" fill="#263238"/>
<path d="M113.635 89.272H112.198C112.228 89.391 112.299 89.4954 112.399 89.5658C112.5 89.6363 112.622 89.668 112.744 89.6552C112.832 89.6597 112.92 89.6458 113.003 89.6145C113.085 89.5831 113.16 89.535 113.223 89.4732L113.52 89.7941C113.419 89.8997 113.295 89.9818 113.159 90.0347C113.022 90.0877 112.876 90.1102 112.73 90.1007C112.593 90.114 112.454 90.0986 112.323 90.0553C112.192 90.0121 112.072 89.9421 111.969 89.8496C111.867 89.7572 111.785 89.6445 111.729 89.5186C111.673 89.3928 111.643 89.2566 111.642 89.1187C111.638 88.9855 111.662 88.8529 111.712 88.7293C111.762 88.6057 111.837 88.494 111.932 88.4011C112.028 88.3082 112.142 88.2363 112.267 88.1899C112.392 88.1436 112.525 88.1238 112.658 88.1319C112.79 88.1265 112.921 88.1485 113.044 88.1963C113.167 88.2442 113.279 88.317 113.373 88.4101C113.466 88.5032 113.54 88.6146 113.588 88.7374C113.637 88.8601 113.659 88.9916 113.654 89.1235C113.645 89.1474 113.64 89.2289 113.635 89.272ZM112.198 88.951H113.156C113.156 88.824 113.106 88.7021 113.016 88.6123C112.926 88.5225 112.804 88.472 112.677 88.472C112.55 88.472 112.428 88.5225 112.338 88.6123C112.249 88.7021 112.198 88.824 112.198 88.951Z" fill="#263238"/>
<path d="M113.827 89.8946L114.014 89.497C114.215 89.6181 114.445 89.6827 114.679 89.6838C114.933 89.6838 115.029 89.612 115.029 89.5066C115.029 89.1952 113.875 89.5066 113.875 88.7497C113.875 88.3905 114.2 88.1318 114.761 88.1318C115.015 88.1277 115.267 88.1853 115.494 88.2994L115.312 88.6923C115.143 88.5992 114.953 88.5513 114.761 88.5533C114.512 88.5533 114.402 88.63 114.402 88.7306C114.402 89.0563 115.556 88.7306 115.556 89.4922C115.556 89.8467 115.23 90.1006 114.656 90.1006C114.366 90.1071 114.08 90.036 113.827 89.8946Z" fill="#263238"/>
<path d="M116.787 88.8313C116.772 88.5594 116.838 88.2893 116.978 88.0557C117.118 87.8221 117.325 87.6359 117.572 87.5211C117.819 87.4063 118.094 87.3681 118.363 87.4117C118.632 87.4552 118.881 87.5783 119.079 87.7652C119.277 87.952 119.415 88.194 119.474 88.4597C119.533 88.7255 119.51 89.0029 119.41 89.256C119.31 89.509 119.136 89.7262 118.911 89.8794C118.686 90.0325 118.42 90.1146 118.148 90.1151C117.973 90.1248 117.798 90.0989 117.634 90.0388C117.469 89.9787 117.319 89.8858 117.191 89.7657C117.064 89.6455 116.963 89.5007 116.893 89.3401C116.824 89.1794 116.788 89.0063 116.787 88.8313ZM118.924 88.8313C118.921 88.6773 118.873 88.5276 118.785 88.401C118.697 88.2744 118.574 88.1765 118.431 88.1198C118.288 88.063 118.131 88.0499 117.98 88.082C117.83 88.1141 117.692 88.1901 117.584 88.3003C117.477 88.4105 117.404 88.5501 117.376 88.7015C117.347 88.8528 117.364 89.0092 117.424 89.151C117.485 89.2927 117.585 89.4135 117.714 89.4981C117.843 89.5827 117.994 89.6274 118.148 89.6264C118.252 89.6285 118.355 89.6092 118.452 89.5697C118.548 89.5302 118.635 89.4714 118.708 89.3969C118.781 89.3224 118.837 89.2337 118.874 89.1364C118.911 89.0392 118.928 88.9353 118.924 88.8313Z" fill="#263238"/>
<path d="M120.418 88.0552H119.623V87.5762H121.788V88.0552H120.993V90.0719H120.418V88.0552Z" fill="#263238"/>
<path d="M124.255 88.4863C124.255 89.0419 123.838 89.3868 123.173 89.3868H122.694V90.0718H122.109V87.5857H123.182C123.838 87.5857 124.255 87.9306 124.255 88.4863ZM123.671 88.4863C123.671 88.2132 123.494 88.0551 123.144 88.0551H122.665V88.9174H123.144C123.494 88.9174 123.671 88.7593 123.671 88.4863Z" fill="#263238"/>
<path d="M89.5352 97.3435C89.5352 94.9963 90.8382 93.6646 92.5819 93.6646C94.3255 93.6646 95.6333 94.9963 95.6333 97.3435C95.6333 99.6907 94.3399 101.022 92.5819 101.022C90.8238 101.022 89.5352 99.6859 89.5352 97.3435ZM93.9758 97.3435C93.9758 95.7292 93.4058 95.0585 92.5819 95.0585C91.7579 95.0585 91.2023 95.7292 91.2023 97.3435C91.2023 98.9578 91.7723 99.6285 92.5819 99.6285C93.3914 99.6285 93.9806 98.9578 93.9806 97.3435H93.9758Z" fill="#263238"/>
<path d="M102.392 98.8382C102.392 100.179 101.195 101.023 99.3889 101.023C97.583 101.023 96.3997 100.179 96.3997 98.8382C96.3957 98.4839 96.4956 98.1362 96.6872 97.8382C96.8788 97.5402 97.1536 97.3049 97.4776 97.1616C97.2256 97.0161 97.0166 96.8065 96.8719 96.5541C96.7272 96.3017 96.6519 96.0154 96.6536 95.7245C96.6536 94.4742 97.7698 93.6886 99.3889 93.6886C101.008 93.6886 102.139 94.4742 102.139 95.7245C102.139 96.0164 102.063 96.3032 101.916 96.5557C101.77 96.8082 101.559 97.0173 101.305 97.1616C101.632 97.3019 101.91 97.5362 102.103 97.8347C102.297 98.1332 102.398 98.4824 102.392 98.8382ZM100.73 98.7855C100.73 98.1579 100.208 97.7699 99.3889 97.7699C98.5698 97.7699 98.0668 98.1579 98.0668 98.7855C98.0668 99.413 98.5745 99.8154 99.3889 99.8154C100.203 99.8154 100.73 99.4178 100.73 98.7855ZM98.2919 95.7676C98.2919 96.3089 98.7182 96.6442 99.3889 96.6442C100.06 96.6442 100.505 96.3089 100.505 95.7676C100.505 95.2263 100.074 94.8958 99.3889 94.8958C98.7039 94.8958 98.2919 95.2119 98.2919 95.7676Z" fill="#263238"/>
<path d="M109.104 98.8382C109.104 100.179 107.901 101.023 106.095 101.023C104.289 101.023 103.106 100.179 103.106 98.8382C103.102 98.4839 103.202 98.1362 103.394 97.8382C103.585 97.5402 103.86 97.3049 104.184 97.1616C103.932 97.0161 103.723 96.8065 103.578 96.5541C103.434 96.3017 103.358 96.0154 103.36 95.7245C103.36 94.4742 104.481 93.6886 106.095 93.6886C107.71 93.6886 108.85 94.4742 108.85 95.7245C108.85 96.0162 108.772 96.3027 108.626 96.555C108.48 96.8073 108.269 97.0166 108.016 97.1616C108.343 97.3025 108.62 97.5369 108.814 97.8352C109.007 98.1336 109.108 98.4826 109.104 98.8382ZM107.437 98.7855C107.437 98.1579 106.919 97.7699 106.095 97.7699C105.271 97.7699 104.773 98.1579 104.773 98.7855C104.773 99.413 105.281 99.8154 106.095 99.8154C106.91 99.8154 107.437 99.4178 107.437 98.7855ZM104.998 95.7676C104.998 96.3089 105.425 96.6442 106.095 96.6442C106.766 96.6442 107.211 96.3089 107.211 95.7676C107.211 95.2263 106.78 94.8958 106.095 94.8958C105.41 94.8958 104.998 95.2119 104.998 95.7676Z" fill="#263238"/>
<path d="M112.6 93.7892V100.903H110.953V95.1113H109.516V93.7892H112.6Z" fill="#263238"/>
<path d="M119.154 99.5615V100.903H113.779V99.8345L116.519 97.243C117.151 96.6442 117.261 96.2849 117.261 95.9304C117.261 95.3747 116.878 95.049 116.126 95.049C115.841 95.0374 115.557 95.096 115.3 95.2196C115.043 95.3432 114.82 95.5281 114.651 95.758L113.453 94.9867C113.779 94.5507 114.207 94.2018 114.7 93.9712C115.194 93.7405 115.736 93.6352 116.279 93.6646C117.86 93.6646 118.919 94.479 118.919 95.7676C118.919 96.4621 118.727 97.0897 117.731 98.0142L116.093 99.5615H119.154Z" fill="#263238"/>
<path d="M125.089 98.728C125.089 99.9255 124.164 101.023 122.143 101.023C121.182 101.04 120.238 100.775 119.427 100.261L120.069 99.001C120.661 99.4245 121.372 99.6493 122.1 99.6429C122.924 99.6429 123.431 99.3076 123.431 98.728C123.431 98.1483 123.034 97.8513 122.1 97.8513H121.348V96.7639L122.813 95.1113H119.786V93.7892H124.763V94.8574L123.158 96.6825C124.437 96.8885 125.089 97.6789 125.089 98.728Z" fill="#263238"/>
</svg>
