<svg width="28" height="29" viewBox="0 0 28 29" fill="none" xmlns="http://www.w3.org/2000/svg">
<path fill-rule="evenodd" clip-rule="evenodd" d="M23.8874 22.8939C23.8874 27.1869 18.0002 27.6831 13.5731 27.6831L13.2563 27.6828C10.4357 27.676 3.2562 27.4979 3.2562 22.8679C3.2562 18.6625 8.90678 18.1005 13.3002 18.0793L13.8899 18.079C16.7103 18.0858 23.8874 18.2639 23.8874 22.8939ZM13.5731 20.0324C8.02325 20.0324 5.2099 20.9858 5.2099 22.8679C5.2099 24.7669 8.02325 25.7294 13.5731 25.7294C19.1216 25.7294 21.9337 24.776 21.9337 22.8939C21.9337 20.9949 19.1216 20.0324 13.5731 20.0324ZM13.5731 1.80246C17.3867 1.80246 20.4879 4.90495 20.4879 8.71859C20.4879 12.5322 17.3867 15.6334 13.5731 15.6334H13.5314C9.72558 15.6217 6.64262 12.5179 6.65561 8.71468C6.65561 4.90495 9.75814 1.80246 13.5731 1.80246ZM13.5731 3.66239C10.7845 3.66239 8.51555 5.92999 8.51555 8.71859C8.50646 11.4981 10.7584 13.7644 13.5353 13.7748L13.5731 14.7048V13.7748C16.3604 13.7748 18.628 11.5059 18.628 8.71859C18.628 5.92999 16.3604 3.66239 13.5731 3.66239Z" fill="#9E9E9E"/>
</svg>
