<svg width="302" height="283" viewBox="0 0 302 283" fill="none" xmlns="http://www.w3.org/2000/svg">
<g clip-path="url(#clip0_246_9014)">
<path d="M256.73 133.794C197.73 99.7321 102.381 99.7321 43.7609 133.794C-14.8591 167.856 -14.545 223.094 44.451 257.156C103.447 291.218 198.807 291.224 257.426 257.156C316.045 223.088 315.733 167.862 256.73 133.794Z" fill="#F5F5F5"/>
<path d="M152.941 27.255L154.935 26.098L176.002 38.217V40.524L152.941 27.255Z" fill="#F5F5F5"/>
<path d="M152.941 27.255L176.003 40.525V43.152L152.935 29.901L152.941 27.255Z" fill="#E0E0E0"/>
<path d="M178.189 41.7641L180.183 40.6071L201.25 52.7261V55.0261L178.189 41.7641Z" fill="#F5F5F5"/>
<path d="M178.189 41.764L201.251 55.027V57.66L178.183 44.41L178.189 41.764Z" fill="#E0E0E0"/>
<path d="M153.056 5.11403L155.044 3.95703L154.929 82.404L152.935 83.561L153.056 5.11403Z" fill="#F0F0F0"/>
<path d="M152.935 83.56L154.929 82.403L177.876 95.577L175.885 96.733L152.935 83.56Z" fill="#F5F5F5"/>
<path d="M150.768 1.15698L178.304 16.977L178.17 100.71L150.634 84.89L150.768 1.15698ZM175.884 96.734L176.005 18.287L153.056 5.11398L152.935 83.561L175.884 96.734Z" fill="#E0E0E0"/>
<path d="M150.768 1.157L152.762 0L180.298 15.82L178.308 16.977L150.768 1.157Z" fill="#F5F5F5"/>
<path d="M178.304 16.98L180.298 15.823L180.164 99.537L178.17 100.694L178.304 16.98Z" fill="#F0F0F0"/>
<path d="M178.304 19.6229L180.298 18.4659L180.177 96.9129L178.183 98.0699L178.304 19.6229Z" fill="#F0F0F0"/>
<path d="M178.183 98.07L180.177 96.913L203.124 110.087L201.133 111.243L178.183 98.07Z" fill="#F5F5F5"/>
<path d="M176.016 15.666L203.552 31.486L203.418 115.219L175.882 99.399L176.016 15.666ZM201.132 111.243L201.253 32.796L178.304 19.623L178.183 98.07L201.132 111.243Z" fill="#E0E0E0"/>
<path d="M176.016 15.666L178.01 14.509L205.546 30.329L203.556 31.486L176.016 15.666Z" fill="#F5F5F5"/>
<path d="M203.552 31.489L205.546 30.332L205.412 114.046L203.418 115.203L203.552 31.489Z" fill="#F0F0F0"/>
<path d="M143.828 60.473C143.526 59.9391 143.084 59.4974 142.55 59.195L122.096 47.255C120.587 46.394 116.982 47.568 116.982 49.994V72.18C116.983 72.7744 117.14 73.358 117.439 73.872C117.737 74.386 118.166 74.812 118.682 75.107L131.99 82.713L129.69 81.396L130.796 84.528C130.813 84.5721 130.847 84.6081 130.889 84.6283C130.932 84.6486 130.981 84.6517 131.026 84.637C131.226 84.537 132.087 84.074 132.586 83.749H132.618C132.635 83.7356 132.65 83.7206 132.663 83.704L132.931 83.269L139.125 87.021C139.623 87.339 140.196 87.5186 140.786 87.5414C141.377 87.5642 141.962 87.4293 142.483 87.1507C143.004 86.872 143.441 86.4596 143.749 85.956C144.058 85.4523 144.226 84.8755 144.238 84.285V62.122C144.243 61.5466 144.102 60.9794 143.829 60.473H143.828Z" fill="#02AD24"/>
<path opacity="0.2" d="M132.738 83.695C132.725 83.7116 132.71 83.7266 132.693 83.74H132.661C132.161 84.066 131.3 84.533 131.101 84.628C131.145 84.6197 131.184 84.5946 131.21 84.558L132.278 82.824L132.067 82.703L133.007 83.24L132.738 83.695Z" fill="white"/>
<path opacity="0.4" d="M140.504 62.378C140.287 61.9416 139.981 61.5561 139.604 61.247C139.475 61.1425 139.339 61.0485 139.195 60.966L118.739 49.025C118.568 48.9277 118.374 48.877 118.177 48.878C117.981 48.879 117.787 48.9316 117.617 49.0306C117.447 49.1295 117.306 49.2714 117.208 49.4421C117.11 49.6127 117.058 49.8061 117.058 50.003C117.058 47.574 120.637 46.403 122.171 47.261L142.625 59.201C143.159 59.5033 143.601 59.9451 143.903 60.479L140.504 62.378Z" fill="white"/>
<path opacity="0.2" d="M140.881 86.0401V63.886C140.891 63.7529 140.891 63.6192 140.881 63.4861C140.826 63.0985 140.707 62.7227 140.529 62.3741L143.878 60.4561C144.16 60.9601 144.31 61.5274 144.313 62.1051V84.259C144.301 84.8496 144.133 85.4263 143.824 85.93C143.516 86.4337 143.079 86.8461 142.558 87.1247C142.037 87.4034 141.452 87.5383 140.861 87.5155C140.271 87.4927 139.698 87.313 139.2 86.9951C139.37 87.0935 139.562 87.1457 139.758 87.1464C139.954 87.1472 140.146 87.0965 140.317 86.9994C140.487 86.9023 140.629 86.7622 140.728 86.5932C140.827 86.4241 140.88 86.232 140.881 86.0361V86.0401Z" fill="white"/>
<path d="M133.492 70.732C134.014 69.9484 134.276 69.02 134.24 68.079C134.233 67.7667 134.207 67.4552 134.163 67.146C134.102 66.714 134.01 66.2869 133.888 65.868C133.659 65.0649 133.349 64.2875 132.961 63.548C132.84 63.312 132.712 63.081 132.571 62.848C132.302 62.3999 132.005 61.9687 131.683 61.557C131.491 61.314 131.283 61.078 131.083 60.857C130.48 60.1989 129.782 59.6344 129.012 59.182C125.012 56.868 122.492 60.396 124.487 65.535L126.14 69.799L128.965 77.105L133.492 70.732ZM131.574 66.68C131.574 68.297 130.43 68.949 129.017 68.137C128.65 67.9174 128.316 67.6463 128.026 67.332L127.956 67.249C127.601 66.8491 127.3 66.4043 127.061 65.926C126.831 65.4778 126.663 65.0005 126.561 64.507C126.509 64.2545 126.481 63.9977 126.478 63.74C126.478 62.123 127.635 61.477 129.035 62.289C129.402 62.5085 129.736 62.7796 130.026 63.094C130.232 63.3172 130.42 63.5566 130.588 63.81C130.717 63.9956 130.832 64.1901 130.933 64.392C131.178 64.8413 131.357 65.3236 131.464 65.824C131.531 66.105 131.567 66.3922 131.573 66.681L131.574 66.68Z" fill="white"/>
<path d="M113.192 150.207C106.647 154.752 99.271 157.877 93.799 163.994C83.572 175.384 83.3479 193.71 91.3699 206.736C99.3919 219.762 114.317 227.586 129.51 229.376C145.451 231.255 162.178 226.819 174.681 216.79C187.184 206.761 195.138 191.013 195.138 174.956C195.138 158.899 186.905 142.927 173.463 134.156C161.197 126.156 143.575 123.872 131.277 133.025C125.058 137.653 120.91 144.486 114.703 149.125C114.202 149.498 113.697 149.856 113.192 150.207Z" fill="#02AD24"/>
<path opacity="0.3" d="M113.192 150.207C106.647 154.752 99.271 157.877 93.799 163.994C83.572 175.384 83.3479 193.71 91.3699 206.736C99.3919 219.762 114.317 227.586 129.51 229.376C145.451 231.255 162.178 226.819 174.681 216.79C187.184 206.761 195.138 191.013 195.138 174.956C195.138 158.899 186.905 142.927 173.463 134.156C161.197 126.156 143.575 123.872 131.277 133.025C125.058 137.653 120.91 144.486 114.703 149.125C114.202 149.498 113.697 149.856 113.192 150.207Z" fill="black"/>
<path opacity="0.1" d="M115.863 216.932C115.856 216.821 115.871 216.71 115.908 216.606C116.452 213.056 118.09 209.764 120.593 207.189C123.097 204.614 126.341 202.885 129.874 202.241C136.199 201.033 142.259 198.713 147.774 195.389C151.679 193.024 155.374 190.129 159.765 188.844C164.032 187.62 168.588 187.886 172.683 189.598C170.762 187.646 168.345 186.257 165.691 185.581C163.038 184.905 160.25 184.968 157.63 185.763C161.13 180.413 164.201 174.648 165.402 168.371C166.603 162.094 165.754 155.21 161.97 150.058C160.356 147.863 158.275 146.054 155.877 144.759C153.48 143.465 150.825 142.718 148.105 142.573C145.384 142.427 142.665 142.887 140.143 143.918C137.621 144.949 135.359 146.527 133.52 148.537C129.774 152.637 127.659 158.406 125.211 163.392C123.44 166.965 121.611 170.628 118.698 173.35C114.298 177.466 107.979 178.95 103.415 182.887C98.25 187.361 96.015 194.482 95.994 201.308C96.079 205.915 96.7511 210.492 97.994 214.929C103.341 220.03 109.717 223.929 116.694 226.364C115.677 223.329 115.394 220.096 115.869 216.93L115.863 216.932Z" fill="black"/>
<path d="M186.582 172.757C186.379 161.673 182.252 151.021 174.935 142.693C167.618 134.365 157.585 128.901 146.62 127.273C145.098 127.423 143.588 127.677 142.101 128.034C153.629 128.647 164.498 133.602 172.521 141.903C180.544 150.204 185.127 161.235 185.348 172.777C185.636 187.715 178.317 202.94 165.795 213.506C155.977 221.815 142.932 227.274 128.588 229.255L129.508 229.37C130.786 229.523 132.065 229.632 133.388 229.702C146.127 227.228 157.677 221.974 166.593 214.451C179.41 203.649 186.882 188.063 186.582 172.757Z" fill="white"/>
<path d="M98.311 214.138C98.7613 216.502 99.0178 218.898 99.078 221.303L100.778 220.664C101.581 220.366 102.453 220.309 103.288 220.5C104.123 220.691 104.884 221.121 105.478 221.738L105.561 221.828C105.865 222.145 106.28 222.334 106.719 222.354C107.158 222.374 107.588 222.225 107.92 221.937C108.098 221.782 108.242 221.592 108.344 221.378C108.445 221.165 108.501 220.933 108.508 220.697L108.738 213.468L98.311 214.138Z" fill="#916160"/>
<path d="M104.869 241.028C101.341 244.799 94.847 248.097 90.13 244.863L90.661 246.063C95.378 249.263 101.872 245.986 105.4 242.228C108.928 238.47 106.64 235.836 109.81 232.493C111.007 231.346 111.945 229.955 112.559 228.415C112.418 228.057 112.284 227.584 112.118 227.047C111.43 228.617 110.471 230.053 109.286 231.291C106.116 234.643 108.398 237.257 104.869 241.028Z" fill="white"/>
<path d="M110.379 223.101C109.836 222.334 109.458 221.464 109.267 220.544C109.235 220.328 109.156 220.122 109.035 219.941C108.914 219.76 108.754 219.608 108.567 219.496L108.529 220.704C108.518 221.041 108.408 221.367 108.213 221.641C108.017 221.916 107.745 222.126 107.431 222.247C107.116 222.368 106.773 222.393 106.444 222.32C106.115 222.246 105.815 222.078 105.582 221.835L105.499 221.745C104.903 221.123 104.138 220.69 103.298 220.499C102.458 220.308 101.581 220.368 100.775 220.671L99.049 221.31C98.7896 221.406 98.5668 221.581 98.412 221.81C98.2572 222.039 98.1782 222.311 98.186 222.588C98.295 227.535 95.986 234.093 93.565 237.711C91.072 238.746 88.918 242.141 90.018 244.633L90.127 244.882C94.844 248.082 101.338 244.799 104.866 241.047C108.394 237.295 106.106 234.655 109.283 231.312C110.468 230.074 111.427 228.638 112.115 227.068C111.722 225.671 111.137 224.335 110.376 223.099L110.379 223.101Z" fill="#02AD24"/>
<path d="M103.476 230.252C103.616 230.31 103.773 230.313 103.916 230.261C104.058 230.208 104.176 230.105 104.246 229.97C104.316 229.835 104.333 229.679 104.293 229.532C104.253 229.386 104.16 229.259 104.032 229.178C102.998 228.594 101.831 228.288 100.644 228.288C99.4575 228.288 98.2906 228.594 97.257 229.178C97.148 229.568 97.04 229.958 96.918 230.341C97.9094 229.759 99.0354 229.444 100.185 229.428C101.335 229.413 102.469 229.697 103.476 230.252Z" fill="white"/>
<path d="M104.345 227.574C104.415 227.61 104.492 227.633 104.57 227.64C104.649 227.647 104.728 227.638 104.804 227.614C104.879 227.591 104.949 227.552 105.009 227.501C105.07 227.451 105.12 227.388 105.156 227.318C105.193 227.248 105.215 227.172 105.222 227.093C105.229 227.014 105.221 226.935 105.197 226.86C105.173 226.784 105.135 226.714 105.084 226.654C105.033 226.593 104.971 226.543 104.901 226.507C103.821 225.918 102.608 225.614 101.378 225.624C100.148 225.634 98.9404 225.957 97.87 226.564C97.8 226.964 97.717 227.369 97.627 227.772C98.6292 227.148 99.7791 226.801 100.959 226.766C102.139 226.731 103.308 227.01 104.345 227.574Z" fill="white"/>
<path d="M102.523 232.91C102.593 232.946 102.67 232.969 102.748 232.976C102.827 232.983 102.906 232.974 102.982 232.95C103.057 232.927 103.127 232.888 103.188 232.838C103.248 232.787 103.298 232.725 103.335 232.654C103.371 232.584 103.393 232.508 103.4 232.429C103.407 232.35 103.399 232.271 103.375 232.196C103.351 232.12 103.313 232.051 103.262 231.99C103.211 231.929 103.149 231.88 103.079 231.843C102.069 231.272 100.931 230.966 99.7705 230.954C98.6103 230.942 97.4659 231.224 96.444 231.773C96.297 232.195 96.1371 232.604 95.9771 233.007C96.9666 232.426 98.0899 232.112 99.2372 232.095C100.385 232.078 101.517 232.359 102.523 232.91Z" fill="white"/>
<path d="M93.567 237.711C91.074 238.746 88.92 242.141 90.02 244.633L90.1289 244.882C94.7819 248.082 101.148 244.882 104.709 241.194C101.737 235.371 95.53 236.822 93.567 237.711Z" fill="white"/>
<path d="M101.482 235.544C101.625 235.613 101.789 235.623 101.939 235.571C102.089 235.52 102.212 235.411 102.282 235.269C102.355 235.13 102.369 234.968 102.323 234.818C102.276 234.668 102.172 234.542 102.033 234.469C101.021 233.898 99.8814 233.594 98.7199 233.584C97.5585 233.573 96.4134 233.858 95.3919 234.411C95.1809 234.871 94.9639 235.311 94.7529 235.74C95.7507 235.099 96.9045 234.741 98.0902 234.707C99.2759 234.672 100.448 234.962 101.482 235.544Z" fill="white"/>
<path d="M90.896 228.513C90.3533 230.857 89.6202 233.153 88.704 235.378L90.519 235.478C91.3786 235.525 92.2053 235.825 92.8962 236.338C93.5871 236.852 94.1118 237.557 94.405 238.367L94.45 238.482C94.5983 238.897 94.9014 239.238 95.2957 239.435C95.6901 239.632 96.1453 239.668 96.566 239.537C96.7909 239.467 96.999 239.351 97.1773 239.197C97.3555 239.043 97.5001 238.854 97.602 238.642L100.728 232.116L90.896 228.513Z" fill="#916160"/>
<path d="M86.045 255.774C81.296 257.8 74.022 258.196 71.005 253.345V254.662C74.022 259.507 81.296 259.136 86.045 257.084C90.794 255.032 89.759 251.74 94.009 249.957C95.5687 249.393 96.9881 248.499 98.17 247.336C98.17 246.952 98.253 246.467 98.317 245.904C97.0537 247.065 95.5953 247.993 94.009 248.646C89.759 250.43 90.775 253.741 86.045 255.774Z" fill="white"/>
<path d="M98.318 241.597C98.1231 240.674 98.1231 239.72 98.318 238.797C98.3738 238.587 98.3833 238.367 98.3459 238.153C98.3084 237.939 98.2248 237.736 98.101 237.557L97.577 238.65C97.4323 238.955 97.2002 239.211 96.9102 239.384C96.6203 239.557 96.2854 239.641 95.948 239.623C95.6106 239.606 95.2859 239.489 95.015 239.288C94.744 239.086 94.5391 238.808 94.426 238.49L94.381 238.375C94.0878 237.565 93.5631 236.86 92.8722 236.346C92.1813 235.833 91.3546 235.533 90.495 235.486L88.654 235.386C88.3831 235.377 88.1159 235.45 87.8876 235.596C87.6593 235.742 87.4809 235.954 87.376 236.204C85.458 240.774 80.709 245.856 77.034 248.182C74.343 248.118 71 250.355 71 253.082V253.35C74.017 258.201 81.291 257.824 86.04 255.779C90.789 253.734 89.754 250.435 94.004 248.652C95.5903 247.999 97.0487 247.071 98.312 245.91C98.5148 244.48 98.5168 243.028 98.318 241.597Z" fill="#02AD24"/>
<path d="M89.119 245.349C89.226 245.463 89.3709 245.533 89.5264 245.548C89.6819 245.562 89.8372 245.519 89.963 245.426C90.086 245.329 90.1655 245.187 90.1842 245.031C90.203 244.875 90.1594 244.719 90.063 244.595C89.3525 243.644 88.4082 242.893 87.3219 242.415C86.2356 241.937 85.044 241.748 83.863 241.866C83.607 242.179 83.352 242.505 83.083 242.799C84.2239 242.664 85.3802 242.828 86.4385 243.275C87.4968 243.722 88.4205 244.437 89.119 245.349Z" fill="white"/>
<path d="M90.993 243.252C91.0999 243.366 91.2449 243.436 91.4004 243.45C91.5559 243.465 91.7111 243.421 91.8369 243.329C91.9599 243.232 92.0394 243.09 92.0582 242.934C92.0769 242.778 92.0333 242.622 91.937 242.498C91.1864 241.519 90.1982 240.748 89.0661 240.258C87.934 239.768 86.6954 239.575 85.4679 239.698C85.2379 240.043 85.001 240.376 84.752 240.714C85.9238 240.546 87.1191 240.693 88.2157 241.139C89.3122 241.585 90.2707 242.314 90.993 243.252Z" fill="white"/>
<path d="M87.177 247.395C87.2266 247.457 87.2877 247.508 87.3571 247.546C87.4264 247.584 87.5026 247.608 87.5813 247.617C87.6599 247.626 87.7395 247.619 87.8155 247.596C87.8915 247.574 87.9623 247.538 88.024 247.488C88.0858 247.438 88.1371 247.377 88.1752 247.308C88.2133 247.239 88.2373 247.162 88.246 247.084C88.2546 247.005 88.2477 246.926 88.2255 246.85C88.2034 246.774 88.1666 246.703 88.1171 246.641C87.421 245.714 86.5028 244.978 85.4472 244.5C84.3916 244.022 83.2326 243.817 82.077 243.905C81.77 244.231 81.438 244.544 81.144 244.845C82.2843 244.712 83.4394 244.878 84.4968 245.324C85.5541 245.771 86.4776 246.485 87.177 247.395Z" fill="white"/>
<path d="M77.035 248.181C74.344 248.117 71.001 250.354 71.001 253.081V253.349C73.973 258.13 81.074 257.823 85.824 255.861C85.463 249.332 79.199 248.156 77.035 248.181Z" fill="white"/>
<path d="M85.165 249.357C85.272 249.471 85.4169 249.541 85.5724 249.556C85.7279 249.57 85.8833 249.527 86.009 249.434C86.132 249.337 86.2115 249.195 86.2303 249.039C86.249 248.883 86.2054 248.727 86.109 248.603C85.4149 247.671 84.4951 246.931 83.4363 246.452C82.3774 245.974 81.2142 245.772 80.056 245.867C79.679 246.199 79.302 246.506 78.925 246.819C80.0967 246.652 81.2918 246.798 82.3882 247.244C83.4846 247.69 84.4428 248.419 85.165 249.357Z" fill="white"/>
<path d="M118.797 166.743L95.026 179.983C92.8706 181.184 91.1466 183.031 90.0972 185.263C89.0478 187.496 88.7259 190.002 89.177 192.428L93.79 217.283L90.006 229.306C93.266 233.684 100.763 233.906 100.763 233.906C104.943 225.52 108.011 221.96 110.389 214.935C112.767 207.91 114.346 203.059 114.346 203.059L134.09 197.664C138.604 196.437 142.647 193.885 145.697 190.338C148.747 186.791 150.664 182.411 151.201 177.764C151.533 174.773 151.553 172.734 151.553 172.734L118.797 166.743Z" fill="#37474F"/>
<path opacity="0.2" d="M118.983 173.422C118.985 176.074 119.927 178.64 121.642 180.664L104.842 191.164C102.387 192.71 100.572 195.089 99.729 197.864L93.791 217.282L99.147 195.652C99.7604 193.166 101.326 191.019 103.506 189.676L118.993 180.088C118.513 179.043 118.263 177.906 118.262 176.756C118.26 175.606 118.506 174.469 118.983 173.422Z" fill="black"/>
<path d="M113.562 154.739C111.868 157.939 99.807 156.503 100.312 151.275C103.483 144.659 113.467 148.929 113.562 154.739Z" fill="#02AD24"/>
<path d="M121.373 125.893H120.734C116.634 125.938 111.434 128.731 108.89 135.903L99.085 155.008L110.347 160.008L116.509 141.97L121.373 125.893Z" fill="#916160"/>
<path d="M113.466 138.579C112.813 140.88 112.49 143.263 112.507 145.655C112.505 148.197 111.995 150.713 111.007 153.055C109.803 152.222 108.362 151.801 106.899 151.854C105.436 151.907 104.03 152.431 102.889 153.349C102.074 154.034 101.446 154.913 101.061 155.906L110.31 160.006L116.472 141.968L119.534 132.035C118.138 132.667 116.882 133.571 115.84 134.695C114.798 135.818 113.991 137.139 113.466 138.579Z" fill="#7A4C4A"/>
<path d="M110.417 156.561C109.988 155.495 109.293 154.557 108.397 153.836C107.502 153.115 106.437 152.636 105.304 152.445C104.129 152.324 102.943 152.495 101.85 152.94C100.756 153.386 99.7894 154.094 99.0341 155.002C97.8071 156.491 97.9991 158.502 98.7721 160.262C99.4211 161.632 100.524 162.736 101.895 163.385C103.265 164.033 104.818 164.188 106.289 163.822C109.211 163.023 111.517 159.38 110.417 156.561Z" fill="#916160"/>
<path d="M121.373 125.893C116.464 125.35 110.213 126.532 100.312 151.275C106.148 145.484 113.562 154.739 113.562 154.739C117.8 144.781 125.291 128.117 125.291 128.117L121.373 125.893Z" fill="#02AD24"/>
<path opacity="0.2" d="M121.373 125.893C116.464 125.35 110.213 126.532 100.312 151.275C106.148 145.484 113.562 154.739 113.562 154.739C117.8 144.781 125.291 128.117 125.291 128.117L121.373 125.893Z" fill="white"/>
<path d="M153.99 183.719C144.466 191.632 125.01 172.482 114.572 169.069C117.772 161.776 117.772 155.122 117.129 147.769C116.486 140.416 112.169 127.539 120.382 126.037C131.35 123.896 136.892 125.864 145.847 128.191C158.695 146.698 154.649 169.907 153.99 183.719Z" fill="#02AD24"/>
<path opacity="0.7" d="M153.99 183.719C144.466 191.632 125.01 172.482 114.572 169.069C117.772 161.776 117.772 155.122 117.129 147.769C116.486 140.416 112.169 127.539 120.382 126.037C131.35 123.896 136.892 125.864 145.847 128.191C158.695 146.698 154.649 169.907 153.99 183.719Z" fill="white"/>
<path d="M125.155 122.313L125.583 127.069C125.604 127.438 125.51 127.804 125.315 128.117C125.05 128.613 124.948 129.179 125.022 129.737C125.097 130.294 125.344 130.814 125.73 131.223C126.343 131.686 127.09 131.939 127.858 131.945C129.308 132.022 130.758 131.791 132.112 131.269C133.467 130.747 134.697 129.945 135.72 128.915C135.931 128.7 136.096 128.445 136.206 128.165C136.315 127.885 136.368 127.586 136.359 127.285L136.046 115.217L125.155 122.313Z" fill="#916160"/>
<path d="M136.029 115.218L125.163 122.313L125.54 126.532C127.865 126.133 130.07 125.213 131.989 123.841C134.303 121.955 136.342 120.082 136.029 115.218Z" fill="#7A4C4A"/>
<path d="M139.353 107.913C140.44 106.637 140.982 104.985 140.862 103.313C140.668 101.58 139.831 99.9835 138.516 98.839C138.962 98.016 139.16 97.0817 139.088 96.1486C139.015 95.2155 138.675 94.3231 138.107 93.579C137.498 92.8778 136.698 92.3687 135.805 92.1134C134.912 91.8581 133.965 91.8677 133.077 92.141C132.573 91.4396 131.92 90.8578 131.165 90.437C130.411 90.0162 129.573 89.7666 128.711 89.706C127.882 89.5837 127.035 89.6513 126.236 89.9037C125.436 90.1561 124.705 90.5866 124.096 91.163C123.412 90.7508 122.643 90.5004 121.848 90.4311C121.052 90.3618 120.252 90.4753 119.507 90.763C118.741 91.1 118.058 91.6001 117.505 92.2282C116.953 92.8564 116.544 93.5975 116.307 94.4C115.457 94.239 114.579 94.2965 113.757 94.5671C112.935 94.8376 112.195 95.3124 111.607 95.947C111.034 96.7025 110.644 97.5802 110.466 98.5116C110.289 99.4429 110.329 100.403 110.584 101.316C110.23 101.842 109.991 102.437 109.882 103.062C109.773 103.687 109.797 104.327 109.952 104.942C110.107 105.557 110.389 106.133 110.781 106.631C111.173 107.13 111.666 107.54 112.227 107.836C112.067 109.12 112.349 110.42 113.027 111.522C113.704 112.625 114.736 113.464 115.953 113.902C116.355 114.885 116.988 115.755 117.8 116.44C118.611 117.125 119.577 117.602 120.613 117.833C122.753 118.204 124.951 118.028 127.005 117.322C132.015 115.785 135.908 111.901 139.353 107.913Z" fill="#263238"/>
<path d="M128.832 101.955C128.996 102.757 129.287 103.527 129.695 104.237C129.934 104.659 130.266 105.02 130.666 105.295C131.066 105.57 131.522 105.75 132.002 105.822C132.111 105.839 132.212 105.891 132.288 105.971C132.364 106.05 132.412 106.153 132.424 106.263L132.961 110.263C132.958 110.506 133.01 110.747 133.111 110.968C133.213 111.189 133.362 111.385 133.549 111.541C133.751 111.636 133.977 111.668 134.197 111.632C134.417 111.596 134.621 111.495 134.783 111.341C135.099 111.037 135.349 110.672 135.518 110.267C135.874 109.402 136.354 108.594 136.943 107.867C137.315 107.357 137.841 106.981 138.444 106.795C139.046 106.609 139.693 106.623 140.287 106.834C140.881 107.045 141.391 107.443 141.741 107.968C142.091 108.492 142.262 109.116 142.229 109.746C142.304 110.531 142.182 111.322 141.874 112.047C141.566 112.773 141.082 113.41 140.465 113.901C139.829 114.356 139.088 114.643 138.312 114.735C137.536 114.828 136.748 114.724 136.023 114.432C136.713 117.078 135.333 119.916 133.268 121.712C131.095 123.379 128.633 124.634 126.007 125.412C124.646 126.042 123.142 126.302 121.648 126.166C120.451 125.896 119.378 125.235 118.599 124.287C117.835 123.34 117.205 122.293 116.726 121.174C114.387 116.124 113.062 110.665 112.826 105.105C114.892 104.838 127.662 102.415 128.832 101.955Z" fill="#916160"/>
<path d="M121.724 112.029L119.564 117.718L123.335 117.763L121.724 112.029Z" fill="#F28F8F"/>
<path d="M121.724 112.029L119.564 117.718L123.335 117.763L121.724 112.029Z" fill="#7A4C4A"/>
<path d="M127.158 118.919L124.601 120.753C124.894 121.025 125.268 121.194 125.665 121.236C126.063 121.277 126.463 121.188 126.806 120.983C127.093 120.731 127.284 120.389 127.348 120.013C127.412 119.637 127.345 119.25 127.158 118.918V118.919Z" fill="#F28F8F"/>
<path opacity="0.4" d="M127.158 118.919L124.601 120.753C124.894 121.025 125.268 121.194 125.665 121.236C126.063 121.277 126.463 121.188 126.806 120.983C127.093 120.731 127.284 120.389 127.348 120.013C127.412 119.637 127.345 119.25 127.158 118.918V118.919Z" fill="black"/>
<path d="M125.885 121.239C126.219 121.249 126.548 121.16 126.831 120.983C127.06 120.795 127.229 120.544 127.315 120.261C127.402 119.977 127.402 119.675 127.317 119.391C126.92 119.459 126.557 119.659 126.288 119.96C125.991 120.317 125.847 120.776 125.888 121.238L125.885 121.239Z" fill="#F28F8F"/>
<path d="M127.036 111.314C127.101 111.551 127.081 111.802 126.981 112.026C126.881 112.25 126.707 112.433 126.487 112.543C126.268 112.652 126.017 112.683 125.778 112.629C125.539 112.574 125.326 112.439 125.175 112.245C125.024 112.051 124.946 111.812 124.952 111.566C124.958 111.321 125.049 111.086 125.21 110.9C125.37 110.714 125.59 110.59 125.832 110.548C126.074 110.507 126.323 110.55 126.536 110.671C126.658 110.74 126.764 110.832 126.85 110.943C126.936 111.053 126.999 111.179 127.036 111.314Z" fill="#263238"/>
<path d="M118.349 113.397C118.404 113.599 118.399 113.813 118.333 114.012C118.267 114.211 118.143 114.386 117.978 114.514C117.812 114.643 117.613 114.72 117.404 114.736C117.195 114.751 116.986 114.704 116.803 114.601C116.621 114.498 116.473 114.343 116.379 114.156C116.284 113.969 116.247 113.758 116.272 113.55C116.298 113.342 116.384 113.146 116.52 112.987C116.657 112.828 116.837 112.713 117.039 112.656C117.174 112.618 117.315 112.607 117.453 112.624C117.592 112.641 117.726 112.685 117.848 112.754C117.97 112.823 118.077 112.915 118.163 113.025C118.249 113.136 118.312 113.262 118.349 113.397Z" fill="#263238"/>
<path d="M116.205 109.626L114.377 111.831C114.199 111.577 114.104 111.275 114.104 110.965C114.104 110.655 114.199 110.353 114.377 110.099C114.608 109.859 114.901 109.687 115.224 109.604C115.547 109.52 115.886 109.528 116.205 109.626Z" fill="#263238"/>
<path d="M124.939 107.011L127.649 107.944C127.669 107.635 127.594 107.327 127.434 107.062C127.274 106.797 127.037 106.587 126.754 106.461C126.43 106.375 126.089 106.38 125.768 106.477C125.448 106.575 125.16 106.759 124.939 107.011Z" fill="#263238"/>
<path opacity="0.15" d="M122.038 174.087V174.017C122.041 174.004 122.041 173.991 122.038 173.979C122.035 173.966 122.035 173.954 122.038 173.941V173.864L114.572 160.121L113.562 161.278L120.932 175.008C120.98 175.084 121.014 175.168 121.032 175.257C121.038 175.283 121.038 175.311 121.033 175.337C121.027 175.363 121.016 175.388 121 175.41L122.01 174.247C122.016 174.23 122.016 174.212 122.01 174.196C122.013 174.181 122.013 174.166 122.01 174.151C122.027 174.133 122.038 174.111 122.042 174.087H122.038Z" fill="black"/>
<path opacity="0.2" d="M114.553 160.057V159.974L114.521 159.936C114.522 159.921 114.522 159.906 114.521 159.891V159.846L114.483 159.801L114.451 159.756L114.419 159.718L114.387 159.68V159.616L114.287 159.516H114.21L114.172 159.484H114.083L114.032 159.452L105.556 154.684H104.981C104.957 154.683 104.934 154.687 104.911 154.696C104.889 154.704 104.869 154.718 104.853 154.735L103.843 155.892C103.888 155.841 103.971 155.828 104.092 155.847C104.257 155.89 104.414 155.958 104.559 156.047L113.035 160.815C113.201 160.912 113.361 161.019 113.514 161.135C113.677 161.26 113.833 161.393 113.981 161.535C114.123 161.67 114.256 161.813 114.381 161.963C114.485 162.089 114.579 162.223 114.662 162.363L115.672 161.206L114.553 160.057Z" fill="black"/>
<path d="M151.267 131.92C150.741 130.901 149.97 130.029 149.022 129.383C148.074 128.737 146.981 128.337 145.84 128.22L144.415 130.4C142.93 133.116 142.168 136.169 142.203 139.265L142.459 162.165L140.778 162.865C136.051 164.905 131.108 166.406 126.045 167.339C123.404 165.247 120.12 164.134 116.751 164.188L118.029 166.515C115.658 168.03 110.308 165.301 110.308 165.301C109.908 168.638 112.078 172.101 114.942 173.86C117.806 175.619 145.194 173.035 150.998 169.277C154.833 166.803 153.913 143.186 153.913 143.186C154.181 139.25 153.259 135.325 151.267 131.92Z" fill="#916160"/>
<path d="M104.498 158.363C104.319 159.267 104.214 160.184 104.185 161.105C104.401 163.294 105.331 165.351 106.831 166.96C107.14 167.312 107.527 167.586 107.962 167.76C108.181 167.845 108.418 167.872 108.65 167.837C108.882 167.801 109.101 167.706 109.285 167.56C109.607 167.174 109.771 166.681 109.745 166.179C109.814 165.438 109.773 164.69 109.624 163.961C109.469 163.224 109.054 162.568 108.455 162.113C107.988 161.842 107.49 161.628 106.972 161.474C106.463 161.26 106.011 160.932 105.649 160.515L104.498 158.363Z" fill="#916160"/>
<path d="M145.841 128.219C156.247 130.463 155.256 141.003 156.26 147.567C156.899 151.46 157.871 160.012 157.871 160.012C152.202 165.253 142.134 161.802 139.629 159.079C140.574 145.899 138.65 130.456 145.841 128.219Z" fill="#02AD24"/>
<path opacity="0.2" d="M145.841 128.219C156.247 130.463 155.256 141.003 156.26 147.567C156.899 151.46 157.871 160.012 157.871 160.012C152.202 165.253 142.134 161.802 139.629 159.079C140.574 145.899 138.65 130.456 145.841 128.219Z" fill="white"/>
<path d="M122.038 174.086V174.016C122.041 174.003 122.041 173.991 122.038 173.978C122.035 173.965 122.035 173.953 122.038 173.94V173.863L114.572 160.121V160L114.54 159.962C114.541 159.947 114.541 159.932 114.54 159.917V159.873L114.502 159.828L114.47 159.783L114.438 159.745L114.406 159.707V159.643L114.306 159.543H114.229L114.191 159.511H114.102L114.051 159.479L105.575 154.711H105C104.976 154.71 104.953 154.714 104.931 154.723C104.908 154.731 104.888 154.745 104.872 154.762L103.862 155.919H103.894C103.811 155.983 103.804 156.119 103.926 156.341L111.302 170.071C111.71 170.707 112.265 171.236 112.92 171.613L121.396 176.381C121.837 176.624 122.096 176.63 122.131 176.451V176.528L123.141 175.365C123.147 175.348 123.147 175.331 123.141 175.314C123.144 175.299 123.144 175.284 123.141 175.269C123.298 175.122 123.39 174.919 123.397 174.705C123.404 174.49 123.326 174.282 123.179 174.125C123.032 173.968 122.829 173.876 122.615 173.869C122.4 173.862 122.192 173.94 122.035 174.087L122.038 174.086ZM102.92 154.751H102.977C102.958 154.75 102.939 154.75 102.92 154.751ZM112.642 160.222C112.719 160.292 112.802 160.35 112.872 160.422C112.808 160.352 112.725 160.294 112.648 160.222H112.642ZM113.173 160.74L113.273 160.849L113.173 160.74ZM121.016 175.256C121.011 175.158 120.98 175.063 120.926 174.981C120.975 175.057 121.008 175.142 121.026 175.23C121.026 175.23 121.026 175.243 121.026 175.256H121.016Z" fill="#E0E0E0"/>
<path d="M216.604 192.643L206.038 192.95L195.472 192.643C195.018 199.776 196.405 207.05 198.329 210.604C198.786 211.514 199.517 212.259 200.419 212.732C202.163 213.617 204.091 214.079 206.047 214.079C208.003 214.079 209.931 213.617 211.675 212.732C212.593 212.253 213.328 211.485 213.765 210.546C215.678 206.973 217.058 199.751 216.604 192.643Z" fill="white"/>
<path d="M213.498 188.318C217.64 190.709 217.659 194.582 213.549 196.973C211.235 198.151 208.674 198.766 206.077 198.766C203.48 198.766 200.919 198.151 198.605 196.973C194.47 194.582 194.444 190.709 198.554 188.318C200.868 187.139 203.429 186.525 206.026 186.525C208.623 186.525 211.184 187.139 213.498 188.318Z" fill="#EBEBEB"/>
<path d="M211.849 189.268C215.077 191.128 215.096 194.151 211.887 196.018C210.082 196.938 208.084 197.418 206.057 197.418C204.031 197.418 202.033 196.938 200.228 196.018C197 194.152 196.981 191.128 200.19 189.268C201.996 188.349 203.993 187.87 206.019 187.87C208.046 187.87 210.043 188.349 211.849 189.268Z" fill="#E0E0E0"/>
<g opacity="0.15">
<path opacity="0.15" d="M211.848 189.268C215.076 191.128 215.095 194.151 211.886 196.018C210.081 196.938 208.083 197.418 206.056 197.418C204.03 197.418 202.032 196.938 200.227 196.018C196.999 194.152 196.98 191.128 200.189 189.268C201.995 188.349 203.992 187.87 206.018 187.87C208.045 187.87 210.042 188.349 211.848 189.268Z" fill="black"/>
</g>
<path d="M223.411 147.555C199.595 155.355 199.384 171.281 204.753 182.627C206.102 184.922 210.199 186.155 213.765 172.042L207.514 172.847L214.801 169.153L216.719 163.496L210.647 163.943L218.356 160.702C219.769 156.219 221.458 151.828 223.412 147.554L223.411 147.555Z" fill="#02AD24"/>
<path opacity="0.2" d="M223.411 147.555C199.595 155.355 199.384 171.281 204.753 182.627C206.102 184.922 210.199 186.155 213.765 172.042L207.514 172.847L214.801 169.153L216.719 163.496L210.647 163.943L218.356 160.702C219.769 156.219 221.458 151.828 223.412 147.554L223.411 147.555Z" fill="black"/>
<path opacity="0.2" d="M223.411 147.555C199.595 155.355 199.384 171.281 204.753 182.627C206.102 184.922 210.199 186.155 213.765 172.042L207.514 172.847L214.801 169.153L216.719 163.496L210.647 163.943L218.356 160.702C219.769 156.219 221.458 151.828 223.412 147.554L223.411 147.555Z" fill="white"/>
<path d="M216.693 151.537C204.139 161.067 203.002 171.991 206.549 183.4C205.277 173.359 203.906 163.202 216.693 151.537Z" fill="white"/>
<path d="M183.079 163.733C206.55 167.033 209.4 181.841 206.279 193.295C205.403 195.66 201.805 197.488 196.129 184.941L202.086 184.653L194.686 182.422L191.986 177.462L197.739 176.874L190.018 175.135C187.942 171.195 185.624 167.387 183.079 163.733Z" fill="#02AD24"/>
<path opacity="0.2" d="M183.079 163.733C206.55 167.033 209.4 181.841 206.279 193.295C205.403 195.66 201.805 197.488 196.129 184.941L202.086 184.653L194.686 182.422L191.986 177.462L197.739 176.874L190.018 175.135C187.942 171.195 185.624 167.387 183.079 163.733Z" fill="white"/>
<path opacity="0.1" d="M183.079 163.733C206.55 167.033 209.4 181.841 206.279 193.295C205.403 195.66 201.805 197.488 196.129 184.941L202.086 184.653L194.686 182.422L191.986 177.462L197.739 176.874L190.018 175.135C187.942 171.195 185.624 167.387 183.079 163.733Z" fill="black"/>
<path d="M190.014 166.328C203.271 173.116 206.16 183.128 204.753 194.318C204.254 184.756 203.827 175.072 190.014 166.328Z" fill="white"/>
<path d="M230.282 169.281C208.754 169.633 204.529 182.653 206.057 193.327C206.581 195.558 209.636 197.61 216.143 186.935L210.806 186.008L217.728 184.826L220.719 180.659L215.606 179.489L222.758 178.789C225.069 175.471 227.581 172.299 230.281 169.289L230.282 169.281Z" fill="#02AD24"/>
<path d="M223.724 170.84C210.998 175.474 207.291 184.154 207.31 194.419C208.844 185.854 210.301 177.17 223.724 170.84Z" fill="white"/>
<path opacity="0.2" d="M230.282 169.281C208.754 169.633 204.529 182.653 206.057 193.327C206.581 195.558 209.636 197.61 216.143 186.935L210.806 186.008L217.728 184.826L220.719 180.659L215.606 179.489L222.758 178.789C225.069 175.471 227.581 172.299 230.281 169.289L230.282 169.281Z" fill="white"/>
</g>
<defs>
<clipPath id="clip0_246_9014">
<rect width="301.188" height="282.704" fill="white"/>
</clipPath>
</defs>
</svg>
