<svg width="29" height="29" viewBox="0 0 29 29" fill="none" xmlns="http://www.w3.org/2000/svg">
<path fill-rule="evenodd" clip-rule="evenodd" d="M22.7295 0.19574C25.6366 0.19574 28.0019 2.53759 28.0019 5.41475L28.0032 8.79336C28.0032 9.05125 27.9003 9.30132 27.7166 9.48367C27.5343 9.66732 27.2855 9.77022 27.0263 9.77022C26.0013 9.77022 25.1677 10.5882 25.1677 11.5937C25.1677 12.5992 26.0013 13.4171 27.0263 13.4171C27.5655 13.4171 28.0032 13.8548 28.0032 14.394V17.77C28.0032 20.6472 25.6379 22.989 22.7308 22.989H5.27241C2.36529 22.989 0 20.6472 0 17.77V14.394C0 13.8548 0.437631 13.4171 0.976855 13.4171C2.0019 13.4171 2.83548 12.5992 2.83548 11.5937C2.83548 10.6168 2.03576 9.87962 0.976855 9.87962C0.717662 9.87962 0.46889 9.77673 0.286544 9.59308C0.102895 9.41073 0 9.16066 0 8.90277L0.00130247 5.41475C0.00130247 2.53759 2.36659 0.19574 5.27371 0.19574H22.7295ZM22.7295 2.14945H17.3867L17.3875 4.65176C17.3875 5.19098 16.9499 5.62861 16.4106 5.62861C15.8714 5.62861 15.4338 5.19098 15.4338 4.65176L15.433 2.14945H5.27371C3.44374 2.14945 1.95501 3.61473 1.95501 5.41475L1.95371 8.04314C3.60394 8.44821 4.78919 9.86269 4.78919 11.5937C4.78919 13.3416 3.5831 14.816 1.95371 15.2445V17.77C1.95371 19.57 3.44244 21.0353 5.27241 21.0353H15.433L15.4338 19.0966C15.4338 18.556 15.8714 18.1197 16.4106 18.1197C16.9499 18.1197 17.3875 18.556 17.3875 19.0966L17.3867 21.0353H22.7308C24.5607 21.0353 26.0495 19.57 26.0495 17.77V15.2445C24.4201 14.816 23.214 13.3416 23.214 11.5937C23.214 9.84446 24.4188 8.37136 26.0495 7.94285L26.0482 5.41475C26.0482 3.61473 24.5594 2.14945 22.7295 2.14945ZM16.4106 7.3652C16.9499 7.3652 17.3875 7.80283 17.3875 8.34205V14.6213C17.3875 15.1605 16.9499 15.5981 16.4106 15.5981C15.8714 15.5981 15.4338 15.1605 15.4338 14.6213V8.34205C15.4338 7.80283 15.8714 7.3652 16.4106 7.3652Z" fill="#9E9E9E"/>
</svg>
