<svg width="28" height="29" viewBox="0 0 28 29" fill="none" xmlns="http://www.w3.org/2000/svg">
<path fill-rule="evenodd" clip-rule="evenodd" d="M18.6169 0.5C19.1561 0.5 19.5938 0.937631 19.5938 1.47685L19.5944 2.5811C21.4961 2.71149 23.0756 3.3629 24.1934 4.48309C25.4139 5.70872 26.056 7.47096 26.0495 9.58488V21.4673C26.0495 25.8072 23.2934 28.5033 18.8585 28.5033H7.8422C3.40728 28.5033 0.651245 25.7694 0.651245 21.3683V9.58227C0.651245 5.48885 3.10908 2.8613 7.11761 2.58155L7.11841 1.47685C7.11841 0.937631 7.55604 0.5 8.09527 0.5C8.63449 0.5 9.07212 0.937631 9.07212 1.47685L9.07173 2.5566H17.6394L17.64 1.47685C17.64 0.937631 18.0777 0.5 18.6169 0.5ZM24.0958 12.0972H2.60495V21.3683C2.60495 24.7105 4.46489 26.5496 7.8422 26.5496H18.8585C22.2358 26.5496 24.0958 24.7444 24.0958 21.4673L24.0958 12.0972ZM19.1479 20.2928C19.6871 20.2928 20.1248 20.7304 20.1248 21.2696C20.1248 21.8088 19.6871 22.2465 19.1479 22.2465C18.6087 22.2465 18.1659 21.8088 18.1659 21.2696C18.1659 20.7304 18.597 20.2928 19.1362 20.2928H19.1479ZM13.3682 20.2928C13.9074 20.2928 14.3451 20.7304 14.3451 21.2696C14.3451 21.8088 13.9074 22.2465 13.3682 22.2465C12.829 22.2465 12.3861 21.8088 12.3861 21.2696C12.3861 20.7304 12.8173 20.2928 13.3565 20.2928H13.3682ZM7.57636 20.2928C8.11559 20.2928 8.55322 20.7304 8.55322 21.2696C8.55322 21.8088 8.11559 22.2465 7.57636 22.2465C7.03714 22.2465 6.593 21.8088 6.593 21.2696C6.593 20.7304 7.02542 20.2928 7.56464 20.2928H7.57636ZM19.1479 15.2304C19.6871 15.2304 20.1248 15.6681 20.1248 16.2073C20.1248 16.7465 19.6871 17.1842 19.1479 17.1842C18.6087 17.1842 18.1659 16.7465 18.1659 16.2073C18.1659 15.6681 18.597 15.2304 19.1362 15.2304H19.1479ZM13.3682 15.2304C13.9074 15.2304 14.3451 15.6681 14.3451 16.2073C14.3451 16.7465 13.9074 17.1842 13.3682 17.1842C12.829 17.1842 12.3861 16.7465 12.3861 16.2073C12.3861 15.6681 12.8173 15.2304 13.3565 15.2304H13.3682ZM7.57636 15.2304C8.11559 15.2304 8.55322 15.6681 8.55322 16.2073C8.55322 16.7465 8.11559 17.1842 7.57636 17.1842C7.03714 17.1842 6.593 16.7465 6.593 16.2073C6.593 15.6681 7.02542 15.2304 7.56464 15.2304H7.57636ZM17.6394 4.51031H9.07173L9.07212 5.76329C9.07212 6.30251 8.63449 6.74015 8.09527 6.74015C7.55604 6.74015 7.11841 6.30251 7.11841 5.76329L7.11772 4.53988C4.19988 4.78499 2.60495 6.5537 2.60495 9.58227V10.1435H24.0958L24.0958 9.58227C24.101 7.97372 23.6685 6.72334 22.8102 5.86371C22.0568 5.10803 20.9553 4.65671 19.5949 4.54051L19.5938 5.76329C19.5938 6.30251 19.1561 6.74015 18.6169 6.74015C18.0777 6.74015 17.64 6.30251 17.64 5.76329L17.6394 4.51031Z" fill="#9E9E9E"/>
</svg>
